{
.appVersion = "1271";
DisplayStrings = (
"@¤"
);
classes = (
{
automatic = 1;

glyphs = (
{
color = 4;
glyphname = A;
layers = (
{
anchors = (
{
name = bottom;
position = "{334, 0}";
},
{
name = ogonek;
position = "{656, 0}";
},
{
name = top;
position = "{334, 641}";
}
);
background = {
paths = (
{
closed = 1;
nodes = (
"353 651 OFFCURVE",
"340 655 OFFCURVE",
"328 655 CURVE SMOOTH",
"309 655 OFFCURVE",
"296 639 OFFCURVE",
"288 618 CURVE SMOOTH",
"80 62 LINE",
"18 39 LINE SMOOTH",
"6 34 OFFCURVE",
"2 15 OFFCURVE",
"2 0 CURVE",
"212 0 LINE",
"227 11 OFFCURVE",
"231 19 OFFCURVE",
"231 46 CURVE",
"142 67 LINE",
"198 215 LINE",
"438 215 LINE",
"496 66 LINE",
"435 39 LINE",
"423 35 OFFCURVE",
"419 16 OFFCURVE",
"419 0 CURVE",
"656 0 LINE",
"671 11 OFFCURVE",
"675 19 OFFCURVE",
"675 46 CURVE",
"589 67 LINE",
"360 648 LINE"
);
},
{
closed = 1;
nodes = (
"417 267 LINE",
"217 267 LINE",
"315 529 LINE"
);
}
);
};
layerId = "A9E90CC4-8E6C-407E-8E88-16513AA8D05B";
paths = (
{
closed = 1;
nodes = (
"212 0 LINE",
"227 11 OFFCURVE",
"231 19 OFFCURVE",
"231 46 CURVE",
"132 69 LINE",
"138 57 LINE",
"326 559 LINE",
"307 559 LINE",
"509 46 LINE",
"526 79 LINE",
"435 39 LINE",
"423 35 OFFCURVE",
"419 16 OFFCURVE",
"419 0 CURVE",
"656 0 LINE",
"671 11 OFFCURVE",
"675 19 OFFCURVE",
"675 46 CURVE",
"579 69 LINE",
"593 57 LINE",
"360 648 LINE",
"353 651 OFFCURVE",
"340 655 OFFCURVE",
"328 655 CURVE SMOOTH",
"309 655 OFFCURVE",
"296 639 OFFCURVE",
"288 618 CURVE SMOOTH",
"76 52 LINE",
"90 66 LINE",
"18 39 LINE SMOOTH",
"6 35 OFFCURVE",
"2 15 OFFCURVE",
"2 0 CURVE"
);
},
{
closed = 1;
nodes = (
"453 215 LINE",
"432 267 LINE",
"202 267 LINE",
"183 215 LINE"
);
}
);
width = 677;
},
{
anchors = (
{
name = bottom;
position = "{302, 0}";
},
{
name = ogonek;
position = "{591, 0}";
},
{
name = top;
position = "{292, 641}";
}
);
layerId = "E1BF09ED-4302-4AD3-9939-8FDA35DE0FE8";
paths = (
{
closed = 1;
nodes = (
"127 0 LINE SMOOTH",
"141 0 OFFCURVE",
"144 4 OFFCURVE",
"144 18 CURVE",
"73 32 LINE",
"73 15 LINE",
"289 604 LINE",
"285 602 LINE",
"512 23 LINE",
"523 34 LINE",
"459 20 LINE SMOOTH",
"448 18 OFFCURVE",
"443 12 OFFCURVE",
"443 0 CURVE",
"591 0 LINE SMOOTH",
"605 0 OFFCURVE",
"608 4 OFFCURVE",
"608 18 CURVE",
"527 34 LINE",
"550 18 LINE",
"300 653 LINE",
"299 654 OFFCURVE",
"296 655 OFFCURVE",
"294 655 CURVE SMOOTH",
"288 655 OFFCURVE",
"286 653 OFFCURVE",
"283 645 CURVE SMOOTH",
"52 16 LINE",
"66 30 LINE",
"20 20 LINE SMOOTH",
"9 18 OFFCURVE",
"4 12 OFFCURVE",
"4 0 CURVE"
);
},
{
closed = 1;
nodes = (
"441 230 LINE",
"431 250 LINE",
"153 250 LINE",
"145 230 LINE"
);
}
);
width = 612;
},
{
anchors = (
{
name = bottom;
position = "{346, 0}";
},
{
name = ogonek;
position = "{688, 0}";
},
{
name = top;
position = "{346, 641}";
}
);
guideLines = (
{
angle = 110.927;
position = "{464, 56}";
}
);
layerId = "7B53E429-1BF0-49C5-9F57-63EEBF39C6CC";
paths = (
{
closed = 1;
nodes = (
"253 0 LINE",
"271 29 OFFCURVE",
"276 50 OFFCURVE",
"276 76 CURVE",
"150 106 LINE",
"162 57 LINE",
"337 539 LINE",
"279 539 LINE",
"464 56 LINE",
"470 96 LINE",
"396 69 LINE SMOOTH",
"386 65 OFFCURVE",
"380 39 OFFCURVE",
"380 0 CURVE",
"688 0 LINE",
"706 29 OFFCURVE",
"711 50 OFFCURVE",
"711 76 CURVE",
"609 100 LINE",
"656 57 LINE",
"430 648 LINE",
"408 653 OFFCURVE",
"387 656 OFFCURVE",
"363 656 CURVE SMOOTH",
"335 656 OFFCURVE",
"269 646 OFFCURVE",
"259 618 CURVE SMOOTH",
"54 52 LINE",
"102 103 LINE",
"18 69 LINE SMOOTH",
"8 65 OFFCURVE",
"2 39 OFFCURVE",
"2 0 CURVE"
);
},
{
closed = 1;
nodes = (
"443 185 LINE",
"424 275 LINE",
"193 275 LINE",
"176 185 LINE"
);
}
);
width = 713;
}
);
leftKerningGroup = A;
leftMetricsKey = "=H*.05";
rightKerningGroup = A;
rightMetricsKey = "=H*.05";
unicode = 0041;
},
{
color = 1;
glyphname = Aacute;
layers = (
{
background = {
paths = (
{
closed = 1;
nodes = (
"346 651 OFFCURVE",
"333 655 OFFCURVE",
"321 655 CURVE SMOOTH",
"302 655 OFFCURVE",
"289 639 OFFCURVE",
"281 618 CURVE SMOOTH",
"73 62 LINE",
"11 39 LINE SMOOTH",
"-1 34 OFFCURVE",
"-5 15 OFFCURVE",
"-5 0 CURVE",
"205 0 LINE",
"220 11 OFFCURVE",
"224 19 OFFCURVE",
"224 46 CURVE",
"135 67 LINE",
"191 215 LINE",
"431 215 LINE",
"489 66 LINE",
"428 39 LINE",
"416 35 OFFCURVE",
"412 16 OFFCURVE",
"412 0 CURVE",
"649 0 LINE",
"664 11 OFFCURVE",
"668 19 OFFCURVE",
"668 46 CURVE",
"582 67 LINE",
"353 648 LINE"
);
},
{
closed = 1;
nodes = (
"410 267 LINE",
"210 267 LINE",
"308 529 LINE"
);
},
{
closed = 1;
nodes = (
"474 833 OFFCURVE",
"463 858 OFFCURVE",
"440 858 CURVE SMOOTH",
"409 858 OFFCURVE",
"356 825 OFFCURVE",
"220 743 CURVE",
"219 741 OFFCURVE",
"219 738 OFFCURVE",
"219 736 CURVE SMOOTH",
"219 728 OFFCURVE",
"223 721 OFFCURVE",
"233 715 CURVE",
"384 760 OFFCURVE",
"474 781 OFFCURVE",
"474 816 CURVE SMOOTH"
);
}
);
};
components = (
{
name = A;
},
{
name = acutecomb.case;
transform = "{1, 0, 0, 1, 220, 198}";
}
);
layerId = "A9E90CC4-8E6C-407E-8E88-16513AA8D05B";
width = 677;
},
{
components = (
{
name = A;
},
{
name = acutecomb.case;
transform = "{1, 0, 0, 1, 194, 198}";
}
);
layerId = "E1BF09ED-4302-4AD3-9939-8FDA35DE0FE8";
width = 612;
},
{
components = (
{
name = A;
},
{
name = acutecomb.case;
transform = "{1, 0, 0, 1, 199, 198}";
}
);
layerId = "7B53E429-1BF0-49C5-9F57-63EEBF39C6CC";
width = 713;
}
);
leftKerningGroup = A;
rightKerningGroup = A;
unicode = 00C1;
},
{
color = 1;
glyphname = Acircumflex;
layers = (
{
background = {
paths = (
{
closed = 1;
nodes = (
"348 854 OFFCURVE",
"333 858 OFFCURVE",
"324 858 CURVE SMOOTH",
"315 858 OFFCURVE",
"300 853 OFFCURVE",
"280 839 CURVE SMOOTH",
"143 743 LINE",
"143 743 OFFCURVE",
"142 740 OFFCURVE",
"142 737 CURVE SMOOTH",
"142 728 OFFCURVE",
"147 720 OFFCURVE",
"156 715 CURVE",
"324 787 LINE",
"492 715 LINE",
"501 720 OFFCURVE",
"506 728 OFFCURVE",
"506 737 CURVE SMOOTH",
"506 740 OFFCURVE",
"505 743 OFFCURVE",
"505 743 CURVE",
"368 839 LINE SMOOTH"
);
},
{
closed = 1;
nodes = (
"346 651 OFFCURVE",
"333 655 OFFCURVE",
"321 655 CURVE SMOOTH",
"302 655 OFFCURVE",
"289 639 OFFCURVE",
"281 618 CURVE SMOOTH",
"73 62 LINE",
"11 39 LINE SMOOTH",
"-1 34 OFFCURVE",
"-5 15 OFFCURVE",
"-5 0 CURVE",
"205 0 LINE",
"220 11 OFFCURVE",
"224 19 OFFCURVE",
"224 46 CURVE",
"135 67 LINE",
"191 215 LINE",
"431 215 LINE",
"489 66 LINE",
"428 39 LINE",
"416 35 OFFCURVE",
"412 16 OFFCURVE",
"412 0 CURVE",
"649 0 LINE",
"664 11 OFFCURVE",
"668 19 OFFCURVE",
"668 46 CURVE",
"582 67 LINE",
"353 648 LINE"
);
},
{
closed = 1;
nodes = (
"410 267 LINE",
"210 267 LINE",
"308 529 LINE"
);
}
);
};
components = (
{
name = A;
},
{
name = circumflexcomb.case;
transform = "{1, 0, 0, 1, 186, 198}";
}
);
layerId = "A9E90CC4-8E6C-407E-8E88-16513AA8D05B";
width = 677;
},
{
components = (
{
name = A;
},
{
name = circumflexcomb.case;
transform = "{1, 0, 0, 1, 164, 198}";
}
);
layerId = "E1BF09ED-4302-4AD3-9939-8FDA35DE0FE8";
width = 612;
},
{
components = (
{
name = A;
},
{
name = circumflexcomb.case;
transform = "{1, 0, 0, 1, 162, 198}";
}
);
layerId = "7B53E429-1BF0-49C5-9F57-63EEBF39C6CC";
width = 713;
}
);
leftKerningGroup = A;
rightKerningGroup = A;
unicode = 00C2;
},
{
color = 1;
glyphname = Adieresis;
layers = (
{
background = {
paths = (
{
closed = 1;
nodes = (
"173 755 OFFCURVE",
"188 736 OFFCURVE",
"219 736 CURVE SMOOTH",
"243 736 OFFCURVE",
"266 757 OFFCURVE",
"266 782 CURVE SMOOTH",
"266 809 OFFCURVE",
"250 828 OFFCURVE",
"219 828 CURVE SMOOTH",
"196 828 OFFCURVE",
"173 807 OFFCURVE",
"173 782 CURVE SMOOTH"
);
},
{
closed = 1;
nodes = (
"380 755 OFFCURVE",
"395 736 OFFCURVE",
"426 736 CURVE SMOOTH",
"450 736 OFFCURVE",
"473 757 OFFCURVE",
"473 782 CURVE SMOOTH",
"473 809 OFFCURVE",
"457 828 OFFCURVE",
"426 828 CURVE SMOOTH",
"403 828 OFFCURVE",
"380 807 OFFCURVE",
"380 782 CURVE SMOOTH"
);
},
{
closed = 1;
nodes = (
"346 651 OFFCURVE",
"333 655 OFFCURVE",
"321 655 CURVE SMOOTH",
"302 655 OFFCURVE",
"289 639 OFFCURVE",
"281 618 CURVE SMOOTH",
"73 62 LINE",
"11 39 LINE SMOOTH",
"-1 34 OFFCURVE",
"-5 15 OFFCURVE",
"-5 0 CURVE",
"205 0 LINE",
"220 11 OFFCURVE",
"224 19 OFFCURVE",
"224 46 CURVE",
"135 67 LINE",
"191 215 LINE",
"431 215 LINE",
"489 66 LINE",
"428 39 LINE",
"416 35 OFFCURVE",
"412 16 OFFCURVE",
"412 0 CURVE",
"649 0 LINE",
"664 11 OFFCURVE",
"668 19 OFFCURVE",
"668 46 CURVE",
"582 67 LINE",
"353 648 LINE"
);
},
{
closed = 1;
nodes = (
"410 267 LINE",
"210 267 LINE",
"308 529 LINE"
);
}
);
};
components = (
{
name = A;
},
{
name = dieresiscomb.case;
transform = "{1, 0, 0, 1, 185, 198}";
}
);
layerId = "A9E90CC4-8E6C-407E-8E88-16513AA8D05B";
width = 677;
},
{
components = (
{
name = A;
},
{
name = dieresiscomb.case;
transform = "{1, 0, 0, 1, 191, 198}";
}
);
layerId = "E1BF09ED-4302-4AD3-9939-8FDA35DE0FE8";
width = 612;
},
{
components = (
{
name = A;
},
{
name = dieresiscomb.case;
transform = "{1, 0, 0, 1, 132, 198}";
}
);
layerId = "7B53E429-1BF0-49C5-9F57-63EEBF39C6CC";
width = 713;
}
);
leftKerningGroup = A;
rightKerningGroup = A;
unicode = 00C4;
},
{
color = 1;
glyphname = Agrave;
layers = (
{
background = {
paths = (
{
closed = 1;
nodes = (
"346 651 OFFCURVE",
"333 655 OFFCURVE",
"321 655 CURVE SMOOTH",
"302 655 OFFCURVE",
"289 639 OFFCURVE",
"281 618 CURVE SMOOTH",
"73 62 LINE",
"11 39 LINE SMOOTH",
"-1 34 OFFCURVE",
"-5 15 OFFCURVE",
"-5 0 CURVE",
"205 0 LINE",
"220 11 OFFCURVE",
"224 19 OFFCURVE",
"224 46 CURVE",
"135 67 LINE",
"191 215 LINE",
"431 215 LINE",
"489 66 LINE",
"428 39 LINE",
"416 35 OFFCURVE",
"412 16 OFFCURVE",
"412 0 CURVE",
"649 0 LINE",
"664 11 OFFCURVE",
"668 19 OFFCURVE",
"668 46 CURVE",
"582 67 LINE",
"353 648 LINE"
);
},
{
closed = 1;
nodes = (
"410 267 LINE",
"210 267 LINE",
"308 529 LINE"
);
},
{
closed = 1;
nodes = (
"193 781 OFFCURVE",
"283 760 OFFCURVE",
"434 715 CURVE",
"444 721 OFFCURVE",
"448 728 OFFCURVE",
"448 736 CURVE SMOOTH",
"448 738 OFFCURVE",
"448 741 OFFCURVE",
"447 743 CURVE",
"311 825 OFFCURVE",
"258 858 OFFCURVE",
"227 858 CURVE SMOOTH",
"204 858 OFFCURVE",
"193 833 OFFCURVE",
"193 816 CURVE SMOOTH"
);
}
);
};
components = (
{
name = A;
},
{
name = gravecomb.case;
transform = "{1, 0, 0, 1, 220, 198}";
}
);
layerId = "A9E90CC4-8E6C-407E-8E88-16513AA8D05B";
width = 677;
},
{
components = (
{
name = A;
},
{
name = gravecomb.case;
transform = "{1, 0, 0, 1, 194, 198}";
}
);
layerId = "E1BF09ED-4302-4AD3-9939-8FDA35DE0FE8";
width = 612;
},
{
components = (
{
name = A;
},
{
name = gravecomb.case;
transform = "{1, 0, 0, 1, 199, 198}";
}
);
layerId = "7B53E429-1BF0-49C5-9F57-63EEBF39C6CC";
width = 713;
}
);
leftKerningGroup = A;
rightKerningGroup = A;
unicode = 00C0;
},
{
color = 1;
glyphname = Aring;
layers = (
{
background = {
paths = (
{
closed = 1;
nodes = (
"219 727 OFFCURVE",
"244 682 OFFCURVE",
"320 682 CURVE SMOOTH",
"393 682 OFFCURVE",
"434 735 OFFCURVE",
"434 775 CURVE SMOOTH",
"434 818 OFFCURVE",
"404 858 OFFCURVE",
"333 858 CURVE SMOOTH",
"265 858 OFFCURVE",
"219 818 OFFCURVE",
"219 770 CURVE SMOOTH"
);
},
{
closed = 1;
nodes = (
"272 801 OFFCURVE",
"284 837 OFFCURVE",
"323 837 CURVE SMOOTH",
"359 837 OFFCURVE",
"381 809 OFFCURVE",
"381 765 CURVE SMOOTH",
"381 732 OFFCURVE",
"362 705 OFFCURVE",
"327 705 CURVE SMOOTH",
"296 705 OFFCURVE",
"272 730 OFFCURVE",
"272 765 CURVE SMOOTH"
);
},
{
closed = 1;
nodes = (
"346 651 OFFCURVE",
"333 655 OFFCURVE",
"321 655 CURVE SMOOTH",
"302 655 OFFCURVE",
"289 639 OFFCURVE",
"281 618 CURVE SMOOTH",
"73 62 LINE",
"11 39 LINE SMOOTH",
"-1 34 OFFCURVE",
"-5 15 OFFCURVE",
"-5 0 CURVE",
"205 0 LINE",
"220 11 OFFCURVE",
"224 19 OFFCURVE",
"224 46 CURVE",
"135 67 LINE",
"191 215 LINE",
"431 215 LINE",
"489 66 LINE",
"428 39 LINE",
"416 35 OFFCURVE",
"412 16 OFFCURVE",
"412 0 CURVE",
"649 0 LINE",
"664 11 OFFCURVE",
"668 19 OFFCURVE",
"668 46 CURVE",
"582 67 LINE",
"353 648 LINE"
);
},
{
closed = 1;
nodes = (
"410 267 LINE",
"210 267 LINE",
"308 529 LINE"
);
}
);
};
components = (
{
name = A;
},
{
name = ringcomb.case;
transform = "{1, 0, 0, 1, 221, 198}";
}
);
layerId = "A9E90CC4-8E6C-407E-8E88-16513AA8D05B";
width = 677;
},
{
components = (
{
name = A;
},
{
name = ringcomb.case;
transform = "{1, 0, 0, 1, 199, 198}";
}
);
layerId = "E1BF09ED-4302-4AD3-9939-8FDA35DE0FE8";
width = 612;
},
{
components = (
{
name = A;
},
{
name = ringcomb.case;
transform = "{1, 0, 0, 1, 193, 198}";
}
);
layerId = "7B53E429-1BF0-49C5-9F57-63EEBF39C6CC";
width = 713;
}
);
leftKerningGroup = A;
rightKerningGroup = A;
unicode = 00C5;
},
{
color = 1;
glyphname = Atilde;
layers = (
{
background = {
paths = (
{
closed = 1;
nodes = (
"448 722 OFFCURVE",
"502 777 OFFCURVE",
"502 808 CURVE SMOOTH",
"502 817 OFFCURVE",
"499 825 OFFCURVE",
"492 833 CURVE",
"471 797 OFFCURVE",
"446 783 OFFCURVE",
"422 783 CURVE SMOOTH",
"375 783 OFFCURVE",
"324 824 OFFCURVE",
"275 824 CURVE SMOOTH",
"208 824 OFFCURVE",
"161 770 OFFCURVE",
"161 737 CURVE SMOOTH",
"161 730 OFFCURVE",
"164 722 OFFCURVE",
"171 714 CURVE",
"192 750 OFFCURVE",
"215 762 OFFCURVE",
"239 762 CURVE SMOOTH",
"285 762 OFFCURVE",
"334 722 OFFCURVE",
"382 722 CURVE SMOOTH"
);
},
{
closed = 1;
nodes = (
"346 651 OFFCURVE",
"333 655 OFFCURVE",
"321 655 CURVE SMOOTH",
"302 655 OFFCURVE",
"289 639 OFFCURVE",
"281 618 CURVE SMOOTH",
"73 62 LINE",
"11 39 LINE SMOOTH",
"-1 34 OFFCURVE",
"-5 15 OFFCURVE",
"-5 0 CURVE",
"205 0 LINE",
"220 11 OFFCURVE",
"224 19 OFFCURVE",
"224 46 CURVE",
"135 67 LINE",
"191 215 LINE",
"431 215 LINE",
"489 66 LINE",
"428 39 LINE",
"416 35 OFFCURVE",
"412 16 OFFCURVE",
"412 0 CURVE",
"649 0 LINE",
"664 11 OFFCURVE",
"668 19 OFFCURVE",
"668 46 CURVE",
"582 67 LINE",
"353 648 LINE"
);
},
{
closed = 1;
nodes = (
"410 267 LINE",
"210 267 LINE",
"308 529 LINE"
);
}
);
};
components = (
{
name = A;
},
{
name = tildecomb.case;
transform = "{1, 0, 0, 1, 171, 198}";
}
);
layerId = "A9E90CC4-8E6C-407E-8E88-16513AA8D05B";
width = 677;
},
{
components = (
{
name = A;
},
{
name = tildecomb.case;
transform = "{1, 0, 0, 1, 154, 198}";
}
);
layerId = "E1BF09ED-4302-4AD3-9939-8FDA35DE0FE8";
width = 612;
},
{
components = (
{
name = A;
},
{
name = tildecomb.case;
transform = "{1, 0, 0, 1, 147, 198}";
}
);
layerId = "7B53E429-1BF0-49C5-9F57-63EEBF39C6CC";
width = 713;
}
);
leftKerningGroup = A;
rightKerningGroup = A;
unicode = 00C3;
},
{
color = 4;
glyphname = AE;
layers = (
{
anchors = (
{
name = bottom;
position = "{566, 0}";
},
{
name = top;
position = "{566, 641}";
}
);
background = {
anchors = (
{
name = bottom;
position = "{436, 0}";
},
{
name = top;
position = "{436, 641}";
}
);
paths = (
{
closed = 1;
nodes = (
"188 0 LINE",
"204 12 OFFCURVE",
"208 19 OFFCURVE",
"208 46 CURVE",
"108 69 LINE",
"112 58 LINE",
"294 298 LINE",
"258 281 LINE",
"455 281 LINE",
"439 295 LINE",
"439 39 LINE",
"459 69 LINE",
"376 39 LINE SMOOTH",
"364 35 OFFCURVE",
"360 16 OFFCURVE",
"360 0 CURVE",
"831 0 LINE",
"831 149 LINE",
"820 164 OFFCURVE",
"812 168 OFFCURVE",
"785 168 CURVE",
"751 36 LINE",
"764 45 LINE",
"515 68 LINE",
"525 57 LINE",
"525 291 LINE",
"515 281 LINE",
"705 281 LINE",
"692 291 LINE",
"715 221 LINE",
"738 221 OFFCURVE",
"743 224 OFFCURVE",
"754 237 CURVE",
"754 377 LINE",
"743 390 OFFCURVE",
"738 393 OFFCURVE",
"715 393 CURVE",
"692 323 LINE",
"705 333 LINE",
"515 333 LINE",
"525 323 LINE",
"525 591 LINE",
"514 578 LINE",
"738 596 LINE",
"724 605 LINE",
"761 504 LINE SMOOTH",
"765 492 OFFCURVE",
"784 488 OFFCURVE",
"800 488 CURVE",
"800 641 LINE",
"373 641 LINE",
"357 630 OFFCURVE",
"354 618 OFFCURVE",
"354 595 CURVE",
"453 568 LINE",
"445 591 LINE",
"38 57 LINE",
"53 67 LINE",
"-20 40 LINE SMOOTH",
"-33 35 OFFCURVE",
"-36 17 OFFCURVE",
"-36 0 CURVE"
);
},
{
closed = 1;
nodes = (
"452 505 LINE",
"438 509 LINE",
"438 318 LINE",
"453 333 LINE",
"301 333 LINE",
"309 316 LINE"
);
}
);
};
layerId = "A9E90CC4-8E6C-407E-8E88-16513AA8D05B";
paths = (
{
closed = 1;
nodes = (
"188 0 LINE",
"204 12 OFFCURVE",
"208 19 OFFCURVE",
"208 46 CURVE",
"108 69 LINE",
"112 58 LINE",
"294 298 LINE",
"258 281 LINE",
"455 281 LINE",
"439 295 LINE",
"439 39 LINE",
"459 69 LINE",
"376 39 LINE SMOOTH",
"364 35 OFFCURVE",
"360 16 OFFCURVE",
"360 0 CURVE",
"831 0 LINE",
"831 149 LINE",
"820 164 OFFCURVE",
"812 168 OFFCURVE",
"785 168 CURVE",
"751 36 LINE",
"764 45 LINE",
"515 68 LINE",
"525 57 LINE",
"525 291 LINE",
"515 281 LINE",
"705 281 LINE",
"692 291 LINE",
"715 221 LINE",
"738 221 OFFCURVE",
"743 224 OFFCURVE",
"754 237 CURVE",
"754 377 LINE",
"743 390 OFFCURVE",
"738 393 OFFCURVE",
"715 393 CURVE",
"692 323 LINE",
"705 333 LINE",
"515 333 LINE",
"525 323 LINE",
"525 591 LINE",
"514 578 LINE",
"738 596 LINE",
"724 605 LINE",
"761 504 LINE SMOOTH",
"765 492 OFFCURVE",
"784 488 OFFCURVE",
"800 488 CURVE",
"800 641 LINE",
"373 641 LINE",
"357 630 OFFCURVE",
"354 618 OFFCURVE",
"354 595 CURVE",
"453 568 LINE",
"445 591 LINE",
"38 57 LINE",
"53 67 LINE",
"-20 40 LINE SMOOTH",
"-33 35 OFFCURVE",
"-36 17 OFFCURVE",
"-36 0 CURVE"
);
},
{
closed = 1;
nodes = (
"452 505 LINE",
"438 509 LINE",
"438 318 LINE",
"453 333 LINE",
"301 333 LINE",
"309 316 LINE"
);
}
);
width = 871;
},
{
anchors = (
{
name = bottom;
position = "{586, 0}";
},
{
name = top;
position = "{586, 641}";
}
);
layerId = "E1BF09ED-4302-4AD3-9939-8FDA35DE0FE8";
paths = (
{
closed = 1;
nodes = (
"152 0 LINE",
"166 0 OFFCURVE",
"169 4 OFFCURVE",
"169 18 CURVE",
"78 32 LINE",
"75 18 LINE",
"284 302 LINE",
"272 296 LINE",
"497 296 LINE",
"492 302 LINE",
"492 23 LINE",
"505 34 LINE",
"441 20 LINE SMOOTH",
"430 18 OFFCURVE",
"425 12 OFFCURVE",
"425 0 CURVE",
"851 0 LINE",
"851 108 LINE",
"851 115 OFFCURVE",
"848 121 OFFCURVE",
"833 121 CURVE",
"808 2 LINE",
"821 11 LINE",
"515 34 LINE",
"525 23 LINE",
"525 305 LINE",
"515 298 LINE",
"719 298 LINE",
"707 305 LINE",
"723 245 LINE",
"736 245 OFFCURVE",
"739 246 OFFCURVE",
"743 261 CURVE",
"743 353 LINE",
"739 368 OFFCURVE",
"737 369 OFFCURVE",
"723 369 CURVE",
"708 311 LINE",
"719 316 LINE",
"515 316 LINE",
"525 310 LINE",
"525 625 LINE",
"514 612 LINE",
"790 630 LINE",
"776 639 LINE",
"800 558 LINE SMOOTH",
"804 546 OFFCURVE",
"811 542 OFFCURVE",
"820 542 CURVE",
"820 641 LINE",
"429 641 LINE",
"415 641 OFFCURVE",
"412 637 OFFCURVE",
"412 623 CURVE",
"510 608 LINE",
"501 630 LINE",
"49 17 LINE",
"66 33 LINE",
"20 20 LINE SMOOTH",
"9 17 OFFCURVE",
"4 12 OFFCURVE",
"4 0 CURVE"
);
},
{
closed = 1;
nodes = (
"494 588 LINE",
"492 609 LINE",
"492 308 LINE",
"497 313 LINE",
"279 313 LINE",
"285 305 LINE"
);
}
);
width = 919;
},
{
anchors = (
{
name = bottom;
position = "{566, 0}";
},
{
name = top;
position = "{566, 641}";
}
);
layerId = "7B53E429-1BF0-49C5-9F57-63EEBF39C6CC";
paths = (
{
closed = 1;
nodes = (
"244 0 LINE",
"262 29 OFFCURVE",
"267 50 OFFCURVE",
"267 76 CURVE",
"139 109 LINE",
"172 58 LINE",
"289 238 LINE",
"244 206 LINE",
"454 206 LINE",
"438 235 LINE",
"438 70 LINE",
"459 96 LINE",
"385 69 LINE SMOOTH",
"375 65 OFFCURVE",
"369 39 OFFCURVE",
"369 0 CURVE",
"911 0 LINE",
"911 183 LINE",
"884 200 OFFCURVE",
"861 205 OFFCURVE",
"835 205 CURVE",
"801 72 LINE",
"813 94 LINE",
"614 111 LINE",
"624 100 LINE",
"624 276 LINE",
"614 266 LINE",
"724 266 LINE",
"710 275 LINE",
"733 202 LINE",
"759 202 OFFCURVE",
"792 207 OFFCURVE",
"819 224 CURVE",
"819 404 LINE",
"792 421 OFFCURVE",
"759 426 OFFCURVE",
"733 426 CURVE",
"711 356 LINE",
"724 366 LINE",
"614 366 LINE",
"624 356 LINE",
"624 544 LINE",
"613 531 LINE",
"796 549 LINE",
"782 558 LINE",
"811 478 LINE SMOOTH",
"815 466 OFFCURVE",
"831 458 OFFCURVE",
"881 458 CURVE",
"881 641 LINE",
"331 641 LINE",
"314 614 OFFCURVE",
"309 591 OFFCURVE",
"309 565 CURVE",
"460 541 LINE",
"395 591 LINE",
"28 32 LINE",
"83 103 LINE",
"-1 69 LINE SMOOTH",
"-11 65 OFFCURVE",
"-17 39 OFFCURVE",
"-17 0 CURVE"
);
},
{
closed = 1;
nodes = (
"456 509 LINE",
"438 509 LINE",
"438 278 LINE",
"453 306 LINE",
"301 306 LINE",
"304 278 LINE"
);
}
);
width = 963;
}
);
rightKerningGroup = E;
rightMetricsKey = E;
unicode = 00C6;
},
{
color = 4;
glyphname = B;
layers = (
{
anchors = (
{
name = bottom;
position = "{292, 0}";
},
{
name = top;
position = "{292, 641}";
}
);
background = {
paths = (
{
closed = 1;
nodes = (
"442 0 OFFCURVE",
"534 97 OFFCURVE",
"534 186 CURVE SMOOTH",
"534 274 OFFCURVE",
"486 335 OFFCURVE",
"401 360 CURVE",
"448 378 OFFCURVE",
"507 426 OFFCURVE",
"507 493 CURVE SMOOTH",
"507 600 OFFCURVE",
"428 641 OFFCURVE",
"313 641 CURVE SMOOTH",
"64 641 LINE",
"48 630 OFFCURVE",
"45 618 OFFCURVE",
"45 595 CURVE",
"124 574 LINE",
"124 62 LINE",
"61 39 LINE SMOOTH",
"49 35 OFFCURVE",
"45 16 OFFCURVE",
"45 0 CURVE",
"306 0 LINE SMOOTH"
);
},
{
closed = 1;
nodes = (
"232 586 OFFCURVE",
"260 596 OFFCURVE",
"299 596 CURVE SMOOTH",
"347 596 OFFCURVE",
"416 578 OFFCURVE",
"416 489 CURVE SMOOTH",
"416 377 OFFCURVE",
"341 370 OFFCURVE",
"279 370 CURVE SMOOTH",
"249 370 OFFCURVE",
"215 369 OFFCURVE",
"210 371 CURVE",
"210 579 LINE"
);
},
{
closed = 1;
nodes = (
"253 325 LINE SMOOTH",
"399 325 OFFCURVE",
"438 269 OFFCURVE",
"438 183 CURVE SMOOTH",
"438 63 OFFCURVE",
"373 46 OFFCURVE",
"310 46 CURVE SMOOTH",
"278 46 OFFCURVE",
"241 55 OFFCURVE",
"210 67 CURVE",
"210 325 LINE"
);
}
);
};
layerId = "A9E90CC4-8E6C-407E-8E88-16513AA8D05B";
paths = (
{
closed = 1;
nodes = (
"306 0 LINE SMOOTH",
"434 0 OFFCURVE",
"534 86 OFFCURVE",
"534 195 CURVE SMOOTH",
"534 283 OFFCURVE",
"467 353 OFFCURVE",
"367 368 CURVE",
"379 354 LINE",
"455 371 OFFCURVE",
"507 432 OFFCURVE",
"507 505 CURVE SMOOTH",
"507 590 OFFCURVE",
"435 641 OFFCURVE",
"313 641 CURVE SMOOTH",
"64 641 LINE",
"49 631 OFFCURVE",
"45 621 OFFCURVE",
"45 595 CURVE",
"134 571 LINE",
"124 584 LINE",
"124 52 LINE",
"134 65 LINE",
"61 39 LINE SMOOTH",
"51 35 OFFCURVE",
"45 20 OFFCURVE",
"45 0 CURVE"
);
},
{
closed = 1;
nodes = (
"281 46 OFFCURVE",
"244 54 OFFCURVE",
"200 71 CURVE",
"210 57 LINE",
"210 335 LINE",
"200 325 LINE",
"253 325 LINE SMOOTH",
"379 325 OFFCURVE",
"440 277 OFFCURVE",
"440 177 CURVE SMOOTH",
"440 92 OFFCURVE",
"396 46 OFFCURVE",
"315 46 CURVE SMOOTH"
);
},
{
closed = 1;
nodes = (
"210 589 LINE",
"200 576 LINE",
"247 591 OFFCURVE",
"274 596 OFFCURVE",
"301 596 CURVE SMOOTH",
"377 596 OFFCURVE",
"417 554 OFFCURVE",
"417 474 CURVE SMOOTH",
"417 405 OFFCURVE",
"370 370 OFFCURVE",
"277 370 CURVE SMOOTH",
"248 370 OFFCURVE",
"217 372 OFFCURVE",
"200 375 CURVE",
"210 361 LINE"
);
}
);
width = 584;
},
{
anchors = (
{
name = bottom;
position = "{300, 0}";
},
{
name = top;
position = "{300, 641}";
}
);
layerId = "E1BF09ED-4302-4AD3-9939-8FDA35DE0FE8";
paths = (
{
closed = 1;
nodes = (
"317 0 LINE SMOOTH",
"443 0 OFFCURVE",
"528 75 OFFCURVE",
"528 186 CURVE SMOOTH",
"528 275 OFFCURVE",
"448 350 OFFCURVE",
"353 350 CURVE",
"341 346 LINE",
"429 346 OFFCURVE",
"501 417 OFFCURVE",
"501 503 CURVE SMOOTH",
"501 587 OFFCURVE",
"431 641 OFFCURVE",
"320 641 CURVE SMOOTH",
"97 641 LINE SMOOTH",
"84 641 OFFCURVE",
"81 637 OFFCURVE",
"81 623 CURVE",
"162 607 LINE",
"148 618 LINE",
"148 23 LINE",
"161 34 LINE",
"97 20 LINE SMOOTH",
"85 17 OFFCURVE",
"81 12 OFFCURVE",
"81 0 CURVE"
);
},
{
closed = 1;
nodes = (
"265 18 OFFCURVE",
"205 27 OFFCURVE",
"171 38 CURVE",
"181 28 LINE",
"181 347 LINE",
"171 339 LINE",
"315 339 LINE SMOOTH",
"426 339 OFFCURVE",
"487 282 OFFCURVE",
"487 177 CURVE SMOOTH",
"487 73 OFFCURVE",
"425 18 OFFCURVE",
"310 18 CURVE SMOOTH"
);
},
{
closed = 1;
nodes = (
"181 614 LINE",
"171 605 LINE",
"214 617 OFFCURVE",
"259 623 OFFCURVE",
"297 623 CURVE SMOOTH",
"404 623 OFFCURVE",
"465 573 OFFCURVE",
"465 487 CURVE SMOOTH",
"465 406 OFFCURVE",
"404 357 OFFCURVE",
"303 357 CURVE SMOOTH",
"251 357 OFFCURVE",
"173 358 OFFCURVE",
"171 359 CURVE",
"181 349 LINE"
);
}
);
width = 599;
},
{
anchors = (
{
name = bottom;
position = "{321, 0}";
},
{
name = top;
position = "{321, 641}";
}
);
layerId = "7B53E429-1BF0-49C5-9F57-63EEBF39C6CC";
paths = (
{
closed = 1;
nodes = (
"383 0 LINE SMOOTH",
"521 0 OFFCURVE",
"607 74 OFFCURVE",
"607 193 CURVE SMOOTH",
"607 282 OFFCURVE",
"535 351 OFFCURVE",
"423 367 CURVE",
"435 354 LINE",
"524 373 OFFCURVE",
"580 431 OFFCURVE",
"580 503 CURVE SMOOTH",
"580 590 OFFCURVE",
"504 641 OFFCURVE",
"375 641 CURVE SMOOTH",
"59 641 LINE",
"44 617 OFFCURVE",
"38 594 OFFCURVE",
"38 565 CURVE",
"129 541 LINE",
"107 566 LINE",
"107 70 LINE",
"128 96 LINE",
"54 69 LINE SMOOTH",
"44 65 OFFCURVE",
"38 39 OFFCURVE",
"38 0 CURVE"
);
},
{
closed = 1;
nodes = (
"328 95 OFFCURVE",
"303 102 OFFCURVE",
"283 114 CURVE",
"293 100 LINE",
"293 310 LINE",
"283 300 LINE",
"312 300 LINE SMOOTH",
"385 300 OFFCURVE",
"421 264 OFFCURVE",
"421 189 CURVE SMOOTH",
"421 128 OFFCURVE",
"396 95 OFFCURVE",
"351 95 CURVE SMOOTH"
);
},
{
closed = 1;
nodes = (
"293 545 LINE",
"283 533 LINE",
"297 542 OFFCURVE",
"313 546 OFFCURVE",
"332 546 CURVE SMOOTH",
"377 546 OFFCURVE",
"397 524 OFFCURVE",
"397 474 CURVE SMOOTH",
"397 421 OFFCURVE",
"374 396 OFFCURVE",
"326 396 CURVE SMOOTH",
"307 396 OFFCURVE",
"293 401 OFFCURVE",
"273 413 CURVE",
"293 387 LINE"
);
}
);
width = 653;
}
);
leftKerningGroup = H;
leftMetricsKey = H;
rightKerningGroup = B;
unicode = 0042;
},
{
color = 4;
glyphname = C;
layers = (
{
anchors = (
{
name = bottom;
position = "{363, 0}";
},
{
name = top;
position = "{358, 641}";
}
);
background = {
paths = (
{
closed = 1;
nodes = (
"524 474 LINE SMOOTH",
"526 461 OFFCURVE",
"556 454 OFFCURVE",
"571 453 CURVE",
"589 605 LINE",
"533 640 OFFCURVE",
"474 655 OFFCURVE",
"387 655 CURVE SMOOTH",
"175 655 OFFCURVE",
"48 465 OFFCURVE",
"48 289 CURVE SMOOTH",
"48 136 OFFCURVE",
"142 -12 OFFCURVE",
"371 -12 CURVE SMOOTH",
"459 -12 OFFCURVE",
"528 18 OFFCURVE",
"589 73 CURVE",
"578 196 LINE",
"567 207 OFFCURVE",
"544 209 OFFCURVE",
"522 209 CURVE",
"509 96 LINE",
"480 63 OFFCURVE",
"436 37 OFFCURVE",
"371 37 CURVE SMOOTH",
"229 37 OFFCURVE",
"150 175 OFFCURVE",
"150 332 CURVE SMOOTH",
"152 483 OFFCURVE",
"217 606 OFFCURVE",
"380 606 CURVE SMOOTH",
"429 606 OFFCURVE",
"479 586 OFFCURVE",
"511 558 CURVE",
"511 557 LINE"
);
}
);
};
layerId = "A9E90CC4-8E6C-407E-8E88-16513AA8D05B";
paths = (
{
closed = 1;
nodes = (
"455 -12 OFFCURVE",
"524 14 OFFCURVE",
"589 73 CURVE",
"578 196 LINE",
"569 205 OFFCURVE",
"551 209 OFFCURVE",
"522 209 CURVE",
"507 75 LINE",
"519 107 LINE",
"481 60 OFFCURVE",
"433 37 OFFCURVE",
"371 37 CURVE SMOOTH",
"237 37 OFFCURVE",
"144 159 OFFCURVE",
"144 333 CURVE SMOOTH",
"144 501 OFFCURVE",
"232 606 OFFCURVE",
"372 606 CURVE SMOOTH",
"430 606 OFFCURVE",
"478 588 OFFCURVE",
"521 550 CURVE",
"508 575 LINE",
"524 474 LINE SMOOTH",
"525 465 OFFCURVE",
"548 455 OFFCURVE",
"571 453 CURVE",
"589 605 LINE",
"539 637 OFFCURVE",
"472 655 OFFCURVE",
"401 655 CURVE SMOOTH",
"200 655 OFFCURVE",
"48 497 OFFCURVE",
"48 289 CURVE SMOOTH",
"48 106 OFFCURVE",
"173 -12 OFFCURVE",
"365 -12 CURVE SMOOTH"
);
}
);
width = 636;
},
{
anchors = (
{
name = bottom;
position = "{357, 0}";
},
{
name = top;
position = "{357, 641}";
}
);
layerId = "E1BF09ED-4302-4AD3-9939-8FDA35DE0FE8";
paths = (
{
closed = 1;
nodes = (
"426 -12 OFFCURVE",
"508 16 OFFCURVE",
"566 62 CURVE",
"562 173 LINE",
"561 184 OFFCURVE",
"551 189 OFFCURVE",
"533 189 CURVE",
"524 65 LINE",
"536 93 LINE",
"508 46 OFFCURVE",
"437 14 OFFCURVE",
"363 14 CURVE SMOOTH",
"214 14 OFFCURVE",
"110 142 OFFCURVE",
"110 325 CURVE SMOOTH",
"110 507 OFFCURVE",
"213 626 OFFCURVE",
"370 626 CURVE SMOOTH",
"434 626 OFFCURVE",
"500 609 OFFCURVE",
"530 584 CURVE",
"522 599 LINE",
"528 503 LINE SMOOTH",
"529 494 OFFCURVE",
"538 487 OFFCURVE",
"549 487 CURVE",
"567 607 LINE",
"514 639 OFFCURVE",
"454 655 OFFCURVE",
"392 655 CURVE SMOOTH",
"210 655 OFFCURVE",
"71 500 OFFCURVE",
"71 298 CURVE SMOOTH",
"71 118 OFFCURVE",
"187 -12 OFFCURVE",
"349 -12 CURVE SMOOTH"
);
}
);
width = 636;
},
{
anchors = (
{
name = bottom;
position = "{378, 0}";
},
{
name = top;
position = "{378, 641}";
}
);
layerId = "7B53E429-1BF0-49C5-9F57-63EEBF39C6CC";
paths = (
{
closed = 1;
nodes = (
"469 -12 OFFCURVE",
"570 22 OFFCURVE",
"616 74 CURVE",
"605 244 LINE",
"595 256 OFFCURVE",
"579 259 OFFCURVE",
"526 259 CURVE",
"507 94 LINE",
"540 157 LINE",
"507 113 OFFCURVE",
"450 87 OFFCURVE",
"389 87 CURVE SMOOTH",
"285 87 OFFCURVE",
"221 180 OFFCURVE",
"221 332 CURVE SMOOTH",
"221 476 OFFCURVE",
"281 556 OFFCURVE",
"388 556 CURVE SMOOTH",
"447 556 OFFCURVE",
"503 536 OFFCURVE",
"542 500 CURVE",
"509 545 LINE",
"523 444 LINE SMOOTH",
"525 431 OFFCURVE",
"552 423 OFFCURVE",
"596 423 CURVE",
"616 605 LINE",
"567 637 OFFCURVE",
"493 655 OFFCURVE",
"413 655 CURVE SMOOTH",
"189 655 OFFCURVE",
"25 502 OFFCURVE",
"25 293 CURVE SMOOTH",
"25 108 OFFCURVE",
"158 -12 OFFCURVE",
"363 -12 CURVE SMOOTH"
);
}
);
width = 678;
}
);
leftKerningGroup = O;
leftMetricsKey = O;
rightKerningGroup = C;
unicode = 0043;
},
{
color = 1;
glyphname = Ccedilla;
layers = (
{
background = {
paths = (
{
closed = 1;
nodes = (
"567 207 OFFCURVE",
"544 209 OFFCURVE",
"522 209 CURVE",
"509 96 LINE",
"480 63 OFFCURVE",
"436 37 OFFCURVE",
"371 37 CURVE SMOOTH",
"229 37 OFFCURVE",
"150 175 OFFCURVE",
"150 332 CURVE SMOOTH",
"152 483 OFFCURVE",
"217 606 OFFCURVE",
"380 606 CURVE SMOOTH",
"429 606 OFFCURVE",
"479 586 OFFCURVE",
"511 558 CURVE",
"524 474 LINE SMOOTH",
"526 461 OFFCURVE",
"556 454 OFFCURVE",
"571 453 CURVE",
"589 605 LINE",
"533 640 OFFCURVE",
"474 655 OFFCURVE",
"387 655 CURVE SMOOTH",
"175 655 OFFCURVE",
"48 465 OFFCURVE",
"48 289 CURVE SMOOTH",
"48 143 OFFCURVE",
"134 3 OFFCURVE",
"337 -11 CURVE",
"316 -97 LINE",
"327 -96 OFFCURVE",
"335 -95 OFFCURVE",
"343 -95 CURVE SMOOTH",
"402 -95 OFFCURVE",
"439 -120 OFFCURVE",
"439 -167 CURVE SMOOTH",
"439 -214 OFFCURVE",
"410 -238 OFFCURVE",
"365 -238 CURVE SMOOTH",
"329 -238 OFFCURVE",
"305 -215 OFFCURVE",
"305 -164 CURVE",
"301 -160 OFFCURVE",
"290 -150 OFFCURVE",
"274 -150 CURVE SMOOTH",
"254 -150 OFFCURVE",
"241 -162 OFFCURVE",
"241 -185 CURVE SMOOTH",
"241 -230 OFFCURVE",
"284 -270 OFFCURVE",
"363 -270 CURVE SMOOTH",
"456 -270 OFFCURVE",
"504 -212 OFFCURVE",
"504 -160 CURVE SMOOTH",
"504 -76 OFFCURVE",
"433 -53 OFFCURVE",
"371 -53 CURVE",
"380 -12 LINE",
"464 -9 OFFCURVE",
"529 21 OFFCURVE",
"589 73 CURVE",
"578 196 LINE"
);
}
);
};
components = (
{
name = C;
},
{
name = cedillacomb.case;
transform = "{1, 0, 0, 1, 211, 0}";
}
);
layerId = "A9E90CC4-8E6C-407E-8E88-16513AA8D05B";
width = 636;
},
{
components = (
{
name = C;
},
{
name = cedillacomb.case;
transform = "{1, 0, 0, 1, 206, 0}";
}
);
layerId = "E1BF09ED-4302-4AD3-9939-8FDA35DE0FE8";
width = 636;
},
{
components = (
{
name = C;
},
{
name = cedillacomb.case;
transform = "{1, 0, 0, 1, 227, 0}";
}
);
layerId = "7B53E429-1BF0-49C5-9F57-63EEBF39C6CC";
width = 678;
}
);
leftKerningGroup = O;
rightKerningGroup = C;
unicode = 00C7;
},
{
color = 4;
glyphname = D;
layers = (
{
anchors = (
{
name = bottom;
position = "{345, 0}";
},
{
name = center;
position = "{210, 328}";
},
{
name = top;
position = "{355, 641}";
}
);
background = {
paths = (
{
closed = 1;
nodes = (
"540 0 OFFCURVE",
"661 175 OFFCURVE",
"661 345 CURVE SMOOTH",
"661 499 OFFCURVE",
"563 641 OFFCURVE",
"348 641 CURVE SMOOTH",
"64 641 LINE",
"48 630 OFFCURVE",
"45 618 OFFCURVE",
"45 595 CURVE",
"124 574 LINE",
"124 62 LINE",
"61 39 LINE SMOOTH",
"49 35 OFFCURVE",
"45 16 OFFCURVE",
"45 0 CURVE",
"331 0 LINE SMOOTH"
);
},
{
closed = 1;
nodes = (
"245 586 OFFCURVE",
"289 595 OFFCURVE",
"340 595 CURVE SMOOTH",
"484 595 OFFCURVE",
"559 464 OFFCURVE",
"559 311 CURVE",
"557 164 OFFCURVE",
"493 46 OFFCURVE",
"339 46 CURVE SMOOTH",
"290 46 OFFCURVE",
"248 54 OFFCURVE",
"210 67 CURVE",
"210 579 LINE"
);
}
);
};
layerId = "A9E90CC4-8E6C-407E-8E88-16513AA8D05B";
paths = (
{
closed = 1;
nodes = (
"331 0 LINE SMOOTH",
"517 0 OFFCURVE",
"661 151 OFFCURVE",
"661 345 CURVE SMOOTH",
"661 524 OFFCURVE",
"537 641 OFFCURVE",
"348 641 CURVE SMOOTH",
"64 641 LINE",
"49 631 OFFCURVE",
"45 620 OFFCURVE",
"45 595 CURVE",
"134 571 LINE",
"124 584 LINE",
"124 52 LINE",
"134 66 LINE",
"61 39 LINE SMOOTH",
"52 36 OFFCURVE",
"45 20 OFFCURVE",
"45 0 CURVE"
);
},
{
closed = 1;
nodes = (
"291 46 OFFCURVE",
"238 56 OFFCURVE",
"200 71 CURVE",
"210 57 LINE",
"210 589 LINE",
"200 577 LINE",
"238 588 OFFCURVE",
"291 595 OFFCURVE",
"335 595 CURVE SMOOTH",
"475 595 OFFCURVE",
"565 483 OFFCURVE",
"565 310 CURVE SMOOTH",
"565 145 OFFCURVE",
"480 46 OFFCURVE",
"339 46 CURVE SMOOTH"
);
}
);
width = 709;
},
{
anchors = (
{
name = bottom;
position = "{336, 0}";
},
{
name = center;
position = "{181, 321}";
},
{
name = top;
position = "{356, 641}";
}
);
layerId = "E1BF09ED-4302-4AD3-9939-8FDA35DE0FE8";
paths = (
{
closed = 1;
nodes = (
"329 0 LINE SMOOTH",
"526 0 OFFCURVE",
"640 183 OFFCURVE",
"640 345 CURVE SMOOTH",
"640 499 OFFCURVE",
"542 641 OFFCURVE",
"352 641 CURVE SMOOTH",
"97 641 LINE SMOOTH",
"84 641 OFFCURVE",
"81 637 OFFCURVE",
"81 623 CURVE",
"159 607 LINE",
"148 619 LINE",
"148 23 LINE",
"161 34 LINE",
"97 20 LINE SMOOTH",
"86 18 OFFCURVE",
"81 12 OFFCURVE",
"81 0 CURVE"
);
},
{
closed = 1;
nodes = (
"276 20 OFFCURVE",
"214 25 OFFCURVE",
"171 36 CURVE",
"181 22 LINE",
"181 619 LINE",
"171 607 LINE",
"208 615 OFFCURVE",
"259 623 OFFCURVE",
"328 623 CURVE SMOOTH",
"505 623 OFFCURVE",
"601 479 OFFCURVE",
"601 314 CURVE SMOOTH",
"601 167 OFFCURVE",
"505 20 OFFCURVE",
"334 20 CURVE SMOOTH"
);
}
);
width = 711;
},
{
anchors = (
{
name = bottom;
position = "{370, 0}";
},
{
name = center;
position = "{218, 321}";
},
{
name = top;
position = "{380, 641}";
}
);
layerId = "7B53E429-1BF0-49C5-9F57-63EEBF39C6CC";
paths = (
{
closed = 1;
nodes = (
"393 0 LINE SMOOTH",
"589 0 OFFCURVE",
"704 175 OFFCURVE",
"704 345 CURVE SMOOTH",
"704 499 OFFCURVE",
"611 641 OFFCURVE",
"408 641 CURVE SMOOTH",
"56 641 LINE",
"42 614 OFFCURVE",
"38 591 OFFCURVE",
"38 565 CURVE",
"129 541 LINE",
"107 566 LINE",
"107 70 LINE",
"128 96 LINE",
"54 69 LINE SMOOTH",
"44 65 OFFCURVE",
"38 39 OFFCURVE",
"38 0 CURVE"
);
},
{
closed = 1;
nodes = (
"338 96 OFFCURVE",
"307 101 OFFCURVE",
"283 116 CURVE",
"293 102 LINE",
"293 544 LINE",
"271 522 LINE",
"294 536 OFFCURVE",
"334 545 OFFCURVE",
"371 545 CURVE SMOOTH",
"462 545 OFFCURVE",
"508 444 OFFCURVE",
"508 328 CURVE SMOOTH",
"508 198 OFFCURVE",
"467 96 OFFCURVE",
"369 96 CURVE SMOOTH"
);
}
);
width = 729;
}
);
leftKerningGroup = H;
leftMetricsKey = H;
rightKerningGroup = O;
rightMetricsKey = O;
unicode = 0044;
},
{
color = 1;
glyphname = Eth;
layers = (
{
background = {
paths = (
{
closed = 1;
nodes = (
"52 630 OFFCURVE",
"49 618 OFFCURVE",
"49 595 CURVE",
"128 574 LINE",
"128 358 LINE",
"126 358 LINE SMOOTH",
"70 358 OFFCURVE",
"49 332 OFFCURVE",
"49 309 CURVE SMOOTH",
"49 301 OFFCURVE",
"52 293 OFFCURVE",
"58 286 CURVE",
"128 290 LINE",
"128 62 LINE",
"65 39 LINE SMOOTH",
"53 35 OFFCURVE",
"49 16 OFFCURVE",
"49 0 CURVE",
"335 0 LINE SMOOTH",
"544 0 OFFCURVE",
"665 175 OFFCURVE",
"665 345 CURVE SMOOTH",
"665 499 OFFCURVE",
"567 641 OFFCURVE",
"352 641 CURVE SMOOTH",
"68 641 LINE"
);
},
{
closed = 1;
nodes = (
"316 302 LINE",
"333 310 OFFCURVE",
"335 336 OFFCURVE",
"335 347 CURVE",
"214 353 LINE",
"214 579 LINE",
"249 586 OFFCURVE",
"293 595 OFFCURVE",
"344 595 CURVE SMOOTH",
"488 595 OFFCURVE",
"563 464 OFFCURVE",
"563 311 CURVE",
"561 164 OFFCURVE",
"497 46 OFFCURVE",
"343 46 CURVE SMOOTH",
"294 46 OFFCURVE",
"252 54 OFFCURVE",
"214 67 CURVE",
"214 296 LINE"
);
}
);
};
components = (
{
name = D;
},
{
name = strokeshortcomb;
transform = "{1, 0, 0, 1, 48, 6}";
}
);
layerId = "A9E90CC4-8E6C-407E-8E88-16513AA8D05B";
width = 709;
},
{
components = (
{
name = D;
},
{
name = strokeshortcomb;
transform = "{1, 0, 0, 1, 70, -1}";
}
);
layerId = "E1BF09ED-4302-4AD3-9939-8FDA35DE0FE8";
width = 711;
},
{
components = (
{
name = D;
},
{
name = strokeshortcomb;
transform = "{1, 0, 0, 1, 36, -1}";
}
);
layerId = "7B53E429-1BF0-49C5-9F57-63EEBF39C6CC";
width = 729;
}
);
leftKerningGroup = H;
rightKerningGroup = O;
unicode = 00D0;
},
{
color = 4;
glyphname = E;
layers = (
{
anchors = (
{
name = "#entry";
position = "{45, 0}";
},
{
name = bottom;
position = "{294, 0}";
},
{
name = ogonek;
position = "{536, 0}";
},
{
name = top;
position = "{294, 641}";
},
{
name = topleft;
position = "{64, 641}";
}
);
background = {
paths = (
{
closed = 1;
nodes = (
"64 641 LINE",
"48 630 OFFCURVE",
"45 618 OFFCURVE",
"45 595 CURVE",
"124 574 LINE",
"124 62 LINE",
"61 39 LINE SMOOTH",
"49 35 OFFCURVE",
"45 16 OFFCURVE",
"45 0 CURVE",
"536 0 LINE",
"536 149 LINE",
"525 164 OFFCURVE",
"517 168 OFFCURVE",
"490 168 CURVE",
"459 46 LINE",
"210 67 LINE",
"210 299 LINE",
"400 299 LINE",
"420 239 LINE",
"443 239 OFFCURVE",
"448 242 OFFCURVE",
"459 255 CURVE",
"459 395 LINE",
"448 408 OFFCURVE",
"443 411 OFFCURVE",
"420 411 CURVE",
"400 351 LINE",
"210 351 LINE",
"210 579 LINE",
"433 595 LINE",
"466 504 LINE SMOOTH",
"470 492 OFFCURVE",
"489 488 OFFCURVE",
"505 488 CURVE",
"505 641 LINE"
);
}
);
};
layerId = "A9E90CC4-8E6C-407E-8E88-16513AA8D05B";
paths = (
{
closed = 1;
nodes = (
"536 0 LINE",
"536 149 LINE",
"525 164 OFFCURVE",
"517 168 OFFCURVE",
"490 168 CURVE",
"456 36 LINE",
"469 45 LINE",
"200 68 LINE",
"210 57 LINE",
"210 309 LINE",
"200 299 LINE",
"410 299 LINE",
"397 309 LINE",
"420 239 LINE",
"443 239 OFFCURVE",
"448 242 OFFCURVE",
"459 255 CURVE",
"459 395 LINE",
"448 408 OFFCURVE",
"443 411 OFFCURVE",
"420 411 CURVE",
"397 341 LINE",
"410 351 LINE",
"200 351 LINE",
"210 341 LINE",
"210 591 LINE",
"199 578 LINE",
"443 596 LINE",
"429 605 LINE",
"466 504 LINE SMOOTH",
"470 492 OFFCURVE",
"489 488 OFFCURVE",
"505 488 CURVE",
"505 641 LINE",
"64 641 LINE",
"48 630 OFFCURVE",
"45 618 OFFCURVE",
"45 595 CURVE",
"134 571 LINE",
"124 584 LINE",
"124 52 LINE",
"134 66 LINE",
"61 39 LINE SMOOTH",
"49 35 OFFCURVE",
"45 16 OFFCURVE",
"45 0 CURVE"
);
}
);
width = 576;
},
{
anchors = (
{
name = "#entry";
position = "{81, 0}";
},
{
name = bottom;
position = "{311, 0}";
},
{
name = ogonek;
position = "{517, 0}";
},
{
name = top;
position = "{311, 641}";
},
{
name = topleft;
position = "{98, 641}";
}
);
layerId = "E1BF09ED-4302-4AD3-9939-8FDA35DE0FE8";
paths = (
{
closed = 1;
nodes = (
"517 0 LINE",
"517 108 LINE SMOOTH",
"517 115 OFFCURVE",
"514 121 OFFCURVE",
"499 121 CURVE",
"474 7 LINE",
"487 16 LINE",
"171 34 LINE",
"181 23 LINE",
"181 323 LINE",
"171 314 LINE",
"421 314 LINE",
"409 323 LINE",
"420 253 LINE",
"429 253 OFFCURVE",
"436 254 OFFCURVE",
"440 264 CURVE",
"440 386 LINE",
"436 396 OFFCURVE",
"430 397 OFFCURVE",
"420 397 CURVE",
"410 330 LINE",
"421 336 LINE",
"171 336 LINE",
"181 329 LINE",
"181 625 LINE",
"170 612 LINE",
"456 625 LINE",
"442 634 LINE",
"466 558 LINE SMOOTH",
"470 546 OFFCURVE",
"477 542 OFFCURVE",
"486 542 CURVE",
"486 641 LINE",
"98 641 LINE",
"84 641 OFFCURVE",
"81 637 OFFCURVE",
"81 623 CURVE",
"159 607 LINE",
"148 619 LINE",
"148 23 LINE",
"161 34 LINE",
"97 20 LINE SMOOTH",
"86 18 OFFCURVE",
"81 12 OFFCURVE",
"81 0 CURVE"
);
}
);
width = 585;
},
{
anchors = (
{
name = "#entry";
position = "{38, 0}";
},
{
name = bottom;
position = "{315, 0}";
},
{
name = ogonek;
position = "{580, 0}";
},
{
name = top;
position = "{315, 641}";
},
{
name = topleft;
position = "{60, 641}";
}
);
layerId = "7B53E429-1BF0-49C5-9F57-63EEBF39C6CC";
paths = (
{
closed = 1;
nodes = (
"580 0 LINE",
"580 183 LINE",
"553 200 OFFCURVE",
"530 205 OFFCURVE",
"504 205 CURVE",
"470 72 LINE",
"482 94 LINE",
"283 111 LINE",
"293 100 LINE",
"293 291 LINE",
"283 281 LINE",
"403 281 LINE",
"389 290 LINE",
"412 212 LINE",
"435 212 OFFCURVE",
"464 217 OFFCURVE",
"488 234 CURVE",
"488 414 LINE",
"464 431 OFFCURVE",
"435 436 OFFCURVE",
"412 436 CURVE",
"390 361 LINE",
"403 371 LINE",
"283 371 LINE",
"293 361 LINE",
"293 544 LINE",
"282 531 LINE",
"465 549 LINE",
"451 558 LINE",
"480 478 LINE SMOOTH",
"484 466 OFFCURVE",
"500 458 OFFCURVE",
"550 458 CURVE",
"550 641 LINE",
"60 641 LINE",
"43 614 OFFCURVE",
"38 591 OFFCURVE",
"38 565 CURVE",
"129 541 LINE",
"107 566 LINE",
"107 70 LINE",
"128 96 LINE",
"54 69 LINE SMOOTH",
"44 65 OFFCURVE",
"38 39 OFFCURVE",
"38 0 CURVE"
);
}
);
width = 632;
}
);
leftKerningGroup = H;
leftMetricsKey = H;
rightKerningGroup = E;
unicode = 0045;
},
{
color = 1;
glyphname = Eacute;
layers = (
{
background = {
paths = (
{
closed = 1;
nodes = (
"64 641 LINE",
"48 630 OFFCURVE",
"45 618 OFFCURVE",
"45 595 CURVE",
"124 574 LINE",
"124 62 LINE",
"61 39 LINE SMOOTH",
"49 35 OFFCURVE",
"45 16 OFFCURVE",
"45 0 CURVE",
"536 0 LINE",
"536 149 LINE",
"525 164 OFFCURVE",
"517 168 OFFCURVE",
"490 168 CURVE",
"459 46 LINE",
"210 67 LINE",
"210 299 LINE",
"400 299 LINE",
"420 224 LINE",
"443 224 OFFCURVE",
"448 227 OFFCURVE",
"459 240 CURVE",
"459 410 LINE",
"448 423 OFFCURVE",
"443 426 OFFCURVE",
"420 426 CURVE",
"400 351 LINE",
"210 351 LINE",
"210 579 LINE",
"433 595 LINE",
"466 504 LINE SMOOTH",
"470 492 OFFCURVE",
"489 488 OFFCURVE",
"505 488 CURVE",
"505 641 LINE"
);
},
{
closed = 1;
nodes = (
"459 833 OFFCURVE",
"448 858 OFFCURVE",
"425 858 CURVE SMOOTH",
"394 858 OFFCURVE",
"341 825 OFFCURVE",
"205 743 CURVE",
"204 741 OFFCURVE",
"204 738 OFFCURVE",
"204 736 CURVE SMOOTH",
"204 728 OFFCURVE",
"208 721 OFFCURVE",
"218 715 CURVE",
"369 760 OFFCURVE",
"459 781 OFFCURVE",
"459 816 CURVE SMOOTH"
);
}
);
};
components = (
{
name = E;
},
{
name = acutecomb.case;
transform = "{1, 0, 0, 1, 180, 198}";
}
);
layerId = "A9E90CC4-8E6C-407E-8E88-16513AA8D05B";
width = 576;
},
{
components = (
{
name = E;
},
{
name = acutecomb.case;
transform = "{1, 0, 0, 1, 213, 198}";
}
);
layerId = "E1BF09ED-4302-4AD3-9939-8FDA35DE0FE8";
width = 585;
},
{
components = (
{
name = E;
},
{
name = acutecomb.case;
transform = "{1, 0, 0, 1, 168, 198}";
}
);
layerId = "7B53E429-1BF0-49C5-9F57-63EEBF39C6CC";
width = 632;
}
);
leftKerningGroup = H;
rightKerningGroup = E;
unicode = 00C9;
},
{
color = 1;
glyphname = Ecircumflex;
layers = (
{
background = {
paths = (
{
closed = 1;
nodes = (
"64 641 LINE",
"48 630 OFFCURVE",
"45 618 OFFCURVE",
"45 595 CURVE",
"124 574 LINE",
"124 62 LINE",
"61 39 LINE SMOOTH",
"49 35 OFFCURVE",
"45 16 OFFCURVE",
"45 0 CURVE",
"536 0 LINE",
"536 149 LINE",
"525 164 OFFCURVE",
"517 168 OFFCURVE",
"490 168 CURVE",
"459 46 LINE",
"210 67 LINE",
"210 299 LINE",
"400 299 LINE",
"420 239 LINE",
"443 239 OFFCURVE",
"448 242 OFFCURVE",
"459 255 CURVE",
"459 395 LINE",
"448 408 OFFCURVE",
"443 411 OFFCURVE",
"420 411 CURVE",
"400 351 LINE",
"210 351 LINE",
"210 579 LINE",
"433 595 LINE",
"466 504 LINE SMOOTH",
"470 492 OFFCURVE",
"489 488 OFFCURVE",
"505 488 CURVE",
"505 641 LINE"
);
},
{
closed = 1;
nodes = (
"321 854 OFFCURVE",
"306 858 OFFCURVE",
"297 858 CURVE SMOOTH",
"288 858 OFFCURVE",
"273 853 OFFCURVE",
"253 839 CURVE SMOOTH",
"116 743 LINE",
"116 743 OFFCURVE",
"115 740 OFFCURVE",
"115 737 CURVE SMOOTH",
"115 728 OFFCURVE",
"120 720 OFFCURVE",
"129 715 CURVE",
"297 787 LINE",
"465 715 LINE",
"474 720 OFFCURVE",
"479 728 OFFCURVE",
"479 737 CURVE SMOOTH",
"479 740 OFFCURVE",
"478 743 OFFCURVE",
"478 743 CURVE",
"341 839 LINE SMOOTH"
);
}
);
};
components = (
{
name = E;
},
{
name = circumflexcomb.case;
transform = "{1, 0, 0, 1, 146, 198}";
}
);
layerId = "A9E90CC4-8E6C-407E-8E88-16513AA8D05B";
width = 576;
},
{
components = (
{
name = E;
},
{
name = circumflexcomb.case;
transform = "{1, 0, 0, 1, 183, 198}";
}
);
layerId = "E1BF09ED-4302-4AD3-9939-8FDA35DE0FE8";
width = 585;
},
{
components = (
{
name = E;
},
{
name = circumflexcomb.case;
transform = "{1, 0, 0, 1, 131, 198}";
}
);
layerId = "7B53E429-1BF0-49C5-9F57-63EEBF39C6CC";
width = 632;
}
);
leftKerningGroup = E;
rightKerningGroup = E;
unicode = 00CA;
},
{
color = 1;
glyphname = Edieresis;
layers = (
{
background = {
paths = (
{
closed = 1;
nodes = (
"150 755 OFFCURVE",
"165 736 OFFCURVE",
"196 736 CURVE SMOOTH",
"220 736 OFFCURVE",
"243 757 OFFCURVE",
"243 782 CURVE SMOOTH",
"243 809 OFFCURVE",
"227 828 OFFCURVE",
"196 828 CURVE SMOOTH",
"173 828 OFFCURVE",
"150 807 OFFCURVE",
"150 782 CURVE SMOOTH"
);
},
{
closed = 1;
nodes = (
"357 755 OFFCURVE",
"372 736 OFFCURVE",
"403 736 CURVE SMOOTH",
"427 736 OFFCURVE",
"450 757 OFFCURVE",
"450 782 CURVE SMOOTH",
"450 809 OFFCURVE",
"434 828 OFFCURVE",
"403 828 CURVE SMOOTH",
"380 828 OFFCURVE",
"357 807 OFFCURVE",
"357 782 CURVE SMOOTH"
);
},
{
closed = 1;
nodes = (
"64 641 LINE",
"48 630 OFFCURVE",
"45 618 OFFCURVE",
"45 595 CURVE",
"124 574 LINE",
"124 62 LINE",
"61 39 LINE SMOOTH",
"49 35 OFFCURVE",
"45 16 OFFCURVE",
"45 0 CURVE",
"536 0 LINE",
"536 149 LINE",
"525 164 OFFCURVE",
"517 168 OFFCURVE",
"490 168 CURVE",
"459 46 LINE",
"210 67 LINE",
"210 299 LINE",
"400 299 LINE",
"420 224 LINE",
"443 224 OFFCURVE",
"448 227 OFFCURVE",
"459 240 CURVE",
"459 410 LINE",
"448 423 OFFCURVE",
"443 426 OFFCURVE",
"420 426 CURVE",
"400 351 LINE",
"210 351 LINE",
"210 579 LINE",
"433 595 LINE",
"466 504 LINE SMOOTH",
"470 492 OFFCURVE",
"489 488 OFFCURVE",
"505 488 CURVE",
"505 641 LINE"
);
}
);
};
components = (
{
name = E;
},
{
name = dieresiscomb.case;
transform = "{1, 0, 0, 1, 145, 198}";
}
);
layerId = "A9E90CC4-8E6C-407E-8E88-16513AA8D05B";
width = 576;
},
{
components = (
{
name = E;
},
{
name = dieresiscomb.case;
transform = "{1, 0, 0, 1, 210, 198}";
}
);
layerId = "E1BF09ED-4302-4AD3-9939-8FDA35DE0FE8";
width = 585;
},
{
components = (
{
name = E;
},
{
name = dieresiscomb.case;
transform = "{1, 0, 0, 1, 101, 198}";
}
);
layerId = "7B53E429-1BF0-49C5-9F57-63EEBF39C6CC";
width = 632;
}
);
leftKerningGroup = H;
rightKerningGroup = E;
unicode = 00CB;
},
{
color = 1;
glyphname = Egrave;
layers = (
{
background = {
paths = (
{
closed = 1;
nodes = (
"64 641 LINE",
"48 630 OFFCURVE",
"45 618 OFFCURVE",
"45 595 CURVE",
"124 574 LINE",
"124 62 LINE",
"61 39 LINE SMOOTH",
"49 35 OFFCURVE",
"45 16 OFFCURVE",
"45 0 CURVE",
"536 0 LINE",
"536 149 LINE",
"525 164 OFFCURVE",
"517 168 OFFCURVE",
"490 168 CURVE",
"459 46 LINE",
"210 67 LINE",
"210 299 LINE",
"400 299 LINE",
"420 224 LINE",
"443 224 OFFCURVE",
"448 227 OFFCURVE",
"459 240 CURVE",
"459 410 LINE",
"448 423 OFFCURVE",
"443 426 OFFCURVE",
"420 426 CURVE",
"400 351 LINE",
"210 351 LINE",
"210 579 LINE",
"433 595 LINE",
"466 504 LINE SMOOTH",
"470 492 OFFCURVE",
"489 488 OFFCURVE",
"505 488 CURVE",
"505 641 LINE"
);
},
{
closed = 1;
nodes = (
"144 781 OFFCURVE",
"234 760 OFFCURVE",
"385 715 CURVE",
"395 721 OFFCURVE",
"399 728 OFFCURVE",
"399 736 CURVE SMOOTH",
"399 738 OFFCURVE",
"399 741 OFFCURVE",
"398 743 CURVE",
"262 825 OFFCURVE",
"209 858 OFFCURVE",
"178 858 CURVE SMOOTH",
"155 858 OFFCURVE",
"144 833 OFFCURVE",
"144 816 CURVE SMOOTH"
);
}
);
};
components = (
{
name = E;
},
{
name = gravecomb.case;
transform = "{1, 0, 0, 1, 180, 198}";
}
);
layerId = "A9E90CC4-8E6C-407E-8E88-16513AA8D05B";
width = 576;
},
{
components = (
{
name = E;
},
{
name = gravecomb.case;
transform = "{1, 0, 0, 1, 213, 198}";
}
);
layerId = "E1BF09ED-4302-4AD3-9939-8FDA35DE0FE8";
width = 585;
},
{
components = (
{
name = E;
},
{
name = gravecomb.case;
transform = "{1, 0, 0, 1, 168, 198}";
}
);
layerId = "7B53E429-1BF0-49C5-9F57-63EEBF39C6CC";
width = 632;
}
);
leftKerningGroup = H;
rightKerningGroup = E;
unicode = 00C8;
},
{
color = 4;
glyphname = F;
layers = (
{
anchors = (
{
name = bottom;
position = "{270, 0}";
},
{
name = top;
position = "{270, 641}";
}
);
background = {
paths = (
{
closed = 1;
nodes = (
"466 504 LINE SMOOTH",
"470 492 OFFCURVE",
"489 488 OFFCURVE",
"505 488 CURVE",
"505 641 LINE",
"64 641 LINE",
"48 630 OFFCURVE",
"45 618 OFFCURVE",
"45 595 CURVE",
"124 574 LINE",
"124 62 LINE",
"61 39 LINE SMOOTH",
"49 35 OFFCURVE",
"45 16 OFFCURVE",
"45 0 CURVE",
"291 0 LINE",
"306 11 OFFCURVE",
"310 19 OFFCURVE",
"310 46 CURVE",
"210 67 LINE",
"210 289 LINE",
"400 289 LINE",
"420 224 LINE",
"443 224 OFFCURVE",
"448 227 OFFCURVE",
"459 240 CURVE",
"459 385 LINE",
"448 398 OFFCURVE",
"443 401 OFFCURVE",
"420 401 CURVE",
"400 341 LINE",
"210 341 LINE",
"210 579 LINE",
"433 595 LINE"
);
}
);
};
layerId = "A9E90CC4-8E6C-407E-8E88-16513AA8D05B";
paths = (
{
closed = 1;
nodes = (
"291 0 LINE",
"306 11 OFFCURVE",
"310 19 OFFCURVE",
"310 46 CURVE",
"200 69 LINE",
"210 57 LINE",
"210 299 LINE",
"200 289 LINE",
"410 289 LINE",
"397 299 LINE",
"420 224 LINE",
"443 224 OFFCURVE",
"448 227 OFFCURVE",
"459 240 CURVE",
"459 385 LINE",
"448 398 OFFCURVE",
"443 401 OFFCURVE",
"420 401 CURVE",
"397 331 LINE",
"410 341 LINE",
"200 341 LINE",
"210 331 LINE",
"210 589 LINE",
"200 578 LINE",
"443 596 LINE",
"429 605 LINE",
"466 504 LINE SMOOTH",
"470 492 OFFCURVE",
"489 488 OFFCURVE",
"505 488 CURVE",
"505 641 LINE",
"64 641 LINE",
"48 630 OFFCURVE",
"45 618 OFFCURVE",
"45 595 CURVE",
"134 571 LINE",
"124 584 LINE",
"124 52 LINE",
"134 66 LINE",
"61 39 LINE SMOOTH",
"49 35 OFFCURVE",
"45 16 OFFCURVE",
"45 0 CURVE"
);
}
);
width = 530;
},
{
anchors = (
{
name = bottom;
position = "{270, 0}";
},
{
name = top;
position = "{270, 641}";
}
);
layerId = "E1BF09ED-4302-4AD3-9939-8FDA35DE0FE8";
paths = (
{
closed = 1;
nodes = (
"244 0 LINE SMOOTH",
"258 0 OFFCURVE",
"261 4 OFFCURVE",
"261 18 CURVE",
"170 34 LINE",
"181 22 LINE",
"181 313 LINE",
"171 304 LINE",
"416 304 LINE",
"404 313 LINE",
"415 243 LINE",
"424 243 OFFCURVE",
"431 244 OFFCURVE",
"435 254 CURVE",
"435 376 LINE",
"431 386 OFFCURVE",
"425 387 OFFCURVE",
"415 387 CURVE",
"405 320 LINE",
"416 326 LINE",
"171 326 LINE",
"181 319 LINE",
"181 625 LINE",
"170 612 LINE",
"456 625 LINE",
"442 634 LINE",
"466 558 LINE SMOOTH",
"470 546 OFFCURVE",
"477 542 OFFCURVE",
"486 542 CURVE",
"486 641 LINE",
"98 641 LINE SMOOTH",
"84 641 OFFCURVE",
"81 637 OFFCURVE",
"81 623 CURVE",
"159 607 LINE",
"148 619 LINE",
"148 23 LINE",
"161 34 LINE",
"97 20 LINE SMOOTH",
"86 18 OFFCURVE",
"81 12 OFFCURVE",
"81 0 CURVE"
);
}
);
width = 540;
},
{
anchors = (
{
name = bottom;
position = "{288, 0}";
},
{
name = top;
position = "{288, 641}";
}
);
layerId = "7B53E429-1BF0-49C5-9F57-63EEBF39C6CC";
paths = (
{
closed = 1;
nodes = (
"356 0 LINE",
"372 29 OFFCURVE",
"376 50 OFFCURVE",
"376 76 CURVE",
"264 100 LINE",
"293 75 LINE",
"293 281 LINE",
"283 271 LINE",
"413 271 LINE",
"399 280 LINE",
"422 202 LINE",
"445 202 OFFCURVE",
"474 207 OFFCURVE",
"498 224 CURVE",
"498 404 LINE",
"474 421 OFFCURVE",
"445 426 OFFCURVE",
"422 426 CURVE",
"400 351 LINE",
"413 361 LINE",
"283 361 LINE",
"293 351 LINE",
"293 542 LINE",
"282 529 LINE",
"465 547 LINE",
"451 556 LINE",
"480 478 LINE SMOOTH",
"484 466 OFFCURVE",
"500 458 OFFCURVE",
"550 458 CURVE",
"550 641 LINE",
"60 641 LINE",
"43 614 OFFCURVE",
"38 591 OFFCURVE",
"38 565 CURVE",
"129 541 LINE",
"107 566 LINE",
"107 70 LINE",
"128 96 LINE",
"54 69 LINE SMOOTH",
"44 65 OFFCURVE",
"38 39 OFFCURVE",
"38 0 CURVE"
);
}
);
width = 576;
}
);
leftKerningGroup = H;
leftMetricsKey = H;
rightKerningGroup = F;
rightMetricsKey = "=H*.7";
unicode = 0046;
},
{
color = 4;
glyphname = G;
layers = (
{
anchors = (
{
name = bottom;
position = "{359, 0}";
},
{
name = top;
position = "{359, 641}";
}
);
background = {
paths = (
{
closed = 1;
nodes = (
"513 640 OFFCURVE",
"455 655 OFFCURVE",
"371 655 CURVE SMOOTH",
"169 655 OFFCURVE",
"48 471 OFFCURVE",
"48 296 CURVE SMOOTH",
"48 140 OFFCURVE",
"142 -12 OFFCURVE",
"366 -12 CURVE SMOOTH",
"451 -12 OFFCURVE",
"528 12 OFFCURVE",
"579 47 CURVE",
"579 236 LINE",
"621 258 LINE SMOOTH",
"633 264 OFFCURVE",
"637 281 OFFCURVE",
"637 297 CURVE",
"409 297 LINE",
"394 286 OFFCURVE",
"390 278 OFFCURVE",
"390 251 CURVE",
"489 230 LINE",
"489 85 LINE",
"462 57 OFFCURVE",
"417 37 OFFCURVE",
"361 37 CURVE SMOOTH",
"225 37 OFFCURVE",
"149 175 OFFCURVE",
"149 332 CURVE SMOOTH",
"151 482 OFFCURVE",
"212 606 OFFCURVE",
"370 606 CURVE SMOOTH",
"417 606 OFFCURVE",
"461 586 OFFCURVE",
"492 558 CURVE",
"507 474 LINE SMOOTH",
"509 461 OFFCURVE",
"538 454 OFFCURVE",
"554 453 CURVE",
"570 605 LINE"
);
}
);
};
layerId = "A9E90CC4-8E6C-407E-8E88-16513AA8D05B";
paths = (
{
closed = 1;
nodes = (
"446 -12 OFFCURVE",
"525 10 OFFCURVE",
"579 47 CURVE",
"579 246 LINE",
"569 231 LINE",
"621 258 LINE SMOOTH",
"631 263 OFFCURVE",
"637 278 OFFCURVE",
"637 297 CURVE",
"409 297 LINE",
"394 286 OFFCURVE",
"390 277 OFFCURVE",
"390 251 CURVE",
"499 228 LINE",
"489 240 LINE",
"489 65 LINE",
"499 95 LINE",
"470 59 OFFCURVE",
"418 37 OFFCURVE",
"362 37 CURVE SMOOTH",
"233 37 OFFCURVE",
"144 158 OFFCURVE",
"144 333 CURVE SMOOTH",
"144 501 OFFCURVE",
"228 606 OFFCURVE",
"362 606 CURVE SMOOTH",
"420 606 OFFCURVE",
"463 588 OFFCURVE",
"502 548 CURVE",
"490 568 LINE",
"507 474 LINE SMOOTH",
"508 464 OFFCURVE",
"527 456 OFFCURVE",
"554 453 CURVE",
"570 605 LINE",
"519 637 OFFCURVE",
"453 655 OFFCURVE",
"384 655 CURVE SMOOTH",
"192 655 OFFCURVE",
"48 502 OFFCURVE",
"48 297 CURVE SMOOTH",
"48 110 OFFCURVE",
"173 -12 OFFCURVE",
"366 -12 CURVE SMOOTH"
);
}
);
width = 665;
},
{
anchors = (
{
name = bottom;
position = "{357, 0}";
},
{
name = top;
position = "{357, 641}";
}
);
layerId = "E1BF09ED-4302-4AD3-9939-8FDA35DE0FE8";
paths = (
{
closed = 1;
nodes = (
"427 -12 OFFCURVE",
"499 12 OFFCURVE",
"563 58 CURVE",
"563 256 LINE",
"550 245 LINE",
"593 259 LINE SMOOTH",
"606 264 OFFCURVE",
"609 268 OFFCURVE",
"609 279 CURVE",
"466 279 LINE SMOOTH",
"452 279 OFFCURVE",
"449 275 OFFCURVE",
"449 261 CURVE",
"541 245 LINE",
"530 257 LINE",
"530 64 LINE",
"532 78 LINE",
"488 35 OFFCURVE",
"434 14 OFFCURVE",
"369 14 CURVE SMOOTH",
"213 14 OFFCURVE",
"110 138 OFFCURVE",
"110 324 CURVE SMOOTH",
"110 508 OFFCURVE",
"211 626 OFFCURVE",
"369 626 CURVE SMOOTH",
"433 626 OFFCURVE",
"497 608 OFFCURVE",
"531 581 CURVE",
"517 598 LINE",
"523 505 LINE SMOOTH",
"524 494 OFFCURVE",
"528 490 OFFCURVE",
"544 487 CURVE",
"562 607 LINE",
"510 639 OFFCURVE",
"452 655 OFFCURVE",
"391 655 CURVE SMOOTH",
"208 655 OFFCURVE",
"71 500 OFFCURVE",
"71 294 CURVE SMOOTH",
"71 111 OFFCURVE",
"185 -12 OFFCURVE",
"353 -12 CURVE SMOOTH"
);
}
);
width = 671;
},
{
anchors = (
{
name = bottom;
position = "{370, 0}";
},
{
name = top;
position = "{370, 641}";
}
);
layerId = "7B53E429-1BF0-49C5-9F57-63EEBF39C6CC";
paths = (
{
closed = 1;
nodes = (
"450 -12 OFFCURVE",
"546 14 OFFCURVE",
"616 57 CURVE",
"616 271 LINE",
"583 223 LINE",
"652 250 LINE SMOOTH",
"662 254 OFFCURVE",
"668 279 OFFCURVE",
"668 319 CURVE",
"373 319 LINE",
"358 291 OFFCURVE",
"353 272 OFFCURVE",
"353 243 CURVE",
"460 219 LINE",
"438 265 LINE",
"438 53 LINE",
"478 125 LINE",
"459 100 OFFCURVE",
"427 87 OFFCURVE",
"385 87 CURVE SMOOTH",
"274 87 OFFCURVE",
"217 167 OFFCURVE",
"217 323 CURVE SMOOTH",
"217 475 OFFCURVE",
"271 556 OFFCURVE",
"373 556 CURVE SMOOTH",
"431 556 OFFCURVE",
"493 536 OFFCURVE",
"514 511 CURVE",
"502 531 LINE",
"512 448 LINE SMOOTH",
"514 433 OFFCURVE",
"544 423 OFFCURVE",
"587 423 CURVE",
"607 605 LINE",
"556 635 OFFCURVE",
"469 655 OFFCURVE",
"387 655 CURVE SMOOTH",
"177 655 OFFCURVE",
"25 503 OFFCURVE",
"25 294 CURVE SMOOTH",
"25 108 OFFCURVE",
"156 -12 OFFCURVE",
"358 -12 CURVE SMOOTH"
);
}
);
width = 698;
}
);
leftKerningGroup = O;
leftMetricsKey = O;
rightKerningGroup = G;
rightMetricsKey = "=H*.8";
unicode = 0047;
},
{
color = 4;
glyphname = H;
layers = (
{
anchors = (
{
name = bottom;
position = "{374, 0}";
},
{
name = center;
position = "{374, 471}";
},
{
name = top;
position = "{374, 641}";
},
{
name = topleft;
position = "{64, 641}";
}
);
background = {
paths = (
{
closed = 1;
nodes = (
"473 39 LINE SMOOTH",
"461 35 OFFCURVE",
"457 16 OFFCURVE",
"457 0 CURVE",
"693 0 LINE",
"708 11 OFFCURVE",
"712 19 OFFCURVE",
"712 46 CURVE",
"622 67 LINE",
"622 579 LINE",
"696 602 LINE SMOOTH",
"708 606 OFFCURVE",
"712 625 OFFCURVE",
"712 641 CURVE",
"476 641 LINE",
"461 630 OFFCURVE",
"457 622 OFFCURVE",
"457 595 CURVE",
"536 574 LINE",
"536 361 LINE",
"210 361 LINE",
"210 579 LINE",
"284 602 LINE SMOOTH",
"296 606 OFFCURVE",
"300 625 OFFCURVE",
"300 641 CURVE",
"64 641 LINE",
"49 630 OFFCURVE",
"45 622 OFFCURVE",
"45 595 CURVE",
"124 574 LINE",
"124 62 LINE",
"61 39 LINE SMOOTH",
"49 35 OFFCURVE",
"45 16 OFFCURVE",
"45 0 CURVE",
"281 0 LINE",
"296 11 OFFCURVE",
"300 19 OFFCURVE",
"300 46 CURVE",
"210 67 LINE",
"210 309 LINE",
"536 309 LINE",
"536 62 LINE"
);
}
);
};
layerId = "A9E90CC4-8E6C-407E-8E88-16513AA8D05B";
paths = (
{
closed = 1;
nodes = (
"281 0 LINE",
"296 11 OFFCURVE",
"300 20 OFFCURVE",
"300 46 CURVE",
"198 70 LINE",
"210 55 LINE",
"210 311 LINE",
"198 299 LINE",
"548 299 LINE",
"536 311 LINE",
"536 50 LINE",
"547 66 LINE",
"473 39 LINE SMOOTH",
"463 35 OFFCURVE",
"457 21 OFFCURVE",
"457 0 CURVE",
"693 0 LINE",
"708 11 OFFCURVE",
"712 20 OFFCURVE",
"712 46 CURVE",
"610 70 LINE",
"622 55 LINE",
"622 591 LINE",
"611 575 LINE",
"696 602 LINE SMOOTH",
"706 605 OFFCURVE",
"712 620 OFFCURVE",
"712 641 CURVE",
"476 641 LINE",
"461 630 OFFCURVE",
"457 621 OFFCURVE",
"457 595 CURVE",
"548 571 LINE",
"536 586 LINE",
"536 339 LINE",
"548 351 LINE",
"198 351 LINE",
"210 339 LINE",
"210 591 LINE",
"199 575 LINE",
"284 602 LINE SMOOTH",
"294 605 OFFCURVE",
"300 620 OFFCURVE",
"300 641 CURVE",
"64 641 LINE",
"49 630 OFFCURVE",
"45 621 OFFCURVE",
"45 595 CURVE",
"136 571 LINE",
"124 586 LINE",
"124 50 LINE",
"135 66 LINE",
"61 39 LINE SMOOTH",
"51 35 OFFCURVE",
"45 21 OFFCURVE",
"45 0 CURVE"
);
}
);
width = 747;
},
{
anchors = (
{
name = bottom;
position = "{376, 0}";
},
{
name = center;
position = "{376, 475}";
},
{
name = top;
position = "{376, 641}";
},
{
name = topleft;
position = "{98, 641}";
}
);
layerId = "E1BF09ED-4302-4AD3-9939-8FDA35DE0FE8";
paths = (
{
closed = 1;
nodes = (
"234 0 LINE SMOOTH",
"248 0 OFFCURVE",
"251 4 OFFCURVE",
"251 18 CURVE",
"170 34 LINE",
"181 22 LINE",
"181 316 LINE",
"175 314 LINE",
"577 314 LINE",
"571 316 LINE",
"571 23 LINE",
"584 34 LINE",
"520 20 LINE SMOOTH",
"509 18 OFFCURVE",
"504 12 OFFCURVE",
"504 0 CURVE",
"657 0 LINE SMOOTH",
"671 0 OFFCURVE",
"674 4 OFFCURVE",
"674 18 CURVE",
"593 34 LINE",
"604 22 LINE",
"604 619 LINE",
"594 607 LINE",
"658 621 LINE SMOOTH",
"669 623 OFFCURVE",
"674 629 OFFCURVE",
"674 641 CURVE",
"521 641 LINE SMOOTH",
"507 641 OFFCURVE",
"504 637 OFFCURVE",
"504 623 CURVE",
"585 607 LINE",
"571 618 LINE",
"571 334 LINE",
"577 336 LINE",
"175 336 LINE",
"181 334 LINE",
"181 619 LINE",
"171 607 LINE",
"235 621 LINE SMOOTH",
"246 623 OFFCURVE",
"251 629 OFFCURVE",
"251 641 CURVE",
"98 641 LINE SMOOTH",
"84 641 OFFCURVE",
"81 637 OFFCURVE",
"81 623 CURVE",
"162 607 LINE",
"148 618 LINE",
"148 23 LINE",
"161 34 LINE",
"97 20 LINE SMOOTH",
"86 18 OFFCURVE",
"81 12 OFFCURVE",
"81 0 CURVE"
);
}
);
width = 751;
},
{
anchors = (
{
name = bottom;
position = "{387, 0}";
},
{
name = center;
position = "{387, 472}";
},
{
name = top;
position = "{387, 641}";
},
{
name = topleft;
position = "{60, 641}";
}
);
layerId = "7B53E429-1BF0-49C5-9F57-63EEBF39C6CC";
paths = (
{
closed = 1;
nodes = (
"343 0 LINE",
"359 29 OFFCURVE",
"363 50 OFFCURVE",
"363 76 CURVE",
"261 100 LINE",
"293 75 LINE",
"293 304 LINE",
"281 281 LINE",
"491 281 LINE",
"479 304 LINE",
"479 70 LINE",
"500 96 LINE",
"426 69 LINE SMOOTH",
"416 65 OFFCURVE",
"410 39 OFFCURVE",
"410 0 CURVE",
"722 0 LINE",
"740 29 OFFCURVE",
"745 50 OFFCURVE",
"745 76 CURVE",
"643 100 LINE",
"665 75 LINE",
"665 571 LINE",
"644 545 LINE",
"729 572 LINE SMOOTH",
"739 575 OFFCURVE",
"745 602 OFFCURVE",
"745 641 CURVE",
"430 641 LINE",
"414 614 OFFCURVE",
"410 591 OFFCURVE",
"410 565 CURVE",
"501 541 LINE",
"479 566 LINE",
"479 347 LINE",
"491 371 LINE",
"281 371 LINE",
"293 347 LINE",
"293 571 LINE",
"262 545 LINE",
"347 572 LINE SMOOTH",
"357 575 OFFCURVE",
"363 602 OFFCURVE",
"363 641 CURVE",
"60 641 LINE",
"43 614 OFFCURVE",
"38 591 OFFCURVE",
"38 565 CURVE",
"129 541 LINE",
"107 566 LINE",
"107 70 LINE",
"128 96 LINE",
"54 69 LINE SMOOTH",
"44 65 OFFCURVE",
"38 39 OFFCURVE",
"38 0 CURVE"
);
}
);
width = 782;
}
);
leftKerningGroup = H;
rightKerningGroup = H;
unicode = 0048;
},
{
color = 4;
glyphname = I;
layers = (
{
anchors = (
{
name = bottom;
position = "{168, 0}";
},
{
name = ogonek;
position = "{281, 0}";
},
{
name = top;
position = "{168, 641}";
},
{
name = topleft;
position = "{64, 641}";
}
);
background = {
paths = (
{
closed = 1;
nodes = (
"284 602 LINE SMOOTH",
"296 606 OFFCURVE",
"300 625 OFFCURVE",
"300 641 CURVE",
"64 641 LINE",
"49 630 OFFCURVE",
"45 622 OFFCURVE",
"45 595 CURVE",
"124 574 LINE",
"124 62 LINE",
"61 39 LINE SMOOTH",
"49 35 OFFCURVE",
"45 16 OFFCURVE",
"45 0 CURVE",
"281 0 LINE",
"296 11 OFFCURVE",
"300 19 OFFCURVE",
"300 46 CURVE",
"210 67 LINE",
"210 579 LINE"
);
}
);
};
layerId = "A9E90CC4-8E6C-407E-8E88-16513AA8D05B";
paths = (
{
closed = 1;
nodes = (
"281 0 LINE",
"296 11 OFFCURVE",
"300 19 OFFCURVE",
"300 46 CURVE",
"200 70 LINE",
"210 57 LINE",
"210 589 LINE",
"200 576 LINE",
"284 602 LINE SMOOTH",
"296 606 OFFCURVE",
"300 625 OFFCURVE",
"300 641 CURVE",
"64 641 LINE",
"49 630 OFFCURVE",
"45 622 OFFCURVE",
"45 595 CURVE",
"134 572 LINE",
"124 584 LINE",
"124 52 LINE",
"134 65 LINE",
"61 39 LINE SMOOTH",
"49 35 OFFCURVE",
"45 16 OFFCURVE",
"45 0 CURVE"
);
}
);
width = 335;
},
{
anchors = (
{
name = bottom;
position = "{164, 0}";
},
{
name = ogonek;
position = "{234, 0}";
},
{
name = top;
position = "{164, 641}";
},
{
name = topleft;
position = "{98, 641}";
}
);
layerId = "E1BF09ED-4302-4AD3-9939-8FDA35DE0FE8";
paths = (
{
closed = 1;
nodes = (
"234 0 LINE",
"248 0 OFFCURVE",
"251 4 OFFCURVE",
"251 18 CURVE",
"170 34 LINE",
"181 22 LINE",
"181 619 LINE",
"171 607 LINE",
"235 621 LINE SMOOTH",
"246 623 OFFCURVE",
"251 629 OFFCURVE",
"251 641 CURVE",
"98 641 LINE",
"84 641 OFFCURVE",
"81 637 OFFCURVE",
"81 623 CURVE",
"162 607 LINE",
"148 618 LINE",
"148 23 LINE",
"161 34 LINE",
"97 20 LINE SMOOTH",
"86 18 OFFCURVE",
"81 12 OFFCURVE",
"81 0 CURVE"
);
}
);
width = 328;
},
{
anchors = (
{
name = bottom;
position = "{196, 0}";
},
{
name = ogonek;
position = "{343, 0}";
},
{
name = top;
position = "{196, 641}";
},
{
name = topleft;
position = "{60, 641}";
}
);
layerId = "7B53E429-1BF0-49C5-9F57-63EEBF39C6CC";
paths = (
{
closed = 1;
nodes = (
"343 0 LINE",
"359 29 OFFCURVE",
"363 50 OFFCURVE",
"363 76 CURVE",
"261 100 LINE",
"293 75 LINE",
"293 571 LINE",
"262 545 LINE",
"347 572 LINE SMOOTH",
"357 575 OFFCURVE",
"363 602 OFFCURVE",
"363 641 CURVE",
"60 641 LINE",
"43 614 OFFCURVE",
"38 591 OFFCURVE",
"38 565 CURVE",
"129 541 LINE",
"107 566 LINE",
"107 70 LINE",
"128 96 LINE",
"54 69 LINE SMOOTH",
"44 65 OFFCURVE",
"38 39 OFFCURVE",
"38 0 CURVE"
);
}
);
width = 400;
}
);
leftKerningGroup = H;
leftMetricsKey = H;
rightKerningGroup = H;
rightMetricsKey = H;
unicode = 0049;
},
{
color = 1;
glyphname = Iacute;
layers = (
{
background = {
paths = (
{
closed = 1;
nodes = (
"284 602 LINE SMOOTH",
"296 606 OFFCURVE",
"300 625 OFFCURVE",
"300 641 CURVE",
"64 641 LINE",
"49 630 OFFCURVE",
"45 622 OFFCURVE",
"45 595 CURVE",
"124 574 LINE",
"124 62 LINE",
"61 39 LINE SMOOTH",
"49 35 OFFCURVE",
"45 16 OFFCURVE",
"45 0 CURVE",
"281 0 LINE",
"296 11 OFFCURVE",
"300 19 OFFCURVE",
"300 46 CURVE",
"210 67 LINE",
"210 579 LINE"
);
},
{
closed = 1;
nodes = (
"314 833 OFFCURVE",
"303 858 OFFCURVE",
"280 858 CURVE SMOOTH",
"249 858 OFFCURVE",
"196 825 OFFCURVE",
"60 743 CURVE",
"59 741 OFFCURVE",
"59 738 OFFCURVE",
"59 736 CURVE SMOOTH",
"59 728 OFFCURVE",
"63 721 OFFCURVE",
"73 715 CURVE",
"224 760 OFFCURVE",
"314 781 OFFCURVE",
"314 816 CURVE SMOOTH"
);
}
);
};
components = (
{
name = I;
},
{
name = acutecomb.case;
transform = "{1, 0, 0, 1, 54, 198}";
}
);
layerId = "A9E90CC4-8E6C-407E-8E88-16513AA8D05B";
width = 335;
},
{
components = (
{
name = I;
},
{
name = acutecomb.case;
transform = "{1, 0, 0, 1, 66, 198}";
}
);
layerId = "E1BF09ED-4302-4AD3-9939-8FDA35DE0FE8";
width = 328;
},
{
components = (
{
name = I;
},
{
name = acutecomb.case;
transform = "{1, 0, 0, 1, 49, 198}";
}
);
layerId = "7B53E429-1BF0-49C5-9F57-63EEBF39C6CC";
width = 400;
}
);
leftKerningGroup = H;
rightKerningGroup = H;
unicode = 00CD;
},
{
color = 1;
glyphname = Icircumflex;
layers = (
{
background = {
paths = (
{
closed = 1;
nodes = (
"284 602 LINE SMOOTH",
"296 606 OFFCURVE",
"300 625 OFFCURVE",
"300 641 CURVE",
"64 641 LINE",
"49 630 OFFCURVE",
"45 622 OFFCURVE",
"45 595 CURVE",
"124 574 LINE",
"124 62 LINE",
"61 39 LINE SMOOTH",
"49 35 OFFCURVE",
"45 16 OFFCURVE",
"45 0 CURVE",
"281 0 LINE",
"296 11 OFFCURVE",
"300 19 OFFCURVE",
"300 46 CURVE",
"210 67 LINE",
"210 579 LINE"
);
},
{
closed = 1;
nodes = (
"192 854 OFFCURVE",
"177 858 OFFCURVE",
"168 858 CURVE SMOOTH",
"159 858 OFFCURVE",
"144 853 OFFCURVE",
"124 839 CURVE SMOOTH",
"-13 743 LINE",
"-13 743 OFFCURVE",
"-14 740 OFFCURVE",
"-14 737 CURVE SMOOTH",
"-14 728 OFFCURVE",
"-9 720 OFFCURVE",
"0 715 CURVE",
"168 787 LINE",
"336 715 LINE",
"345 720 OFFCURVE",
"350 728 OFFCURVE",
"350 737 CURVE SMOOTH",
"350 740 OFFCURVE",
"349 743 OFFCURVE",
"349 743 CURVE",
"212 839 LINE SMOOTH"
);
}
);
};
components = (
{
name = I;
},
{
name = circumflexcomb.case;
transform = "{1, 0, 0, 1, 20, 198}";
}
);
layerId = "A9E90CC4-8E6C-407E-8E88-16513AA8D05B";
width = 335;
},
{
components = (
{
name = I;
},
{
name = circumflexcomb.case;
transform = "{1, 0, 0, 1, 36, 198}";
}
);
layerId = "E1BF09ED-4302-4AD3-9939-8FDA35DE0FE8";
width = 328;
},
{
components = (
{
name = I;
},
{
name = circumflexcomb.case;
transform = "{1, 0, 0, 1, 12, 198}";
}
);
layerId = "7B53E429-1BF0-49C5-9F57-63EEBF39C6CC";
width = 400;
}
);
leftKerningGroup = H;
rightKerningGroup = H;
unicode = 00CE;
},
{
color = 1;
glyphname = Idieresis;
layers = (
{
background = {
paths = (
{
closed = 1;
nodes = (
"24 755 OFFCURVE",
"39 736 OFFCURVE",
"70 736 CURVE SMOOTH",
"94 736 OFFCURVE",
"117 757 OFFCURVE",
"117 782 CURVE SMOOTH",
"117 809 OFFCURVE",
"101 828 OFFCURVE",
"70 828 CURVE SMOOTH",
"47 828 OFFCURVE",
"24 807 OFFCURVE",
"24 782 CURVE SMOOTH"
);
},
{
closed = 1;
nodes = (
"230 755 OFFCURVE",
"247 736 OFFCURVE",
"277 736 CURVE SMOOTH",
"301 736 OFFCURVE",
"324 757 OFFCURVE",
"324 782 CURVE SMOOTH",
"324 809 OFFCURVE",
"308 828 OFFCURVE",
"277 828 CURVE SMOOTH",
"254 828 OFFCURVE",
"231 807 OFFCURVE",
"231 782 CURVE"
);
},
{
closed = 1;
nodes = (
"284 602 LINE SMOOTH",
"296 606 OFFCURVE",
"300 625 OFFCURVE",
"300 641 CURVE",
"64 641 LINE",
"49 630 OFFCURVE",
"45 622 OFFCURVE",
"45 595 CURVE",
"124 574 LINE",
"124 62 LINE",
"61 39 LINE SMOOTH",
"49 35 OFFCURVE",
"45 16 OFFCURVE",
"45 0 CURVE",
"281 0 LINE",
"296 11 OFFCURVE",
"300 19 OFFCURVE",
"300 46 CURVE",
"210 67 LINE",
"210 579 LINE"
);
}
);
};
components = (
{
name = I;
},
{
name = dieresiscomb.case;
transform = "{1, 0, 0, 1, 19, 198}";
}
);
layerId = "A9E90CC4-8E6C-407E-8E88-16513AA8D05B";
width = 335;
},
{
components = (
{
name = I;
},
{
name = dieresiscomb.case;
transform = "{1, 0, 0, 1, 63, 198}";
}
);
layerId = "E1BF09ED-4302-4AD3-9939-8FDA35DE0FE8";
width = 328;
},
{
components = (
{
name = I;
},
{
name = dieresiscomb.case;
transform = "{1, 0, 0, 1, -18, 198}";
}
);
layerId = "7B53E429-1BF0-49C5-9F57-63EEBF39C6CC";
width = 400;
}
);
leftKerningGroup = H;
rightKerningGroup = H;
unicode = 00CF;
},
{
color = 1;
glyphname = Igrave;
layers = (
{
background = {
paths = (
{
closed = 1;
nodes = (
"284 602 LINE SMOOTH",
"296 606 OFFCURVE",
"300 625 OFFCURVE",
"300 641 CURVE",
"64 641 LINE",
"49 630 OFFCURVE",
"45 622 OFFCURVE",
"45 595 CURVE",
"124 574 LINE",
"124 62 LINE",
"61 39 LINE SMOOTH",
"49 35 OFFCURVE",
"45 16 OFFCURVE",
"45 0 CURVE",
"281 0 LINE",
"296 11 OFFCURVE",
"300 19 OFFCURVE",
"300 46 CURVE",
"210 67 LINE",
"210 579 LINE"
);
},
{
closed = 1;
nodes = (
"30 781 OFFCURVE",
"120 760 OFFCURVE",
"271 715 CURVE",
"281 721 OFFCURVE",
"285 728 OFFCURVE",
"285 736 CURVE SMOOTH",
"285 738 OFFCURVE",
"285 741 OFFCURVE",
"284 743 CURVE",
"148 825 OFFCURVE",
"95 858 OFFCURVE",
"64 858 CURVE SMOOTH",
"41 858 OFFCURVE",
"30 833 OFFCURVE",
"30 816 CURVE SMOOTH"
);
}
);
};
components = (
{
name = I;
},
{
name = gravecomb.case;
transform = "{1, 0, 0, 1, 54, 198}";
}
);
layerId = "A9E90CC4-8E6C-407E-8E88-16513AA8D05B";
width = 335;
},
{
components = (
{
name = I;
},
{
name = gravecomb.case;
transform = "{1, 0, 0, 1, 66, 198}";
}
);
layerId = "E1BF09ED-4302-4AD3-9939-8FDA35DE0FE8";
width = 328;
},
{
components = (
{
name = I;
},
{
name = gravecomb.case;
transform = "{1, 0, 0, 1, 49, 198}";
}
);
layerId = "7B53E429-1BF0-49C5-9F57-63EEBF39C6CC";
width = 400;
}
);
leftKerningGroup = H;
rightKerningGroup = H;
unicode = 00CC;
},
{
color = 4;
glyphname = J;
layers = (
{
anchors = (
{
name = bottom;
position = "{154, 0}";
},
{
name = top;
position = "{154, 641}";
}
);
background = {
paths = (
{
closed = 1;
nodes = (
"271 602 LINE SMOOTH",
"283 606 OFFCURVE",
"287 622 OFFCURVE",
"287 641 CURVE",
"51 641 LINE",
"36 630 OFFCURVE",
"32 622 OFFCURVE",
"32 595 CURVE",
"111 574 LINE",
"111 67 LINE SMOOTH",
"111 -104 OFFCURVE",
"67 -105 OFFCURVE",
"-44 -105 CURVE",
"-54 -117 OFFCURVE",
"-56 -131 OFFCURVE",
"-56 -138 CURVE SMOOTH",
"-56 -165 OFFCURVE",
"-30 -183 OFFCURVE",
"-1 -183 CURVE SMOOTH",
"89 -183 OFFCURVE",
"197 -13 OFFCURVE",
"197 169 CURVE SMOOTH",
"197 574 LINE"
);
}
);
};
layerId = "A9E90CC4-8E6C-407E-8E88-16513AA8D05B";
paths = (
{
closed = 1;
nodes = (
"89 -183 OFFCURVE",
"197 -13 OFFCURVE",
"197 169 CURVE SMOOTH",
"197 584 LINE",
"187 570 LINE",
"271 602 LINE SMOOTH",
"283 607 OFFCURVE",
"287 621 OFFCURVE",
"287 641 CURVE",
"51 641 LINE",
"36 630 OFFCURVE",
"32 622 OFFCURVE",
"32 595 CURVE",
"121 571 LINE",
"111 584 LINE",
"111 67 LINE SMOOTH",
"111 -104 OFFCURVE",
"66 -105 OFFCURVE",
"-48 -105 CURVE",
"-54 -117 OFFCURVE",
"-56 -131 OFFCURVE",
"-56 -138 CURVE SMOOTH",
"-56 -165 OFFCURVE",
"-30 -183 OFFCURVE",
"-1 -183 CURVE SMOOTH"
);
}
);
width = 308;
},
{
anchors = (
{
name = bottom;
position = "{133, 0}";
},
{
name = top;
position = "{133, 641}";
}
);
background = {
paths = (
{
closed = 1;
nodes = (
"92 -184 OFFCURVE",
"149 -33 OFFCURVE",
"149 169 CURVE SMOOTH",
"149 618 LINE",
"139 607 LINE",
"203 621 LINE SMOOTH",
"214 623 OFFCURVE",
"219 629 OFFCURVE",
"219 641 CURVE",
"66 641 LINE SMOOTH",
"52 641 OFFCURVE",
"49 637 OFFCURVE",
"49 623 CURVE",
"130 607 LINE",
"116 618 LINE",
"116 67 LINE SMOOTH",
"116 -64 OFFCURVE",
"79 -149 OFFCURVE",
"-37 -149 CURVE SMOOTH",
"-53 -149 LINE",
"-55 -152 OFFCURVE",
"-56 -155 OFFCURVE",
"-56 -159 CURVE SMOOTH",
"-56 -174 OFFCURVE",
"-36 -184 OFFCURVE",
"-13 -184 CURVE SMOOTH"
);
}
);
};
layerId = "E1BF09ED-4302-4AD3-9939-8FDA35DE0FE8";
paths = (
{
closed = 1;
nodes = (
"87 -184 OFFCURVE",
"149 -34 OFFCURVE",
"149 169 CURVE SMOOTH",
"149 618 LINE",
"139 607 LINE",
"203 621 LINE SMOOTH",
"215 624 OFFCURVE",
"219 630 OFFCURVE",
"219 641 CURVE",
"66 641 LINE SMOOTH",
"52 641 OFFCURVE",
"49 637 OFFCURVE",
"49 623 CURVE",
"130 607 LINE",
"116 618 LINE",
"116 67 LINE SMOOTH",
"116 -90 OFFCURVE",
"68 -149 OFFCURVE",
"-53 -149 CURVE",
"-55 -153 OFFCURVE",
"-56 -157 OFFCURVE",
"-56 -161 CURVE SMOOTH",
"-56 -176 OFFCURVE",
"-41 -184 OFFCURVE",
"-17 -184 CURVE SMOOTH"
);
}
);
width = 265;
},
{
anchors = (
{
name = bottom;
position = "{187, 0}";
},
{
name = top;
position = "{187, 641}";
}
);
layerId = "7B53E429-1BF0-49C5-9F57-63EEBF39C6CC";
paths = (
{
closed = 1;
nodes = (
"151 -193 OFFCURVE",
"278 21 OFFCURVE",
"278 265 CURVE SMOOTH",
"278 574 LINE",
"247 545 LINE",
"332 572 LINE SMOOTH",
"342 575 OFFCURVE",
"348 602 OFFCURVE",
"348 641 CURVE",
"45 641 LINE",
"30 616 OFFCURVE",
"23 594 OFFCURVE",
"23 565 CURVE",
"114 541 LINE",
"92 574 LINE",
"92 94 LINE SMOOTH",
"92 -11 OFFCURVE",
"59 -40 OFFCURVE",
"-63 -40 CURVE",
"-74 -58 OFFCURVE",
"-80 -87 OFFCURVE",
"-80 -105 CURVE SMOOTH",
"-80 -160 OFFCURVE",
"-43 -193 OFFCURVE",
"7 -193 CURVE SMOOTH"
);
}
);
width = 370;
}
);
leftKerningGroup = J;
rightKerningGroup = J;
rightMetricsKey = U;
unicode = 004A;
},
{
color = 4;
glyphname = K;
layers = (
{
anchors = (
{
name = bottom;
position = "{320, 0}";
},
{
name = top;
position = "{320, 641}";
}
);
background = {
paths = (
{
closed = 1;
nodes = (
"623 -12 OFFCURVE",
"641 5 OFFCURVE",
"641 24 CURVE",
"520 89 OFFCURVE",
"380 257 OFFCURVE",
"301 378 CURVE",
"297 358 LINE",
"544 589 LINE",
"517 574 LINE",
"604 602 LINE SMOOTH",
"616 606 OFFCURVE",
"620 625 OFFCURVE",
"620 641 CURVE",
"393 641 LINE",
"378 630 OFFCURVE",
"374 622 OFFCURVE",
"374 595 CURVE",
"462 571 LINE",
"463 584 LINE",
"223 357 LINE",
"333 179 OFFCURVE",
"467 -12 OFFCURVE",
"580 -12 CURVE SMOOTH"
);
},
{
closed = 1;
nodes = (
"281 0 LINE",
"296 11 OFFCURVE",
"300 19 OFFCURVE",
"300 46 CURVE",
"200 70 LINE",
"210 57 LINE",
"210 589 LINE",
"200 576 LINE",
"284 602 LINE SMOOTH",
"296 606 OFFCURVE",
"300 625 OFFCURVE",
"300 641 CURVE",
"64 641 LINE",
"49 630 OFFCURVE",
"45 622 OFFCURVE",
"45 595 CURVE",
"134 572 LINE",
"124 584 LINE",
"124 52 LINE",
"134 65 LINE",
"61 39 LINE SMOOTH",
"49 35 OFFCURVE",
"45 16 OFFCURVE",
"45 0 CURVE"
);
}
);
};
guideLines = (
{
angle = -89.0715;
position = "{611, 333}";
}
);
layerId = "A9E90CC4-8E6C-407E-8E88-16513AA8D05B";
paths = (
{
closed = 1;
nodes = (
"585 -12 OFFCURVE",
"612 3 OFFCURVE",
"616 24 CURVE",
"505 76 OFFCURVE",
"367 235 OFFCURVE",
"293 358 CURVE",
"293 331 LINE",
"529 589 LINE",
"502 574 LINE",
"590 602 LINE SMOOTH",
"602 606 OFFCURVE",
"606 625 OFFCURVE",
"606 641 CURVE",
"393 641 LINE",
"378 630 OFFCURVE",
"374 622 OFFCURVE",
"374 595 CURVE",
"452 571 LINE",
"448 584 LINE",
"223 337 LINE",
"321 169 OFFCURVE",
"442 -12 OFFCURVE",
"551 -12 CURVE SMOOTH"
);
},
{
closed = 1;
nodes = (
"281 0 LINE",
"296 11 OFFCURVE",
"300 19 OFFCURVE",
"300 46 CURVE",
"200 70 LINE",
"210 57 LINE",
"210 589 LINE",
"200 576 LINE",
"284 602 LINE SMOOTH",
"296 606 OFFCURVE",
"300 625 OFFCURVE",
"300 641 CURVE",
"64 641 LINE",
"49 630 OFFCURVE",
"45 622 OFFCURVE",
"45 595 CURVE",
"134 572 LINE",
"124 584 LINE",
"124 52 LINE",
"134 65 LINE",
"61 39 LINE SMOOTH",
"49 35 OFFCURVE",
"45 15 OFFCURVE",
"45 0 CURVE"
);
}
);
width = 620;
},
{
anchors = (
{
name = bottom;
position = "{321, 0}";
},
{
name = top;
position = "{321, 641}";
}
);
guideLines = (
{
angle = -89.0715;
position = "{597, 10}";
}
);
layerId = "E1BF09ED-4302-4AD3-9939-8FDA35DE0FE8";
paths = (
{
closed = 1;
nodes = (
"558 -10 OFFCURVE",
"567 0 OFFCURVE",
"567 10 CURVE",
"465 65 OFFCURVE",
"305 235 OFFCURVE",
"217 332 CURVE",
"217 318 LINE",
"494 625 LINE",
"473 607 LINE",
"540 621 LINE SMOOTH",
"551 623 OFFCURVE",
"556 629 OFFCURVE",
"556 641 CURVE",
"393 641 LINE SMOOTH",
"379 641 OFFCURVE",
"376 637 OFFCURVE",
"376 623 CURVE",
"467 607 LINE",
"463 620 LINE",
"194 322 LINE",
"329 156 OFFCURVE",
"498 -10 OFFCURVE",
"542 -10 CURVE SMOOTH"
);
},
{
closed = 1;
nodes = (
"234 0 LINE SMOOTH",
"248 0 OFFCURVE",
"251 4 OFFCURVE",
"251 18 CURVE",
"170 34 LINE",
"181 22 LINE",
"181 619 LINE",
"171 607 LINE",
"235 621 LINE SMOOTH",
"246 623 OFFCURVE",
"251 629 OFFCURVE",
"251 641 CURVE",
"98 641 LINE SMOOTH",
"84 641 OFFCURVE",
"81 637 OFFCURVE",
"81 623 CURVE",
"162 607 LINE",
"148 618 LINE",
"148 23 LINE",
"161 34 LINE",
"97 20 LINE SMOOTH",
"86 18 OFFCURVE",
"81 12 OFFCURVE",
"81 0 CURVE"
);
}
);
width = 575;
},
{
anchors = (
{
name = bottom;
position = "{338, 0}";
},
{
name = top;
position = "{338, 641}";
}
);
guideLines = (
{
angle = 230.005;
position = "{651, 589}";
},
{
angle = -89.0715;
position = "{704, 33}";
}
);
layerId = "7B53E429-1BF0-49C5-9F57-63EEBF39C6CC";
paths = (
{
closed = 1;
nodes = (
"619 -12 OFFCURVE",
"662 3 OFFCURVE",
"704 33 CURVE",
"628 100 OFFCURVE",
"525 235 OFFCURVE",
"445 373 CURVE",
"411 306 LINE",
"635 589 LINE",
"575 540 LINE",
"664 568 LINE SMOOTH",
"685 574 OFFCURVE",
"694 596 OFFCURVE",
"694 641 CURVE",
"440 641 LINE",
"426 617 OFFCURVE",
"420 595 OFFCURVE",
"420 565 CURVE",
"536 541 LINE",
"505 584 LINE",
"294 317 LINE",
"460 10 OFFCURVE",
"479 -12 OFFCURVE",
"576 -12 CURVE SMOOTH"
);
},
{
closed = 1;
nodes = (
"343 0 LINE",
"359 29 OFFCURVE",
"363 50 OFFCURVE",
"363 76 CURVE",
"261 100 LINE",
"293 75 LINE",
"293 571 LINE",
"262 545 LINE",
"347 572 LINE SMOOTH",
"357 575 OFFCURVE",
"363 603 OFFCURVE",
"363 641 CURVE",
"60 641 LINE",
"43 614 OFFCURVE",
"38 591 OFFCURVE",
"38 565 CURVE",
"129 541 LINE",
"107 566 LINE",
"107 70 LINE",
"128 96 LINE",
"54 69 LINE SMOOTH",
"44 65 OFFCURVE",
"38 39 OFFCURVE",
"38 0 CURVE"
);
}
);
width = 708;
}
);
leftKerningGroup = H;
leftMetricsKey = H;
rightKerningGroup = K;
rightMetricsKey = "=H*.1";
unicode = 004B;
},
{
color = 4;
glyphname = L;
layers = (
{
anchors = (
{
name = bottom;
position = "{303, 0}";
},
{
name = center;
position = "{168, 321}";
},
{
name = top;
position = "{168, 641}";
},
{
name = topright;
position = "{355, 443}";
}
);
background = {
paths = (
{
closed = 1;
nodes = (
"284 602 LINE SMOOTH",
"296 606 OFFCURVE",
"300 625 OFFCURVE",
"300 641 CURVE",
"64 641 LINE",
"49 630 OFFCURVE",
"45 622 OFFCURVE",
"45 595 CURVE",
"124 574 LINE",
"124 62 LINE",
"61 39 LINE SMOOTH",
"49 35 OFFCURVE",
"45 16 OFFCURVE",
"45 0 CURVE",
"526 0 LINE",
"526 149 LINE",
"515 164 OFFCURVE",
"507 168 OFFCURVE",
"480 168 CURVE",
"459 46 LINE",
"210 67 LINE",
"210 579 LINE"
);
}
);
};
layerId = "A9E90CC4-8E6C-407E-8E88-16513AA8D05B";
paths = (
{
closed = 1;
nodes = (
"526 0 LINE",
"526 149 LINE",
"515 164 OFFCURVE",
"507 168 OFFCURVE",
"480 168 CURVE",
"457 36 LINE",
"469 45 LINE",
"199 68 LINE",
"210 57 LINE",
"210 589 LINE",
"200 576 LINE",
"284 602 LINE SMOOTH",
"296 606 OFFCURVE",
"300 625 OFFCURVE",
"300 641 CURVE",
"64 641 LINE",
"49 630 OFFCURVE",
"45 622 OFFCURVE",
"45 595 CURVE",
"134 571 LINE",
"124 584 LINE",
"124 52 LINE",
"134 66 LINE",
"61 39 LINE SMOOTH",
"49 35 OFFCURVE",
"45 16 OFFCURVE",
"45 0 CURVE"
);
}
);
width = 545;
},
{
anchors = (
{
name = bottom;
position = "{313, 0}";
},
{
name = center;
position = "{166, 321}";
},
{
name = top;
position = "{166, 641}";
},
{
name = topright;
position = "{327, 443}";
}
);
layerId = "E1BF09ED-4302-4AD3-9939-8FDA35DE0FE8";
paths = (
{
closed = 1;
nodes = (
"507 0 LINE",
"507 108 LINE SMOOTH",
"507 115 OFFCURVE",
"499 121 OFFCURVE",
"484 121 CURVE",
"469 7 LINE",
"482 16 LINE",
"171 34 LINE",
"181 23 LINE",
"181 619 LINE",
"171 607 LINE",
"235 621 LINE SMOOTH",
"246 623 OFFCURVE",
"251 629 OFFCURVE",
"251 641 CURVE",
"98 641 LINE SMOOTH",
"84 641 OFFCURVE",
"81 637 OFFCURVE",
"81 623 CURVE",
"162 607 LINE",
"148 618 LINE",
"148 23 LINE",
"161 34 LINE",
"97 20 LINE SMOOTH",
"86 18 OFFCURVE",
"81 12 OFFCURVE",
"81 0 CURVE"
);
}
);
width = 545;
},
{
anchors = (
{
name = bottom;
position = "{321, 0}";
},
{
name = center;
position = "{199, 321}";
},
{
name = top;
position = "{199, 641}";
},
{
name = topright;
position = "{403, 443}";
}
);
layerId = "7B53E429-1BF0-49C5-9F57-63EEBF39C6CC";
paths = (
{
closed = 1;
nodes = (
"570 0 LINE",
"570 183 LINE",
"543 200 OFFCURVE",
"520 205 OFFCURVE",
"494 205 CURVE",
"460 72 LINE",
"472 94 LINE",
"283 112 LINE",
"293 101 LINE",
"293 571 LINE",
"273 545 LINE",
"358 572 LINE SMOOTH",
"368 575 OFFCURVE",
"374 602 OFFCURVE",
"374 641 CURVE",
"60 641 LINE",
"43 614 OFFCURVE",
"38 591 OFFCURVE",
"38 565 CURVE",
"129 541 LINE",
"107 566 LINE",
"107 70 LINE",
"128 96 LINE",
"54 69 LINE SMOOTH",
"44 65 OFFCURVE",
"38 39 OFFCURVE",
"38 0 CURVE"
);
}
);
width = 611;
}
);
leftKerningGroup = H;
leftMetricsKey = H;
rightKerningGroup = L;
unicode = 004C;
},
{
color = 1;
glyphname = Lslash;
layers = (
{
background = {
paths = (
{
closed = 1;
nodes = (
"213 67 LINE",
"213 323 LINE",
"343 346 LINE",
"343 351 LINE SMOOTH",
"343 362 OFFCURVE",
"339 375 OFFCURVE",
"328 384 CURVE",
"213 363 LINE",
"213 579 LINE",
"287 602 LINE SMOOTH",
"299 606 OFFCURVE",
"303 625 OFFCURVE",
"303 641 CURVE",
"67 641 LINE",
"52 630 OFFCURVE",
"48 622 OFFCURVE",
"48 595 CURVE",
"127 574 LINE",
"127 348 LINE",
"48 334 LINE",
"48 331 LINE SMOOTH",
"48 320 OFFCURVE",
"52 305 OFFCURVE",
"63 296 CURVE",
"127 307 LINE",
"127 62 LINE",
"64 39 LINE SMOOTH",
"52 35 OFFCURVE",
"48 16 OFFCURVE",
"48 0 CURVE",
"529 0 LINE",
"529 149 LINE",
"518 164 OFFCURVE",
"510 168 OFFCURVE",
"483 168 CURVE",
"462 46 LINE"
);
}
);
};
components = (
{
name = L;
},
{
name = slashshortcomb;
transform = "{1, 0, 0, 1, 39, -13}";
}
);
layerId = "A9E90CC4-8E6C-407E-8E88-16513AA8D05B";
width = 545;
},
{
components = (
{
name = L;
},
{
name = slashshortcomb;
transform = "{1, 0, 0, 1, 66, -14}";
}
);
layerId = "E1BF09ED-4302-4AD3-9939-8FDA35DE0FE8";
width = 545;
},
{
components = (
{
name = L;
},
{
name = slashshortcomb;
transform = "{1, 0, 0, 1, 21, -22}";
}
);
layerId = "7B53E429-1BF0-49C5-9F57-63EEBF39C6CC";
width = 611;
}
);
leftKerningGroup = H;
rightKerningGroup = L;
unicode = 0141;
},
{
color = 4;
glyphname = M;
layers = (
{
anchors = (
{
name = bottom;
position = "{444, 0}";
},
{
name = top;
position = "{444, 641}";
}
);
background = {
paths = (
{
closed = 1;
nodes = (
"448 151 LINE",
"260 641 LINE",
"92 641 LINE",
"77 630 OFFCURVE",
"73 622 OFFCURVE",
"73 595 CURVE",
"152 574 LINE",
"105 63 LINE",
"43 40 LINE SMOOTH",
"30 35 OFFCURVE",
"27 17 OFFCURVE",
"27 0 CURVE",
"234 0 LINE",
"250 12 OFFCURVE",
"254 19 OFFCURVE",
"254 46 CURVE",
"164 67 LINE",
"207 544 LINE",
"415 4 LINE",
"420 0 OFFCURVE",
"424 -3 OFFCURVE",
"435 -3 CURVE SMOOTH",
"444 -3 OFFCURVE",
"454 6 OFFCURVE",
"460 23 CURVE SMOOTH",
"651 544 LINE",
"690 63 LINE",
"627 40 LINE SMOOTH",
"615 35 OFFCURVE",
"611 14 OFFCURVE",
"611 0 CURVE",
"846 0 LINE",
"861 12 OFFCURVE",
"866 19 OFFCURVE",
"866 46 CURVE",
"775 67 LINE",
"734 579 LINE",
"808 602 LINE SMOOTH",
"820 606 OFFCURVE",
"824 625 OFFCURVE",
"824 641 CURVE",
"623 641 LINE"
);
}
);
};
layerId = "A9E90CC4-8E6C-407E-8E88-16513AA8D05B";
paths = (
{
closed = 1;
nodes = (
"444 -3 OFFCURVE",
"454 6 OFFCURVE",
"460 23 CURVE SMOOTH",
"662 584 LINE",
"649 584 LINE",
"692 53 LINE",
"700 67 LINE",
"627 40 LINE SMOOTH",
"615 36 OFFCURVE",
"611 14 OFFCURVE",
"611 0 CURVE",
"846 0 LINE",
"861 12 OFFCURVE",
"866 19 OFFCURVE",
"866 46 CURVE",
"765 70 LINE",
"776 57 LINE",
"733 589 LINE",
"724 576 LINE",
"808 602 LINE SMOOTH",
"820 606 OFFCURVE",
"824 625 OFFCURVE",
"824 641 CURVE",
"623 641 LINE",
"436 121 LINE",
"458 121 LINE",
"257 641 LINE",
"92 641 LINE",
"77 630 OFFCURVE",
"73 622 OFFCURVE",
"73 595 CURVE",
"162 571 LINE",
"153 584 LINE",
"104 53 LINE",
"115 67 LINE",
"43 40 LINE SMOOTH",
"30 35 OFFCURVE",
"27 17 OFFCURVE",
"27 0 CURVE",
"234 0 LINE",
"250 12 OFFCURVE",
"254 19 OFFCURVE",
"254 46 CURVE",
"154 70 LINE",
"161 57 LINE",
"208 574 LINE",
"195 574 LINE",
"415 4 LINE",
"420 0 OFFCURVE",
"424 -3 OFFCURVE",
"435 -3 CURVE SMOOTH"
);
}
);
width = 887;
},
{
anchors = (
{
name = bottom;
position = "{444, 0}";
},
{
name = top;
position = "{444, 641}";
}
);
layerId = "E1BF09ED-4302-4AD3-9939-8FDA35DE0FE8";
paths = (
{
closed = 1;
nodes = (
"443 -3 OFFCURVE",
"447 0 OFFCURVE",
"452 14 CURVE SMOOTH",
"690 636 LINE",
"676 636 LINE",
"727 11 LINE",
"732 34 LINE",
"661 20 LINE SMOOTH",
"650 18 OFFCURVE",
"645 12 OFFCURVE",
"645 0 CURVE",
"816 0 LINE SMOOTH",
"830 0 OFFCURVE",
"833 4 OFFCURVE",
"833 18 CURVE",
"751 32 LINE",
"760 15 LINE",
"710 634 LINE",
"697 608 LINE",
"765 621 LINE SMOOTH",
"776 623 OFFCURVE",
"781 629 OFFCURVE",
"781 641 CURVE",
"670 641 LINE",
"441 41 LINE",
"456 41 LINE",
"228 641 LINE",
"135 641 LINE SMOOTH",
"121 641 OFFCURVE",
"118 637 OFFCURVE",
"118 623 CURVE",
"192 609 LINE",
"188 634 LINE",
"130 14 LINE",
"136 30 LINE",
"77 20 LINE SMOOTH",
"66 18 OFFCURVE",
"61 12 OFFCURVE",
"61 0 CURVE",
"203 0 LINE SMOOTH",
"217 0 OFFCURVE",
"220 4 OFFCURVE",
"220 18 CURVE",
"145 31 LINE",
"151 18 LINE",
"208 634 LINE",
"194 634 LINE",
"436 -1 LINE",
"438 -3 OFFCURVE",
"439 -3 OFFCURVE",
"440 -3 CURVE SMOOTH"
);
}
);
width = 887;
},
{
anchors = (
{
name = bottom;
position = "{468, 0}";
},
{
name = top;
position = "{468, 641}";
}
);
layerId = "7B53E429-1BF0-49C5-9F57-63EEBF39C6CC";
paths = (
{
closed = 1;
nodes = (
"461 -3 OFFCURVE",
"490 6 OFFCURVE",
"495 23 CURVE SMOOTH",
"666 564 LINE",
"623 564 LINE",
"665 53 LINE",
"693 97 LINE",
"613 70 LINE SMOOTH",
"603 67 OFFCURVE",
"597 40 OFFCURVE",
"597 1 CURVE",
"890 1 LINE",
"907 28 OFFCURVE",
"912 51 OFFCURVE",
"912 77 CURVE",
"826 101 LINE",
"845 57 LINE",
"802 589 LINE",
"765 545 LINE",
"855 572 LINE SMOOTH",
"865 575 OFFCURVE",
"871 602 OFFCURVE",
"871 641 CURVE",
"585 641 LINE",
"448 204 LINE",
"522 204 LINE",
"372 641 LINE",
"98 641 LINE",
"81 614 OFFCURVE",
"76 591 OFFCURVE",
"76 565 CURVE",
"167 541 LINE",
"158 584 LINE",
"109 53 LINE",
"131 97 LINE",
"46 70 LINE SMOOTH",
"36 67 OFFCURVE",
"30 40 OFFCURVE",
"30 1 CURVE",
"286 1 LINE",
"302 28 OFFCURVE",
"306 51 OFFCURVE",
"306 77 CURVE",
"200 101 LINE",
"210 57 LINE",
"255 554 LINE",
"210 554 LINE",
"402 4 LINE",
"407 0 OFFCURVE",
"431 -3 OFFCURVE",
"442 -3 CURVE SMOOTH"
);
}
);
width = 944;
}
);
leftKerningGroup = M;
rightKerningGroup = M;
unicode = 004D;
},
{
color = 4;
glyphname = N;
layers = (
{
anchors = (
{
name = bottom;
position = "{379, 0}";
},
{
name = top;
position = "{379, 641}";
}
);
background = {
paths = (
{
closed = 1;
nodes = (
"498 630 OFFCURVE",
"494 622 OFFCURVE",
"494 595 CURVE",
"573 574 LINE",
"573 157 LINE",
"215 641 LINE",
"64 641 LINE",
"49 630 OFFCURVE",
"45 622 OFFCURVE",
"45 595 CURVE",
"124 574 LINE",
"124 62 LINE",
"61 39 LINE SMOOTH",
"49 35 OFFCURVE",
"45 16 OFFCURVE",
"45 0 CURVE",
"255 0 LINE",
"270 11 OFFCURVE",
"274 19 OFFCURVE",
"274 46 CURVE",
"184 67 LINE",
"184 535 LINE",
"580 3 LINE",
"587 -1 OFFCURVE",
"594 -3 OFFCURVE",
"603 -3 CURVE SMOOTH",
"618 -3 OFFCURVE",
"633 6 OFFCURVE",
"633 27 CURVE SMOOTH",
"633 579 LINE",
"702 602 LINE SMOOTH",
"714 606 OFFCURVE",
"718 625 OFFCURVE",
"718 641 CURVE",
"513 641 LINE"
);
}
);
};
layerId = "A9E90CC4-8E6C-407E-8E88-16513AA8D05B";
paths = (
{
closed = 1;
nodes = (
"618 -3 OFFCURVE",
"633 6 OFFCURVE",
"633 27 CURVE SMOOTH",
"633 589 LINE",
"623 576 LINE",
"702 602 LINE SMOOTH",
"714 606 OFFCURVE",
"718 625 OFFCURVE",
"718 641 CURVE",
"513 641 LINE",
"498 630 OFFCURVE",
"494 622 OFFCURVE",
"494 595 CURVE",
"593 568 LINE",
"577 584 LINE",
"577 130 LINE",
"588 130 LINE",
"215 641 LINE",
"64 641 LINE",
"49 630 OFFCURVE",
"45 622 OFFCURVE",
"45 595 CURVE",
"134 571 LINE",
"124 584 LINE",
"124 52 LINE",
"134 66 LINE",
"61 39 LINE SMOOTH",
"49 35 OFFCURVE",
"45 16 OFFCURVE",
"45 0 CURVE",
"255 0 LINE",
"270 11 OFFCURVE",
"274 19 OFFCURVE",
"274 46 CURVE",
"164 71 LINE",
"180 37 LINE",
"180 564 LINE",
"169 564 LINE",
"580 3 LINE",
"587 -1 OFFCURVE",
"594 -3 OFFCURVE",
"603 -3 CURVE SMOOTH"
);
}
);
width = 743;
},
{
anchors = (
{
name = bottom;
position = "{383, 0}";
},
{
name = top;
position = "{383, 641}";
}
);
layerId = "E1BF09ED-4302-4AD3-9939-8FDA35DE0FE8";
paths = (
{
closed = 1;
nodes = (
"614 -1 OFFCURVE",
"617 7 OFFCURVE",
"617 12 CURVE SMOOTH",
"617 623 LINE",
"611 611 LINE",
"670 621 LINE SMOOTH",
"681 623 OFFCURVE",
"686 629 OFFCURVE",
"686 641 CURVE",
"544 641 LINE SMOOTH",
"530 641 OFFCURVE",
"527 637 OFFCURVE",
"527 623 CURVE",
"602 610 LINE",
"597 623 LINE",
"597 38 LINE",
"608 38 LINE",
"187 641 LINE",
"98 641 LINE SMOOTH",
"84 641 OFFCURVE",
"81 637 OFFCURVE",
"81 623 CURVE",
"155 609 LINE",
"151 617 LINE",
"151 12 LINE",
"156 30 LINE",
"97 20 LINE SMOOTH",
"86 18 OFFCURVE",
"81 12 OFFCURVE",
"81 0 CURVE",
"223 0 LINE SMOOTH",
"237 0 OFFCURVE",
"240 4 OFFCURVE",
"240 18 CURVE",
"165 31 LINE",
"171 17 LINE",
"171 618 LINE",
"164 617 LINE",
"594 1 LINE",
"596 0 OFFCURVE",
"599 -1 OFFCURVE",
"604 -1 CURVE SMOOTH"
);
}
);
width = 740;
},
{
anchors = (
{
name = bottom;
position = "{400, 0}";
},
{
name = top;
position = "{400, 641}";
}
);
layerId = "7B53E429-1BF0-49C5-9F57-63EEBF39C6CC";
paths = (
{
closed = 1;
nodes = (
"611 -3 OFFCURVE",
"671 6 OFFCURVE",
"671 37 CURVE SMOOTH",
"671 589 LINE",
"648 545 LINE",
"738 572 LINE SMOOTH",
"748 575 OFFCURVE",
"754 602 OFFCURVE",
"754 641 CURVE",
"488 641 LINE",
"472 614 OFFCURVE",
"468 591 OFFCURVE",
"468 565 CURVE",
"579 541 LINE",
"571 584 LINE",
"571 137 LINE",
"630 158 LINE",
"262 641 LINE",
"58 641 LINE",
"42 614 OFFCURVE",
"38 591 OFFCURVE",
"38 565 CURVE",
"149 541 LINE",
"122 584 LINE",
"122 52 LINE",
"144 96 LINE",
"54 69 LINE SMOOTH",
"44 66 OFFCURVE",
"38 39 OFFCURVE",
"38 0 CURVE",
"304 0 LINE",
"320 27 OFFCURVE",
"324 50 OFFCURVE",
"324 76 CURVE",
"213 100 LINE",
"222 57 LINE",
"222 439 LINE",
"202 422 LINE",
"523 3 LINE",
"540 -1 OFFCURVE",
"567 -3 OFFCURVE",
"596 -3 CURVE SMOOTH"
);
}
);
width = 780;
}
);
leftKerningGroup = H;
leftMetricsKey = H;
rightKerningGroup = N;
rightMetricsKey = "=H*.7";
unicode = 004E;
},
{
color = 4;
glyphname = Eng;
layers = (
{
layerId = "E1BF09ED-4302-4AD3-9939-8FDA35DE0FE8";
paths = (
{
closed = 1;
nodes = (
"560 -184 OFFCURVE",
"617 -33 OFFCURVE",
"617 119 CURVE SMOOTH",
"617 623 LINE",
"611 611 LINE",
"670 621 LINE SMOOTH",
"681 623 OFFCURVE",
"686 629 OFFCURVE",
"686 641 CURVE",
"544 641 LINE SMOOTH",
"530 641 OFFCURVE",
"527 637 OFFCURVE",
"527 623 CURVE",
"602 610 LINE",
"599 623 LINE",
"599 61 LINE",
"604 68 LINE",
"187 641 LINE",
"98 641 LINE SMOOTH",
"84 641 OFFCURVE",
"81 637 OFFCURVE",
"81 623 CURVE",
"155 609 LINE",
"151 617 LINE",
"151 12 LINE",
"156 30 LINE",
"97 20 LINE SMOOTH",
"86 18 OFFCURVE",
"81 12 OFFCURVE",
"81 0 CURVE",
"223 0 LINE SMOOTH",
"237 0 OFFCURVE",
"240 4 OFFCURVE",
"240 18 CURVE",
"165 31 LINE",
"169 17 LINE",
"169 618 LINE",
"164 617 LINE",
"591 30 LINE",
"590 40 LINE",
"582 -97 OFFCURVE",
"533 -149 OFFCURVE",
"415 -149 CURVE",
"413 -152 OFFCURVE",
"412 -155 OFFCURVE",
"412 -159 CURVE SMOOTH",
"412 -174 OFFCURVE",
"432 -184 OFFCURVE",
"455 -184 CURVE SMOOTH"
);
}
);
width = 732;
},
{
background = {
paths = (
{
closed = 1;
nodes = (
"547 67 LINE",
"547 -104 OFFCURVE",
"503 -105 OFFCURVE",
"392 -105 CURVE",
"382 -117 OFFCURVE",
"380 -131 OFFCURVE",
"380 -138 CURVE SMOOTH",
"380 -165 OFFCURVE",
"406 -183 OFFCURVE",
"435 -183 CURVE SMOOTH",
"525 -183 OFFCURVE",
"633 -13 OFFCURVE",
"633 169 CURVE"
);
},
{
closed = 1;
nodes = (
"633 169 LINE",
"633 589 LINE",
"623 576 LINE",
"702 602 LINE SMOOTH",
"714 606 OFFCURVE",
"718 625 OFFCURVE",
"718 641 CURVE",
"513 641 LINE",
"498 630 OFFCURVE",
"494 622 OFFCURVE",
"494 595 CURVE",
"583 571 LINE",
"573 584 LINE",
"573 137 LINE",
"588 137 LINE",
"215 641 LINE",
"64 641 LINE",
"49 630 OFFCURVE",
"45 622 OFFCURVE",
"45 595 CURVE",
"134 571 LINE",
"124 584 LINE",
"124 52 LINE",
"134 66 LINE",
"61 39 LINE SMOOTH",
"49 35 OFFCURVE",
"45 16 OFFCURVE",
"45 0 CURVE",
"255 0 LINE",
"270 11 OFFCURVE",
"274 19 OFFCURVE",
"274 46 CURVE",
"174 69 LINE",
"184 57 LINE",
"184 555 LINE",
"169 555 LINE",
"580 3 LINE"
);
}
);
};
layerId = "A9E90CC4-8E6C-407E-8E88-16513AA8D05B";
paths = (
{
closed = 1;
nodes = (
"525 -183 OFFCURVE",
"633 -13 OFFCURVE",
"633 169 CURVE SMOOTH",
"633 589 LINE",
"623 576 LINE",
"702 602 LINE SMOOTH",
"714 606 OFFCURVE",
"718 625 OFFCURVE",
"718 641 CURVE",
"513 641 LINE",
"498 630 OFFCURVE",
"494 622 OFFCURVE",
"494 595 CURVE",
"583 571 LINE",
"573 584 LINE",
"573 137 LINE",
"588 137 LINE",
"215 641 LINE",
"64 641 LINE",
"49 630 OFFCURVE",
"45 622 OFFCURVE",
"45 595 CURVE",
"134 571 LINE",
"124 584 LINE",
"124 52 LINE",
"134 66 LINE",
"61 39 LINE SMOOTH",
"49 35 OFFCURVE",
"45 16 OFFCURVE",
"45 0 CURVE",
"255 0 LINE",
"270 11 OFFCURVE",
"274 19 OFFCURVE",
"274 46 CURVE",
"174 69 LINE",
"184 57 LINE",
"184 555 LINE",
"169 555 LINE",
"558 33 LINE",
"547 68 LINE",
"546 -104 OFFCURVE",
"503 -105 OFFCURVE",
"392 -105 CURVE",
"382 -117 OFFCURVE",
"380 -131 OFFCURVE",
"380 -138 CURVE SMOOTH",
"380 -165 OFFCURVE",
"406 -183 OFFCURVE",
"435 -183 CURVE SMOOTH"
);
}
);
width = 739;
},
{
layerId = "7B53E429-1BF0-49C5-9F57-63EEBF39C6CC";
paths = (
{
closed = 1;
nodes = (
"520 -193 OFFCURVE",
"671 -23 OFFCURVE",
"671 159 CURVE SMOOTH",
"671 589 LINE",
"648 545 LINE",
"738 572 LINE SMOOTH",
"748 575 OFFCURVE",
"754 602 OFFCURVE",
"754 641 CURVE",
"488 641 LINE",
"472 614 OFFCURVE",
"468 591 OFFCURVE",
"468 565 CURVE",
"579 541 LINE",
"566 584 LINE",
"566 180 LINE",
"593 188 LINE",
"262 641 LINE",
"58 641 LINE",
"42 614 OFFCURVE",
"38 591 OFFCURVE",
"38 565 CURVE",
"149 541 LINE",
"122 584 LINE",
"122 52 LINE",
"144 96 LINE",
"54 69 LINE SMOOTH",
"44 66 OFFCURVE",
"38 39 OFFCURVE",
"38 0 CURVE",
"304 0 LINE",
"320 27 OFFCURVE",
"324 50 OFFCURVE",
"324 76 CURVE",
"213 100 LINE",
"227 57 LINE",
"227 439 LINE",
"202 439 LINE",
"541 -10 LINE",
"517 109 LINE",
"517 -45 OFFCURVE",
"504 -65 OFFCURVE",
"330 -65 CURVE",
"320 -77 OFFCURVE",
"318 -102 OFFCURVE",
"318 -114 CURVE SMOOTH",
"318 -161 OFFCURVE",
"354 -193 OFFCURVE",
"395 -193 CURVE SMOOTH"
);
}
);
width = 776;
}
);
leftKerningGroup = H;
leftMetricsKey = N;
rightKerningGroup = J;
rightMetricsKey = J;
unicode = 014A;
},
{
color = 1;
glyphname = Ntilde;
layers = (
{
background = {
paths = (
{
closed = 1;
nodes = (
"493 722 OFFCURVE",
"547 777 OFFCURVE",
"547 808 CURVE SMOOTH",
"547 817 OFFCURVE",
"544 825 OFFCURVE",
"537 833 CURVE",
"516 797 OFFCURVE",
"491 783 OFFCURVE",
"467 783 CURVE SMOOTH",
"420 783 OFFCURVE",
"369 824 OFFCURVE",
"320 824 CURVE SMOOTH",
"253 824 OFFCURVE",
"206 770 OFFCURVE",
"206 737 CURVE SMOOTH",
"206 730 OFFCURVE",
"209 722 OFFCURVE",
"216 714 CURVE",
"237 750 OFFCURVE",
"260 762 OFFCURVE",
"284 762 CURVE SMOOTH",
"330 762 OFFCURVE",
"379 722 OFFCURVE",
"427 722 CURVE SMOOTH"
);
},
{
closed = 1;
nodes = (
"498 630 OFFCURVE",
"494 622 OFFCURVE",
"494 595 CURVE",
"573 574 LINE",
"573 157 LINE",
"215 641 LINE",
"64 641 LINE",
"49 630 OFFCURVE",
"45 622 OFFCURVE",
"45 595 CURVE",
"124 574 LINE",
"124 62 LINE",
"61 39 LINE SMOOTH",
"49 35 OFFCURVE",
"45 16 OFFCURVE",
"45 0 CURVE",
"255 0 LINE",
"270 11 OFFCURVE",
"274 19 OFFCURVE",
"274 46 CURVE",
"184 67 LINE",
"184 535 LINE",
"580 3 LINE",
"587 -1 OFFCURVE",
"594 -3 OFFCURVE",
"603 -3 CURVE SMOOTH",
"618 -3 OFFCURVE",
"633 6 OFFCURVE",
"633 27 CURVE SMOOTH",
"633 579 LINE",
"702 602 LINE SMOOTH",
"714 606 OFFCURVE",
"718 625 OFFCURVE",
"718 641 CURVE",
"513 641 LINE"
);
}
);
};
components = (
{
name = N;
},
{
name = tildecomb.case;
transform = "{1, 0, 0, 1, 216, 198}";
}
);
layerId = "A9E90CC4-8E6C-407E-8E88-16513AA8D05B";
width = 743;
},
{
components = (
{
name = N;
},
{
name = tildecomb.case;
transform = "{1, 0, 0, 1, 245, 198}";
}
);
layerId = "E1BF09ED-4302-4AD3-9939-8FDA35DE0FE8";
width = 740;
},
{
components = (
{
name = N;
},
{
name = tildecomb.case;
transform = "{1, 0, 0, 1, 201, 198}";
}
);
layerId = "7B53E429-1BF0-49C5-9F57-63EEBF39C6CC";
width = 780;
}
);
leftKerningGroup = H;
rightKerningGroup = N;
unicode = 00D1;
},
{
color = 4;
glyphname = O;
layers = (
{
anchors = (
{
name = bottom;
position = "{370, 0}";
},
{
name = center;
position = "{370, 321}";
},
{
name = ogonek;
position = "{440, 0}";
},
{
name = top;
position = "{370, 641}";
},
{
name = topleft;
position = "{292, 641}";
},
{
name = topright;
position = "{489, 641}";
}
);
background = {
paths = (
{
closed = 1;
nodes = (
"571 -12 OFFCURVE",
"691 171 OFFCURVE",
"691 347 CURVE SMOOTH",
"691 506 OFFCURVE",
"593 655 OFFCURVE",
"378 655 CURVE SMOOTH",
"168 655 OFFCURVE",
"48 472 OFFCURVE",
"48 296 CURVE SMOOTH",
"48 139 OFFCURVE",
"145 -12 OFFCURVE",
"361 -12 CURVE SMOOTH"
);
},
{
closed = 1;
nodes = (
"226 37 OFFCURVE",
"149 172 OFFCURVE",
"149 326 CURVE SMOOTH",
"149 478 OFFCURVE",
"210 606 OFFCURVE",
"370 606 CURVE SMOOTH",
"512 606 OFFCURVE",
"589 472 OFFCURVE",
"589 317 CURVE SMOOTH",
"589 161 OFFCURVE",
"524 37 OFFCURVE",
"368 37 CURVE SMOOTH"
);
}
);
};
layerId = "A9E90CC4-8E6C-407E-8E88-16513AA8D05B";
paths = (
{
closed = 1;
nodes = (
"548 -12 OFFCURVE",
"691 146 OFFCURVE",
"691 346 CURVE SMOOTH",
"691 530 OFFCURVE",
"569 655 OFFCURVE",
"392 655 CURVE SMOOTH",
"193 655 OFFCURVE",
"48 498 OFFCURVE",
"48 297 CURVE SMOOTH",
"48 113 OFFCURVE",
"170 -12 OFFCURVE",
"348 -12 CURVE SMOOTH"
);
},
{
closed = 1;
nodes = (
"237 37 OFFCURVE",
"144 154 OFFCURVE",
"144 334 CURVE SMOOTH",
"144 502 OFFCURVE",
"226 606 OFFCURVE",
"359 606 CURVE SMOOTH",
"502 606 OFFCURVE",
"595 489 OFFCURVE",
"595 310 CURVE SMOOTH",
"595 141 OFFCURVE",
"513 37 OFFCURVE",
"378 37 CURVE SMOOTH"
);
}
);
width = 739;
},
{
anchors = (
{
name = bottom;
position = "{370, 0}";
},
{
name = center;
position = "{370, 321}";
},
{
name = ogonek;
position = "{434, 0}";
},
{
name = top;
position = "{370, 641}";
},
{
name = topleft;
position = "{301, 641}";
},
{
name = topright;
position = "{477, 641}";
}
);
guideLines = (
{
angle = 45;
position = "{648, 328}";
}
);
layerId = "E1BF09ED-4302-4AD3-9939-8FDA35DE0FE8";
paths = (
{
closed = 1;
nodes = (
"534 -12 OFFCURVE",
"668 152 OFFCURVE",
"668 348 CURVE SMOOTH",
"668 520 OFFCURVE",
"555 655 OFFCURVE",
"389 655 CURVE SMOOTH",
"217 655 OFFCURVE",
"71 501 OFFCURVE",
"71 297 CURVE SMOOTH",
"71 123 OFFCURVE",
"184 -12 OFFCURVE",
"350 -12 CURVE SMOOTH"
);
},
{
closed = 1;
nodes = (
"210 16 OFFCURVE",
"110 135 OFFCURVE",
"110 335 CURVE SMOOTH",
"110 510 OFFCURVE",
"227 626 OFFCURVE",
"357 626 CURVE SMOOTH",
"527 626 OFFCURVE",
"628 507 OFFCURVE",
"628 308 CURVE SMOOTH",
"628 142 OFFCURVE",
"523 16 OFFCURVE",
"380 16 CURVE SMOOTH"
);
}
);
width = 739;
},
{
anchors = (
{
name = bottom;
position = "{358, 0}";
},
{
name = center;
position = "{358, 321}";
},
{
name = ogonek;
position = "{430, 0}";
},
{
name = top;
position = "{358, 641}";
},
{
name = topleft;
position = "{278, 641}";
},
{
name = topright;
position = "{481, 641}";
}
);
layerId = "7B53E429-1BF0-49C5-9F57-63EEBF39C6CC";
paths = (
{
closed = 1;
nodes = (
"538 -12 OFFCURVE",
"690 141 OFFCURVE",
"690 345 CURVE SMOOTH",
"690 529 OFFCURVE",
"565 655 OFFCURVE",
"380 655 CURVE SMOOTH",
"177 655 OFFCURVE",
"25 501 OFFCURVE",
"25 298 CURVE SMOOTH",
"25 114 OFFCURVE",
"150 -12 OFFCURVE",
"336 -12 CURVE SMOOTH"
);
},
{
closed = 1;
nodes = (
"277 87 OFFCURVE",
"221 184 OFFCURVE",
"221 333 CURVE SMOOTH",
"221 472 OFFCURVE",
"270 556 OFFCURVE",
"353 556 CURVE SMOOTH",
"438 556 OFFCURVE",
"494 459 OFFCURVE",
"494 310 CURVE SMOOTH",
"494 171 OFFCURVE",
"445 87 OFFCURVE",
"362 87 CURVE SMOOTH"
);
}
);
width = 715;
}
);
leftKerningGroup = O;
rightKerningGroup = O;
unicode = 004F;
},
{
color = 1;
glyphname = Oacute;
layers = (
{
background = {
paths = (
{
closed = 1;
nodes = (
"571 -12 OFFCURVE",
"691 171 OFFCURVE",
"691 347 CURVE SMOOTH",
"691 506 OFFCURVE",
"593 655 OFFCURVE",
"378 655 CURVE SMOOTH",
"168 655 OFFCURVE",
"48 472 OFFCURVE",
"48 296 CURVE SMOOTH",
"48 139 OFFCURVE",
"145 -12 OFFCURVE",
"361 -12 CURVE SMOOTH"
);
},
{
closed = 1;
nodes = (
"226 37 OFFCURVE",
"149 172 OFFCURVE",
"149 326 CURVE SMOOTH",
"149 478 OFFCURVE",
"210 606 OFFCURVE",
"370 606 CURVE SMOOTH",
"512 606 OFFCURVE",
"589 472 OFFCURVE",
"589 317 CURVE SMOOTH",
"589 161 OFFCURVE",
"524 37 OFFCURVE",
"368 37 CURVE SMOOTH"
);
},
{
closed = 1;
nodes = (
"522 833 OFFCURVE",
"511 858 OFFCURVE",
"488 858 CURVE SMOOTH",
"457 858 OFFCURVE",
"404 825 OFFCURVE",
"268 743 CURVE",
"267 741 OFFCURVE",
"267 738 OFFCURVE",
"267 736 CURVE SMOOTH",
"267 728 OFFCURVE",
"271 721 OFFCURVE",
"281 715 CURVE",
"432 760 OFFCURVE",
"522 781 OFFCURVE",
"522 816 CURVE SMOOTH"
);
}
);
};
components = (
{
name = O;
},
{
name = acutecomb.case;
transform = "{1, 0, 0, 1, 256, 198}";
}
);
layerId = "A9E90CC4-8E6C-407E-8E88-16513AA8D05B";
width = 739;
},
{
components = (
{
name = O;
},
{
name = acutecomb.case;
transform = "{1, 0, 0, 1, 272, 198}";
}
);
layerId = "E1BF09ED-4302-4AD3-9939-8FDA35DE0FE8";
width = 739;
},
{
components = (
{
name = O;
},
{
name = acutecomb.case;
transform = "{1, 0, 0, 1, 211, 198}";
}
);
layerId = "7B53E429-1BF0-49C5-9F57-63EEBF39C6CC";
width = 715;
}
);
leftKerningGroup = O;
rightKerningGroup = O;
unicode = 00D3;
},
{
color = 1;
glyphname = Ocircumflex;
layers = (
{
background = {
paths = (
{
closed = 1;
nodes = (
"571 -12 OFFCURVE",
"691 171 OFFCURVE",
"691 347 CURVE SMOOTH",
"691 506 OFFCURVE",
"593 655 OFFCURVE",
"378 655 CURVE SMOOTH",
"168 655 OFFCURVE",
"48 472 OFFCURVE",
"48 296 CURVE SMOOTH",
"48 139 OFFCURVE",
"145 -12 OFFCURVE",
"361 -12 CURVE SMOOTH"
);
},
{
closed = 1;
nodes = (
"226 37 OFFCURVE",
"149 172 OFFCURVE",
"149 326 CURVE SMOOTH",
"149 478 OFFCURVE",
"210 606 OFFCURVE",
"370 606 CURVE SMOOTH",
"512 606 OFFCURVE",
"589 472 OFFCURVE",
"589 317 CURVE SMOOTH",
"589 161 OFFCURVE",
"524 37 OFFCURVE",
"368 37 CURVE SMOOTH"
);
},
{
closed = 1;
nodes = (
"399 854 OFFCURVE",
"384 858 OFFCURVE",
"375 858 CURVE SMOOTH",
"366 858 OFFCURVE",
"351 853 OFFCURVE",
"331 839 CURVE SMOOTH",
"194 743 LINE",
"194 743 OFFCURVE",
"193 740 OFFCURVE",
"193 737 CURVE SMOOTH",
"193 728 OFFCURVE",
"198 720 OFFCURVE",
"207 715 CURVE",
"375 787 LINE",
"543 715 LINE",
"552 720 OFFCURVE",
"557 728 OFFCURVE",
"557 737 CURVE SMOOTH",
"557 740 OFFCURVE",
"556 743 OFFCURVE",
"556 743 CURVE",
"419 839 LINE SMOOTH"
);
}
);
};
components = (
{
name = O;
},
{
name = circumflexcomb.case;
transform = "{1, 0, 0, 1, 222, 198}";
}
);
layerId = "A9E90CC4-8E6C-407E-8E88-16513AA8D05B";
width = 739;
},
{
components = (
{
name = O;
},
{
name = circumflexcomb.case;
transform = "{1, 0, 0, 1, 242, 198}";
}
);
layerId = "E1BF09ED-4302-4AD3-9939-8FDA35DE0FE8";
width = 739;
},
{
components = (
{
name = O;
},
{
name = circumflexcomb.case;
transform = "{1, 0, 0, 1, 174, 198}";
}
);
layerId = "7B53E429-1BF0-49C5-9F57-63EEBF39C6CC";
width = 715;
}
);
leftKerningGroup = O;
rightKerningGroup = O;
unicode = 00D4;
},
{
color = 1;
glyphname = Odieresis;
layers = (
{
background = {
paths = (
{
closed = 1;
nodes = (
"230 755 OFFCURVE",
"245 736 OFFCURVE",
"276 736 CURVE SMOOTH",
"300 736 OFFCURVE",
"323 757 OFFCURVE",
"323 782 CURVE SMOOTH",
"323 809 OFFCURVE",
"307 828 OFFCURVE",
"276 828 CURVE SMOOTH",
"253 828 OFFCURVE",
"230 807 OFFCURVE",
"230 782 CURVE SMOOTH"
);
},
{
closed = 1;
nodes = (
"437 755 OFFCURVE",
"452 736 OFFCURVE",
"483 736 CURVE SMOOTH",
"507 736 OFFCURVE",
"530 757 OFFCURVE",
"530 782 CURVE SMOOTH",
"530 809 OFFCURVE",
"514 828 OFFCURVE",
"483 828 CURVE SMOOTH",
"460 828 OFFCURVE",
"437 807 OFFCURVE",
"437 782 CURVE SMOOTH"
);
},
{
closed = 1;
nodes = (
"571 -12 OFFCURVE",
"691 171 OFFCURVE",
"691 347 CURVE SMOOTH",
"691 506 OFFCURVE",
"593 655 OFFCURVE",
"378 655 CURVE SMOOTH",
"168 655 OFFCURVE",
"48 472 OFFCURVE",
"48 296 CURVE SMOOTH",
"48 139 OFFCURVE",
"145 -12 OFFCURVE",
"361 -12 CURVE SMOOTH"
);
},
{
closed = 1;
nodes = (
"226 37 OFFCURVE",
"149 172 OFFCURVE",
"149 326 CURVE SMOOTH",
"149 478 OFFCURVE",
"210 606 OFFCURVE",
"370 606 CURVE SMOOTH",
"512 606 OFFCURVE",
"589 472 OFFCURVE",
"589 317 CURVE SMOOTH",
"589 161 OFFCURVE",
"524 37 OFFCURVE",
"368 37 CURVE SMOOTH"
);
}
);
};
components = (
{
name = O;
},
{
name = dieresiscomb.case;
transform = "{1, 0, 0, 1, 221, 198}";
}
);
layerId = "A9E90CC4-8E6C-407E-8E88-16513AA8D05B";
width = 739;
},
{
components = (
{
name = O;
},
{
name = dieresiscomb.case;
transform = "{1, 0, 0, 1, 269, 198}";
}
);
layerId = "E1BF09ED-4302-4AD3-9939-8FDA35DE0FE8";
width = 739;
},
{
components = (
{
name = O;
},
{
name = dieresiscomb.case;
transform = "{1, 0, 0, 1, 144, 198}";
}
);
layerId = "7B53E429-1BF0-49C5-9F57-63EEBF39C6CC";
width = 715;
}
);
leftKerningGroup = O;
rightKerningGroup = O;
unicode = 00D6;
},
{
color = 1;
glyphname = Ograve;
layers = (
{
background = {
paths = (
{
closed = 1;
nodes = (
"571 -12 OFFCURVE",
"691 171 OFFCURVE",
"691 347 CURVE SMOOTH",
"691 506 OFFCURVE",
"593 655 OFFCURVE",
"378 655 CURVE SMOOTH",
"168 655 OFFCURVE",
"48 472 OFFCURVE",
"48 296 CURVE SMOOTH",
"48 139 OFFCURVE",
"145 -12 OFFCURVE",
"361 -12 CURVE SMOOTH"
);
},
{
closed = 1;
nodes = (
"226 37 OFFCURVE",
"149 172 OFFCURVE",
"149 326 CURVE SMOOTH",
"149 478 OFFCURVE",
"210 606 OFFCURVE",
"370 606 CURVE SMOOTH",
"512 606 OFFCURVE",
"589 472 OFFCURVE",
"589 317 CURVE SMOOTH",
"589 161 OFFCURVE",
"524 37 OFFCURVE",
"368 37 CURVE SMOOTH"
);
},
{
closed = 1;
nodes = (
"219 781 OFFCURVE",
"309 760 OFFCURVE",
"460 715 CURVE",
"470 721 OFFCURVE",
"474 728 OFFCURVE",
"474 736 CURVE SMOOTH",
"474 738 OFFCURVE",
"474 741 OFFCURVE",
"473 743 CURVE",
"337 825 OFFCURVE",
"284 858 OFFCURVE",
"253 858 CURVE SMOOTH",
"230 858 OFFCURVE",
"219 833 OFFCURVE",
"219 816 CURVE SMOOTH"
);
}
);
};
components = (
{
name = O;
},
{
name = gravecomb.case;
transform = "{1, 0, 0, 1, 256, 198}";
}
);
layerId = "A9E90CC4-8E6C-407E-8E88-16513AA8D05B";
width = 739;
},
{
components = (
{
name = O;
},
{
name = gravecomb.case;
transform = "{1, 0, 0, 1, 272, 198}";
}
);
layerId = "E1BF09ED-4302-4AD3-9939-8FDA35DE0FE8";
width = 739;
},
{
components = (
{
name = O;
},
{
name = gravecomb.case;
transform = "{1, 0, 0, 1, 211, 198}";
}
);
layerId = "7B53E429-1BF0-49C5-9F57-63EEBF39C6CC";
width = 715;
}
);
leftKerningGroup = O;
rightKerningGroup = O;
unicode = 00D2;
},
{
color = 1;
glyphname = Oslash;
layers = (
{
background = {
paths = (
{
closed = 1;
nodes = (
"679 722 OFFCURVE",
"671 734 OFFCURVE",
"629 734 CURVE",
"545 616 LINE",
"500 641 OFFCURVE",
"446 655 OFFCURVE",
"378 655 CURVE SMOOTH",
"168 655 OFFCURVE",
"48 472 OFFCURVE",
"48 296 CURVE SMOOTH",
"48 204 OFFCURVE",
"80 118 OFFCURVE",
"148 59 CURVE",
"51 -78 LINE",
"59 -89 OFFCURVE",
"68 -100 OFFCURVE",
"110 -100 CURVE",
"199 24 LINE",
"242 1 OFFCURVE",
"296 -12 OFFCURVE",
"361 -12 CURVE SMOOTH",
"571 -12 OFFCURVE",
"691 171 OFFCURVE",
"691 347 CURVE SMOOTH",
"691 436 OFFCURVE",
"660 521 OFFCURVE",
"595 581 CURVE",
"688 712 LINE"
);
},
{
closed = 1;
nodes = (
"166 184 OFFCURVE",
"149 252 OFFCURVE",
"149 326 CURVE SMOOTH",
"149 478 OFFCURVE",
"210 606 OFFCURVE",
"370 606 CURVE SMOOTH",
"423 606 OFFCURVE",
"467 587 OFFCURVE",
"502 555 CURVE",
"200 131 LINE"
);
},
{
closed = 1;
nodes = (
"573 455 OFFCURVE",
"589 390 OFFCURVE",
"589 317 CURVE SMOOTH",
"589 162 OFFCURVE",
"524 37 OFFCURVE",
"368 37 CURVE SMOOTH",
"319 37 OFFCURVE",
"276 53 OFFCURVE",
"241 84 CURVE",
"542 506 LINE"
);
}
);
};
components = (
{
name = O;
},
{
name = slashlongcomb;
transform = "{1, 0, 0, 1, 61, 4}";
}
);
layerId = "A9E90CC4-8E6C-407E-8E88-16513AA8D05B";
width = 739;
},
{
components = (
{
name = O;
},
{
name = slashlongcomb;
transform = "{1, 0, 0, 1, 61, 4}";
}
);
layerId = "E1BF09ED-4302-4AD3-9939-8FDA35DE0FE8";
width = 739;
},
{
components = (
{
name = O;
},
{
name = slashlongcomb;
transform = "{1, 0, 0, 1, 49, 4}";
}
);
layerId = "7B53E429-1BF0-49C5-9F57-63EEBF39C6CC";
width = 715;
}
);
leftKerningGroup = O;
rightKerningGroup = O;
unicode = 00D8;
},
{
color = 1;
glyphname = Otilde;
layers = (
{
background = {
paths = (
{
closed = 1;
nodes = (
"492 722 OFFCURVE",
"546 777 OFFCURVE",
"546 808 CURVE SMOOTH",
"546 817 OFFCURVE",
"543 825 OFFCURVE",
"536 833 CURVE",
"515 797 OFFCURVE",
"490 783 OFFCURVE",
"466 783 CURVE SMOOTH",
"419 783 OFFCURVE",
"368 824 OFFCURVE",
"319 824 CURVE SMOOTH",
"252 824 OFFCURVE",
"205 770 OFFCURVE",
"205 737 CURVE SMOOTH",
"205 730 OFFCURVE",
"208 722 OFFCURVE",
"215 714 CURVE",
"236 750 OFFCURVE",
"259 762 OFFCURVE",
"283 762 CURVE SMOOTH",
"329 762 OFFCURVE",
"378 722 OFFCURVE",
"426 722 CURVE SMOOTH"
);
},
{
closed = 1;
nodes = (
"571 -12 OFFCURVE",
"691 171 OFFCURVE",
"691 347 CURVE SMOOTH",
"691 506 OFFCURVE",
"593 655 OFFCURVE",
"378 655 CURVE SMOOTH",
"168 655 OFFCURVE",
"48 472 OFFCURVE",
"48 296 CURVE SMOOTH",
"48 139 OFFCURVE",
"145 -12 OFFCURVE",
"361 -12 CURVE SMOOTH"
);
},
{
closed = 1;
nodes = (
"226 37 OFFCURVE",
"149 172 OFFCURVE",
"149 326 CURVE SMOOTH",
"149 478 OFFCURVE",
"210 606 OFFCURVE",
"370 606 CURVE SMOOTH",
"512 606 OFFCURVE",
"589 472 OFFCURVE",
"589 317 CURVE SMOOTH",
"589 161 OFFCURVE",
"524 37 OFFCURVE",
"368 37 CURVE SMOOTH"
);
}
);
};
components = (
{
name = O;
},
{
name = tildecomb.case;
transform = "{1, 0, 0, 1, 207, 198}";
}
);
layerId = "A9E90CC4-8E6C-407E-8E88-16513AA8D05B";
width = 739;
},
{
components = (
{
name = O;
},
{
name = tildecomb.case;
transform = "{1, 0, 0, 1, 232, 198}";
}
);
layerId = "E1BF09ED-4302-4AD3-9939-8FDA35DE0FE8";
width = 739;
},
{
components = (
{
name = O;
},
{
name = tildecomb.case;
transform = "{1, 0, 0, 1, 159, 198}";
}
);
layerId = "7B53E429-1BF0-49C5-9F57-63EEBF39C6CC";
width = 715;
}
);
leftKerningGroup = O;
rightKerningGroup = O;
unicode = 00D5;
},
{
color = 1;
glyphname = OE;
layers = (
{
background = {
components = (
{
name = O;
},
{
name = E;
transform = "{1, 0, 0, 1, 379, 0}";
}
);
paths = (
{
closed = 1;
nodes = (
"392 -12 OFFCURVE",
"422 -8 OFFCURVE",
"450 0 CURVE",
"915 0 LINE",
"915 149 LINE",
"904 164 OFFCURVE",
"896 168 OFFCURVE",
"869 168 CURVE",
"838 46 LINE",
"589 67 LINE",
"589 299 LINE",
"779 299 LINE",
"799 239 LINE",
"822 239 OFFCURVE",
"827 242 OFFCURVE",
"838 255 CURVE",
"838 395 LINE",
"827 408 OFFCURVE",
"822 411 OFFCURVE",
"799 411 CURVE",
"779 351 LINE",
"589 351 LINE",
"589 579 LINE",
"812 595 LINE",
"845 504 LINE SMOOTH",
"849 492 OFFCURVE",
"868 488 OFFCURVE",
"884 488 CURVE",
"884 641 LINE",
"483 641 LINE",
"451 650 OFFCURVE",
"416 655 OFFCURVE",
"378 655 CURVE SMOOTH",
"168 655 OFFCURVE",
"48 472 OFFCURVE",
"48 296 CURVE SMOOTH",
"48 139 OFFCURVE",
"145 -12 OFFCURVE",
"361 -12 CURVE SMOOTH"
);
},
{
closed = 1;
nodes = (
"226 37 OFFCURVE",
"149 172 OFFCURVE",
"149 326 CURVE SMOOTH",
"149 478 OFFCURVE",
"210 606 OFFCURVE",
"370 606 CURVE SMOOTH",
"425 606 OFFCURVE",
"468 587 OFFCURVE",
"503 555 CURVE",
"503 82 LINE",
"468 54 OFFCURVE",
"425 37 OFFCURVE",
"368 37 CURVE SMOOTH"
);
}
);
};
components = (
{
name = O.OE;
},
{
name = E;
transform = "{1, 0, 0, 1, 328, 0}";
}
);
layerId = "A9E90CC4-8E6C-407E-8E88-16513AA8D05B";
width = 904;
},
{
components = (
{
name = O.OE;
},
{
name = E;
transform = "{1, 0, 0, 1, 290, 0}";
}
);
layerId = "E1BF09ED-4302-4AD3-9939-8FDA35DE0FE8";
width = 875;
},
{
components = (
{
name = O.OE;
},
{
name = E;
transform = "{1, 0, 0, 1, 320, 0}";
}
);
layerId = "7B53E429-1BF0-49C5-9F57-63EEBF39C6CC";
width = 952;
}
);
leftKerningGroup = O;
leftMetricsKey = O;
rightKerningGroup = E;
rightMetricsKey = E;
unicode = 0152;
},
{
color = 4;
glyphname = P;
layers = (
{
anchors = (
{
name = bottom;
position = "{277, 0}";
},
{
name = top;
position = "{277, 641}";
}
);
background = {
paths = (
{
closed = 1;
nodes = (
"61 39 LINE SMOOTH",
"49 35 OFFCURVE",
"45 16 OFFCURVE",
"45 0 CURVE",
"291 0 LINE",
"306 11 OFFCURVE",
"310 19 OFFCURVE",
"310 46 CURVE",
"210 67 LINE",
"210 272 LINE",
"234 266 OFFCURVE",
"258 263 OFFCURVE",
"289 263 CURVE SMOOTH",
"439 263 OFFCURVE",
"530 369 OFFCURVE",
"530 471 CURVE SMOOTH",
"530 559 OFFCURVE",
"461 641 OFFCURVE",
"312 641 CURVE SMOOTH",
"64 641 LINE",
"48 630 OFFCURVE",
"45 618 OFFCURVE",
"45 595 CURVE",
"124 574 LINE",
"124 62 LINE"
);
},
{
closed = 1;
nodes = (
"234 584 OFFCURVE",
"260 591 OFFCURVE",
"299 591 CURVE SMOOTH",
"390 591 OFFCURVE",
"432 528 OFFCURVE",
"432 461 CURVE SMOOTH",
"432 385 OFFCURVE",
"378 308 OFFCURVE",
"286 308 CURVE SMOOTH",
"250 308 OFFCURVE",
"228 311 OFFCURVE",
"210 316 CURVE",
"210 579 LINE"
);
}
);
};
layerId = "A9E90CC4-8E6C-407E-8E88-16513AA8D05B";
paths = (
{
closed = 1;
nodes = (
"291 0 LINE",
"306 11 OFFCURVE",
"310 20 OFFCURVE",
"310 46 CURVE",
"200 69 LINE",
"210 57 LINE",
"210 282 LINE",
"200 275 LINE",
"223 267 OFFCURVE",
"256 263 OFFCURVE",
"289 263 CURVE SMOOTH",
"430 263 OFFCURVE",
"528 348 OFFCURVE",
"528 471 CURVE SMOOTH",
"528 573 OFFCURVE",
"442 641 OFFCURVE",
"312 641 CURVE SMOOTH",
"64 641 LINE",
"49 631 OFFCURVE",
"45 620 OFFCURVE",
"45 595 CURVE",
"134 571 LINE",
"124 584 LINE",
"124 52 LINE",
"134 66 LINE",
"61 39 LINE SMOOTH",
"52 36 OFFCURVE",
"45 19 OFFCURVE",
"45 0 CURVE"
);
},
{
closed = 1;
nodes = (
"210 589 LINE",
"200 577 LINE",
"236 586 OFFCURVE",
"270 591 OFFCURVE",
"295 591 CURVE SMOOTH",
"378 591 OFFCURVE",
"432 540 OFFCURVE",
"432 461 CURVE SMOOTH",
"432 362 OFFCURVE",
"378 308 OFFCURVE",
"278 308 CURVE SMOOTH",
"250 308 OFFCURVE",
"214 313 OFFCURVE",
"200 319 CURVE",
"210 306 LINE"
);
}
);
width = 553;
},
{
anchors = (
{
name = bottom;
position = "{277, 0}";
},
{
name = top;
position = "{277, 641}";
}
);
layerId = "E1BF09ED-4302-4AD3-9939-8FDA35DE0FE8";
paths = (
{
closed = 1;
nodes = (
"244 0 LINE SMOOTH",
"258 0 OFFCURVE",
"261 4 OFFCURVE",
"261 18 CURVE",
"172 34 LINE",
"183 22 LINE",
"183 285 LINE",
"173 285 LINE",
"198 277 OFFCURVE",
"240 273 OFFCURVE",
"273 273 CURVE SMOOTH",
"430 273 OFFCURVE",
"516 376 OFFCURVE",
"516 475 CURVE SMOOTH",
"516 561 OFFCURVE",
"453 641 OFFCURVE",
"316 641 CURVE SMOOTH",
"99 641 LINE SMOOTH",
"86 641 OFFCURVE",
"83 637 OFFCURVE",
"83 623 CURVE",
"161 607 LINE",
"150 619 LINE",
"150 23 LINE",
"163 34 LINE",
"97 20 LINE SMOOTH",
"86 18 OFFCURVE",
"81 12 OFFCURVE",
"81 0 CURVE"
);
},
{
closed = 1;
nodes = (
"183 621 LINE",
"173 609 LINE",
"198 615 OFFCURVE",
"247 623 OFFCURVE",
"299 623 CURVE SMOOTH",
"406 623 OFFCURVE",
"475 561 OFFCURVE",
"475 457 CURVE SMOOTH",
"475 374 OFFCURVE",
"417 293 OFFCURVE",
"293 293 CURVE SMOOTH",
"245 293 OFFCURVE",
"194 298 OFFCURVE",
"173 307 CURVE",
"183 293 LINE"
);
}
);
width = 553;
},
{
anchors = (
{
name = bottom;
position = "{331, 0}";
},
{
name = top;
position = "{321, 641}";
}
);
layerId = "7B53E429-1BF0-49C5-9F57-63EEBF39C6CC";
paths = (
{
closed = 1;
nodes = (
"353 0 LINE",
"368 25 OFFCURVE",
"373 46 OFFCURVE",
"373 76 CURVE",
"261 100 LINE",
"293 57 LINE",
"293 242 LINE",
"264 242 LINE",
"303 229 OFFCURVE",
"340 223 OFFCURVE",
"374 223 CURVE SMOOTH",
"508 223 OFFCURVE",
"608 320 OFFCURVE",
"608 449 CURVE SMOOTH",
"608 566 OFFCURVE",
"525 641 OFFCURVE",
"398 641 CURVE SMOOTH",
"59 641 LINE",
"44 617 OFFCURVE",
"38 594 OFFCURVE",
"38 565 CURVE",
"129 541 LINE",
"107 566 LINE",
"107 70 LINE",
"128 96 LINE",
"54 69 LINE SMOOTH",
"44 65 OFFCURVE",
"38 39 OFFCURVE",
"38 0 CURVE"
);
},
{
closed = 1;
nodes = (
"293 549 LINE",
"270 531 LINE",
"299 538 OFFCURVE",
"315 541 OFFCURVE",
"330 541 CURVE SMOOTH",
"388 541 OFFCURVE",
"415 510 OFFCURVE",
"415 442 CURVE SMOOTH",
"415 368 OFFCURVE",
"385 327 OFFCURVE",
"331 327 CURVE SMOOTH",
"311 327 OFFCURVE",
"284 333 OFFCURVE",
"268 340 CURVE",
"293 315 LINE"
);
}
);
width = 649;
}
);
leftKerningGroup = H;
leftMetricsKey = H;
rightKerningGroup = P;
unicode = 0050;
},
{
color = 4;
glyphname = Thorn;
layers = (
{
layerId = "A9E90CC4-8E6C-407E-8E88-16513AA8D05B";
paths = (
{
closed = 1;
nodes = (
"281 0 LINE",
"296 11 OFFCURVE",
"300 19 OFFCURVE",
"300 46 CURVE",
"200 70 LINE",
"210 57 LINE",
"210 164 LINE",
"183 156 LINE",
"217 145 OFFCURVE",
"246 139 OFFCURVE",
"289 139 CURVE SMOOTH",
"439 139 OFFCURVE",
"530 245 OFFCURVE",
"530 347 CURVE SMOOTH",
"530 435 OFFCURVE",
"461 517 OFFCURVE",
"312 517 CURVE SMOOTH",
"195 517 LINE",
"210 502 LINE",
"210 589 LINE",
"200 576 LINE",
"284 602 LINE SMOOTH",
"296 606 OFFCURVE",
"300 625 OFFCURVE",
"300 641 CURVE",
"64 641 LINE",
"49 630 OFFCURVE",
"45 622 OFFCURVE",
"45 595 CURVE",
"134 572 LINE",
"124 584 LINE",
"124 52 LINE",
"134 65 LINE",
"61 39 LINE SMOOTH",
"49 35 OFFCURVE",
"45 16 OFFCURVE",
"45 0 CURVE"
);
},
{
closed = 1;
nodes = (
"210 480 LINE",
"186 451 LINE",
"218 459 OFFCURVE",
"247 467 OFFCURVE",
"299 467 CURVE SMOOTH",
"390 467 OFFCURVE",
"432 404 OFFCURVE",
"432 337 CURVE SMOOTH",
"432 260 OFFCURVE",
"377 184 OFFCURVE",
"285 184 CURVE SMOOTH",
"250 184 OFFCURVE",
"212 189 OFFCURVE",
"193 197 CURVE",
"210 182 LINE"
);
}
);
width = 540;
},
{
layerId = "E1BF09ED-4302-4AD3-9939-8FDA35DE0FE8";
paths = (
{
closed = 1;
nodes = (
"244 0 LINE SMOOTH",
"258 0 OFFCURVE",
"261 4 OFFCURVE",
"261 18 CURVE",
"170 34 LINE",
"181 22 LINE",
"181 159 LINE",
"172 152 LINE",
"197 145 OFFCURVE",
"238 141 OFFCURVE",
"271 141 CURVE SMOOTH",
"428 141 OFFCURVE",
"514 244 OFFCURVE",
"514 343 CURVE SMOOTH",
"514 429 OFFCURVE",
"451 509 OFFCURVE",
"314 509 CURVE SMOOTH",
"166 509 LINE",
"181 494 LINE",
"181 619 LINE",
"171 607 LINE",
"235 621 LINE SMOOTH",
"246 623 OFFCURVE",
"251 629 OFFCURVE",
"251 641 CURVE",
"98 641 LINE SMOOTH",
"84 641 OFFCURVE",
"81 637 OFFCURVE",
"81 623 CURVE",
"162 607 LINE",
"148 618 LINE",
"148 23 LINE",
"161 34 LINE",
"97 20 LINE SMOOTH",
"86 18 OFFCURVE",
"81 12 OFFCURVE",
"81 0 CURVE"
);
},
{
closed = 1;
nodes = (
"181 488 LINE",
"174 477 LINE",
"200 484 OFFCURVE",
"246 491 OFFCURVE",
"297 491 CURVE SMOOTH",
"404 491 OFFCURVE",
"473 429 OFFCURVE",
"473 325 CURVE SMOOTH",
"473 242 OFFCURVE",
"415 161 OFFCURVE",
"291 161 CURVE SMOOTH",
"247 161 OFFCURVE",
"202 165 OFFCURVE",
"177 173 CURVE",
"181 161 LINE"
);
}
);
width = 534;
},
{
background = {
paths = (
{
closed = 1;
nodes = (
"343 0 LINE",
"359 29 OFFCURVE",
"363 50 OFFCURVE",
"363 76 CURVE",
"261 100 LINE",
"293 75 LINE",
"293 571 LINE",
"262 545 LINE",
"347 572 LINE SMOOTH",
"357 575 OFFCURVE",
"363 602 OFFCURVE",
"363 641 CURVE",
"60 641 LINE",
"43 614 OFFCURVE",
"38 591 OFFCURVE",
"38 565 CURVE",
"129 541 LINE",
"107 566 LINE",
"107 70 LINE",
"128 96 LINE",
"54 69 LINE SMOOTH",
"44 65 OFFCURVE",
"38 39 OFFCURVE",
"38 0 CURVE"
);
}
);
};
layerId = "7B53E429-1BF0-49C5-9F57-63EEBF39C6CC";
paths = (
{
closed = 1;
nodes = (
"353 0 LINE",
"369 29 OFFCURVE",
"373 50 OFFCURVE",
"373 76 CURVE",
"261 100 LINE",
"293 57 LINE",
"293 138 LINE",
"283 128 LINE",
"316 120 OFFCURVE",
"348 116 OFFCURVE",
"376 116 CURVE SMOOTH",
"514 116 OFFCURVE",
"598 232 OFFCURVE",
"598 348 CURVE SMOOTH",
"598 444 OFFCURVE",
"530 534 OFFCURVE",
"388 534 CURVE SMOOTH",
"278 534 LINE",
"293 519 LINE",
"293 571 LINE",
"262 545 LINE",
"347 572 LINE",
"357 575 OFFCURVE",
"363 602 OFFCURVE",
"363 641 CURVE",
"59 641 LINE",
"43 614 OFFCURVE",
"38 591 OFFCURVE",
"38 565 CURVE",
"129 541 LINE",
"107 566 LINE",
"107 70 LINE",
"128 96 LINE",
"54 69 LINE SMOOTH",
"44 65 OFFCURVE",
"38 39 OFFCURVE",
"38 0 CURVE"
);
},
{
closed = 1;
nodes = (
"293 432 LINE",
"283 424 LINE",
"311 432 OFFCURVE",
"328 434 OFFCURVE",
"346 434 CURVE SMOOTH",
"385 434 OFFCURVE",
"405 386 OFFCURVE",
"405 335 CURVE SMOOTH",
"405 279 OFFCURVE",
"380 220 OFFCURVE",
"336 220 CURVE SMOOTH",
"321 220 OFFCURVE",
"305 220 OFFCURVE",
"283 227 CURVE",
"293 213 LINE"
);
}
);
width = 598;
}
);
leftKerningGroup = H;
leftMetricsKey = H;
rightKerningGroup = P;
unicode = 00DE;
},
{
color = 5;
glyphname = Q;
layers = (
{
background = {
paths = (
{
closed = 1;
nodes = (
"338 -12 OFFCURVE",
"351 -11 OFFCURVE",
"364 -9 CURVE",
"520 -82 OFFCURVE",
"772 -183 OFFCURVE",
"896 -183 CURVE SMOOTH",
"955 -183 OFFCURVE",
"979 -154 OFFCURVE",
"979 -129 CURVE SMOOTH",
"979 -120 OFFCURVE",
"976 -112 OFFCURVE",
"969 -105 CURVE",
"783 -105 OFFCURVE",
"539 -17 OFFCURVE",
"458 16 CURVE",
"584 74 OFFCURVE",
"655 213 OFFCURVE",
"655 347 CURVE SMOOTH",
"655 506 OFFCURVE",
"557 655 OFFCURVE",
"342 655 CURVE SMOOTH",
"132 655 OFFCURVE",
"12 472 OFFCURVE",
"12 296 CURVE SMOOTH",
"12 139 OFFCURVE",
"109 -12 OFFCURVE",
"325 -12 CURVE SMOOTH"
);
},
{
closed = 1;
nodes = (
"190 37 OFFCURVE",
"113 172 OFFCURVE",
"113 326 CURVE SMOOTH",
"113 478 OFFCURVE",
"174 606 OFFCURVE",
"334 606 CURVE SMOOTH",
"476 606 OFFCURVE",
"553 472 OFFCURVE",
"553 317 CURVE SMOOTH",
"553 161 OFFCURVE",
"488 37 OFFCURVE",
"332 37 CURVE SMOOTH"
);
}
);
};
components = (
{
name = O;
}
);
layerId = "A9E90CC4-8E6C-407E-8E88-16513AA8D05B";
paths = (
{
closed = 1;
nodes = (
"636 -182 OFFCURVE",
"675 -153 OFFCURVE",
"691 -105 CURVE",
"598 -105 OFFCURVE",
"474 -49 OFFCURVE",
"352 27 CURVE",
"327 3 LINE",
"465 -128 OFFCURVE",
"542 -182 OFFCURVE",
"597 -182 CURVE SMOOTH"
);
}
);
width = 739;
},
{
components = (
{
name = O;
}
);
layerId = "E1BF09ED-4302-4AD3-9939-8FDA35DE0FE8";
paths = (
{
closed = 1;
nodes = (
"636 -166 OFFCURVE",
"657 -151 OFFCURVE",
"668 -121 CURVE",
"575 -121 OFFCURVE",
"433 -61 OFFCURVE",
"356 10 CURVE",
"348 -7 LINE",
"431 -98 OFFCURVE",
"542 -166 OFFCURVE",
"608 -166 CURVE SMOOTH"
);
}
);
width = 739;
},
{
components = (
{
name = O;
}
);
layerId = "7B53E429-1BF0-49C5-9F57-63EEBF39C6CC";
paths = (
{
closed = 1;
nodes = (
"607 -207 OFFCURVE",
"665 -157 OFFCURVE",
"690 -73 CURVE",
"593 -73 OFFCURVE",
"461 -12 OFFCURVE",
"331 64 CURVE",
"286 14 LINE",
"420 -163 OFFCURVE",
"495 -207 OFFCURVE",
"549 -207 CURVE SMOOTH"
);
}
);
width = 715;
}
);
leftKerningGroup = O;
leftMetricsKey = O;
rightKerningGroup = Q;
unicode = 0051;
},
{
color = 4;
glyphname = R;
layers = (
{
anchors = (
{
name = bottom;
position = "{316, 0}";
},
{
name = top;
position = "{285, 641}";
}
);
background = {
paths = (
{
closed = 1;
nodes = (
"609 -12 OFFCURVE",
"627 7 OFFCURVE",
"627 24 CURVE",
"529 98 OFFCURVE",
"444 220 OFFCURVE",
"387 314 CURVE",
"315 303 LINE",
"397 140 OFFCURVE",
"487 -12 OFFCURVE",
"578 -12 CURVE SMOOTH"
);
},
{
closed = 1;
nodes = (
"291 0 LINE",
"306 11 OFFCURVE",
"310 20 OFFCURVE",
"310 46 CURVE",
"200 69 LINE",
"210 57 LINE",
"210 302 LINE",
"200 295 LINE",
"223 287 OFFCURVE",
"256 283 OFFCURVE",
"289 283 CURVE SMOOTH",
"430 283 OFFCURVE",
"528 364 OFFCURVE",
"528 481 CURVE SMOOTH",
"528 577 OFFCURVE",
"442 641 OFFCURVE",
"312 641 CURVE SMOOTH",
"64 641 LINE",
"49 631 OFFCURVE",
"45 620 OFFCURVE",
"45 595 CURVE",
"134 571 LINE",
"124 584 LINE",
"124 52 LINE",
"134 66 LINE",
"61 39 LINE SMOOTH",
"52 36 OFFCURVE",
"45 19 OFFCURVE",
"45 0 CURVE"
);
},
{
closed = 1;
nodes = (
"210 589 LINE",
"200 577 LINE",
"236 586 OFFCURVE",
"270 591 OFFCURVE",
"295 591 CURVE SMOOTH",
"378 591 OFFCURVE",
"432 544 OFFCURVE",
"432 471 CURVE SMOOTH",
"432 378 OFFCURVE",
"378 328 OFFCURVE",
"278 328 CURVE SMOOTH",
"250 328 OFFCURVE",
"214 333 OFFCURVE",
"200 339 CURVE",
"210 326 LINE"
);
},
{
closed = 1;
nodes = (
"585 -12 OFFCURVE",
"607 -3 OFFCURVE",
"624 11 CURVE",
"578 41 OFFCURVE",
"524 100 OFFCURVE",
"475 167 CURVE",
"409 143 LINE",
"487 9 OFFCURVE",
"521 -12 OFFCURVE",
"565 -12 CURVE SMOOTH"
);
}
);
};
guideLines = (
{
angle = 101.5442;
position = "{576, 246}";
}
);
layerId = "A9E90CC4-8E6C-407E-8E88-16513AA8D05B";
paths = (
{
closed = 1;
nodes = (
"291 0 LINE",
"306 11 OFFCURVE",
"310 20 OFFCURVE",
"310 46 CURVE",
"200 69 LINE",
"210 57 LINE",
"210 302 LINE",
"200 295 LINE",
"223 287 OFFCURVE",
"256 283 OFFCURVE",
"289 283 CURVE SMOOTH",
"430 283 OFFCURVE",
"528 364 OFFCURVE",
"528 481 CURVE SMOOTH",
"528 577 OFFCURVE",
"442 641 OFFCURVE",
"312 641 CURVE SMOOTH",
"64 641 LINE",
"49 631 OFFCURVE",
"45 620 OFFCURVE",
"45 595 CURVE",
"134 571 LINE",
"124 584 LINE",
"124 52 LINE",
"134 66 LINE",
"61 39 LINE SMOOTH",
"52 36 OFFCURVE",
"45 19 OFFCURVE",
"45 0 CURVE"
);
},
{
closed = 1;
nodes = (
"210 589 LINE",
"200 577 LINE",
"236 586 OFFCURVE",
"270 591 OFFCURVE",
"295 591 CURVE SMOOTH",
"378 591 OFFCURVE",
"432 544 OFFCURVE",
"432 471 CURVE SMOOTH",
"432 378 OFFCURVE",
"378 328 OFFCURVE",
"278 328 CURVE SMOOTH",
"250 328 OFFCURVE",
"214 333 OFFCURVE",
"200 339 CURVE",
"210 326 LINE"
);
},
{
closed = 1;
nodes = (
"584 -12 OFFCURVE",
"607 -3 OFFCURVE",
"624 11 CURVE",
"541 69 OFFCURVE",
"452 184 OFFCURVE",
"381 327 CURVE",
"315 303 LINE",
"425 61 OFFCURVE",
"484 -12 OFFCURVE",
"565 -12 CURVE SMOOTH"
);
}
);
width = 635;
},
{
anchors = (
{
name = bottom;
position = "{316, 0}";
},
{
name = top;
position = "{301, 641}";
}
);
guideLines = (
{
angle = 101.5442;
position = "{603, 11}";
}
);
layerId = "E1BF09ED-4302-4AD3-9939-8FDA35DE0FE8";
paths = (
{
closed = 1;
nodes = (
"244 0 LINE SMOOTH",
"258 0 OFFCURVE",
"261 4 OFFCURVE",
"261 18 CURVE",
"172 34 LINE",
"183 22 LINE",
"183 307 LINE",
"173 307 LINE",
"198 299 OFFCURVE",
"240 295 OFFCURVE",
"273 295 CURVE SMOOTH",
"424 295 OFFCURVE",
"506 391 OFFCURVE",
"506 485 CURVE SMOOTH",
"506 565 OFFCURVE",
"446 641 OFFCURVE",
"316 641 CURVE SMOOTH",
"99 641 LINE SMOOTH",
"86 641 OFFCURVE",
"83 637 OFFCURVE",
"83 623 CURVE",
"161 607 LINE",
"150 619 LINE",
"150 23 LINE",
"163 34 LINE",
"97 20 LINE SMOOTH",
"86 18 OFFCURVE",
"81 12 OFFCURVE",
"81 0 CURVE"
);
},
{
closed = 1;
nodes = (
"183 621 LINE",
"173 609 LINE",
"198 615 OFFCURVE",
"247 623 OFFCURVE",
"299 623 CURVE SMOOTH",
"400 623 OFFCURVE",
"465 565 OFFCURVE",
"465 468 CURVE SMOOTH",
"465 391 OFFCURVE",
"410 315 OFFCURVE",
"293 315 CURVE SMOOTH",
"245 315 OFFCURVE",
"194 320 OFFCURVE",
"173 329 CURVE",
"183 315 LINE"
);
},
{
closed = 1;
nodes = (
"594 -10 OFFCURVE",
"603 2 OFFCURVE",
"603 11 CURVE",
"546 32 OFFCURVE",
"434 157 OFFCURVE",
"334 313 CURVE",
"313 303 LINE",
"406 140 OFFCURVE",
"537 -10 OFFCURVE",
"578 -10 CURVE SMOOTH"
);
}
);
width = 626;
},
{
anchors = (
{
name = bottom;
position = "{344, 0}";
},
{
name = top;
position = "{319, 641}";
}
);
background = {
paths = (
{
closed = 1;
nodes = (
"343 0 LINE",
"358 25 OFFCURVE",
"363 46 OFFCURVE",
"363 76 CURVE",
"251 100 LINE",
"293 57 LINE",
"293 262 LINE",
"264 262 LINE",
"303 249 OFFCURVE",
"340 243 OFFCURVE",
"374 243 CURVE SMOOTH",
"508 243 OFFCURVE",
"608 336 OFFCURVE",
"608 459 CURVE SMOOTH",
"608 570 OFFCURVE",
"525 641 OFFCURVE",
"398 641 CURVE SMOOTH",
"59 641 LINE",
"44 617 OFFCURVE",
"38 594 OFFCURVE",
"38 565 CURVE",
"129 541 LINE",
"107 566 LINE",
"107 70 LINE",
"128 96 LINE",
"54 69 LINE SMOOTH",
"44 65 OFFCURVE",
"38 39 OFFCURVE",
"38 0 CURVE"
);
},
{
closed = 1;
nodes = (
"293 549 LINE",
"270 531 LINE",
"299 538 OFFCURVE",
"315 541 OFFCURVE",
"330 541 CURVE SMOOTH",
"388 541 OFFCURVE",
"415 514 OFFCURVE",
"415 452 CURVE SMOOTH",
"415 384 OFFCURVE",
"385 347 OFFCURVE",
"331 347 CURVE SMOOTH",
"311 347 OFFCURVE",
"284 353 OFFCURVE",
"268 360 CURVE",
"293 335 LINE"
);
},
{
closed = 1;
nodes = (
"340 293 LINE",
"402 67 OFFCURVE",
"453 -12 OFFCURVE",
"538 -12 CURVE SMOOTH",
"577 -12 OFFCURVE",
"626 5 OFFCURVE",
"670 33 CURVE",
"613 93 OFFCURVE",
"542 211 OFFCURVE",
"486 337 CURVE"
);
}
);
};
guideLines = (
{
angle = 101.5442;
position = "{608, 459}";
}
);
layerId = "7B53E429-1BF0-49C5-9F57-63EEBF39C6CC";
paths = (
{
closed = 1;
nodes = (
"343 0 LINE",
"358 25 OFFCURVE",
"363 46 OFFCURVE",
"363 76 CURVE",
"251 100 LINE",
"293 57 LINE",
"293 262 LINE",
"264 262 LINE",
"303 249 OFFCURVE",
"340 243 OFFCURVE",
"374 243 CURVE SMOOTH",
"508 243 OFFCURVE",
"608 336 OFFCURVE",
"608 459 CURVE SMOOTH",
"608 570 OFFCURVE",
"525 641 OFFCURVE",
"398 641 CURVE SMOOTH",
"59 641 LINE",
"44 617 OFFCURVE",
"38 594 OFFCURVE",
"38 565 CURVE",
"129 541 LINE",
"107 566 LINE",
"107 70 LINE",
"128 96 LINE",
"54 69 LINE SMOOTH",
"44 65 OFFCURVE",
"38 39 OFFCURVE",
"38 0 CURVE"
);
},
{
closed = 1;
nodes = (
"293 549 LINE",
"270 531 LINE",
"299 538 OFFCURVE",
"315 541 OFFCURVE",
"330 541 CURVE SMOOTH",
"388 541 OFFCURVE",
"415 514 OFFCURVE",
"415 452 CURVE SMOOTH",
"415 384 OFFCURVE",
"385 347 OFFCURVE",
"331 347 CURVE SMOOTH",
"311 347 OFFCURVE",
"284 353 OFFCURVE",
"268 360 CURVE",
"293 335 LINE"
);
},
{
closed = 1;
nodes = (
"602 -12 OFFCURVE",
"651 5 OFFCURVE",
"695 33 CURVE",
"619 93 OFFCURVE",
"544 207 OFFCURVE",
"491 337 CURVE",
"345 293 LINE",
"413 28 OFFCURVE",
"469 -12 OFFCURVE",
"563 -12 CURVE SMOOTH"
);
}
);
width = 706;
}
);
leftKerningGroup = H;
leftMetricsKey = H;
rightKerningGroup = R;
rightMetricsKey = "=H*.3";
unicode = 0052;
},
{
color = 4;
glyphname = S;
layers = (
{
anchors = (
{
name = bottom;
position = "{262, 0}";
},
{
name = top;
position = "{262, 641}";
}
);
background = {
paths = (
{
closed = 1;
nodes = (
"112 200 OFFCURVE",
"107 201 OFFCURVE",
"102 201 CURVE SMOOTH",
"87 201 OFFCURVE",
"68 194 OFFCURVE",
"59 185 CURVE",
"43 50 LINE",
"83 28 OFFCURVE",
"165 -12 OFFCURVE",
"266 -12 CURVE SMOOTH",
"398 -12 OFFCURVE",
"477 76 OFFCURVE",
"477 178 CURVE SMOOTH",
"477 405 OFFCURVE",
"150 346 OFFCURVE",
"150 500 CURVE SMOOTH",
"150 568 OFFCURVE",
"191 608 OFFCURVE",
"258 608 CURVE SMOOTH",
"322 608 OFFCURVE",
"353 581 OFFCURVE",
"368 570 CURVE",
"382 484 LINE SMOOTH",
"384 471 OFFCURVE",
"414 464 OFFCURVE",
"429 463 CURVE",
"448 599 LINE",
"413 617 OFFCURVE",
"346 655 OFFCURVE",
"258 655 CURVE SMOOTH",
"137 655 OFFCURVE",
"71 575 OFFCURVE",
"71 476 CURVE SMOOTH",
"71 257 OFFCURVE",
"385 322 OFFCURVE",
"385 157 CURVE SMOOTH",
"385 81 OFFCURVE",
"333 35 OFFCURVE",
"252 35 CURVE SMOOTH",
"190 35 OFFCURVE",
"142 63 OFFCURVE",
"127 76 CURVE",
"116 198 LINE"
);
}
);
};
guideLines = (
{
angle = 59.0362;
position = "{245, 295}";
}
);
layerId = "A9E90CC4-8E6C-407E-8E88-16513AA8D05B";
paths = (
{
closed = 1;
nodes = (
"398 -12 OFFCURVE",
"477 76 OFFCURVE",
"477 178 CURVE SMOOTH",
"477 298 OFFCURVE",
"379 335 OFFCURVE",
"290 369 CURVE SMOOTH",
"217 398 OFFCURVE",
"150 426 OFFCURVE",
"150 500 CURVE SMOOTH",
"150 568 OFFCURVE",
"191 608 OFFCURVE",
"258 608 CURVE SMOOTH",
"333 608 OFFCURVE",
"369 572 OFFCURVE",
"386 553 CURVE",
"364 590 LINE",
"382 484 LINE SMOOTH",
"384 471 OFFCURVE",
"414 464 OFFCURVE",
"429 463 CURVE",
"448 599 LINE",
"413 619 OFFCURVE",
"346 655 OFFCURVE",
"258 655 CURVE SMOOTH",
"137 655 OFFCURVE",
"71 575 OFFCURVE",
"71 476 CURVE SMOOTH",
"71 362 OFFCURVE",
"161 327 OFFCURVE",
"245 295 CURVE SMOOTH",
"317 265 OFFCURVE",
"385 237 OFFCURVE",
"385 157 CURVE SMOOTH",
"385 81 OFFCURVE",
"333 35 OFFCURVE",
"252 35 CURVE SMOOTH",
"175 35 OFFCURVE",
"122 77 OFFCURVE",
"107 90 CURVE",
"129 56 LINE",
"116 198 LINE",
"112 200 OFFCURVE",
"107 201 OFFCURVE",
"102 201 CURVE SMOOTH",
"87 201 OFFCURVE",
"68 194 OFFCURVE",
"59 185 CURVE",
"43 50 LINE",
"83 28 OFFCURVE",
"165 -12 OFFCURVE",
"266 -12 CURVE SMOOTH"
);
}
);
width = 523;
},
{
anchors = (
{
name = bottom;
position = "{262, 0}";
},
{
name = top;
position = "{262, 641}";
}
);
layerId = "E1BF09ED-4302-4AD3-9939-8FDA35DE0FE8";
paths = (
{
closed = 1;
nodes = (
"377 -12 OFFCURVE",
"457 62 OFFCURVE",
"457 169 CURVE SMOOTH",
"457 248 OFFCURVE",
"414 294 OFFCURVE",
"290 347 CURVE SMOOTH",
"159 403 OFFCURVE",
"120 441 OFFCURVE",
"120 512 CURVE SMOOTH",
"120 587 OFFCURVE",
"174 637 OFFCURVE",
"257 637 CURVE SMOOTH",
"310 637 OFFCURVE",
"368 617 OFFCURVE",
"400 588 CURVE",
"388 611 LINE",
"396 519 LINE SMOOTH",
"397 511 OFFCURVE",
"405 504 OFFCURVE",
"415 504 CURVE",
"428 614 LINE",
"363 642 OFFCURVE",
"309 655 OFFCURVE",
"263 655 CURVE SMOOTH",
"159 655 OFFCURVE",
"90 592 OFFCURVE",
"90 497 CURVE SMOOTH",
"90 418 OFFCURVE",
"133 373 OFFCURVE",
"258 318 CURVE SMOOTH",
"383 264 OFFCURVE",
"420 227 OFFCURVE",
"420 156 CURVE SMOOTH",
"420 69 OFFCURVE",
"356 7 OFFCURVE",
"267 7 CURVE SMOOTH",
"213 7 OFFCURVE",
"134 30 OFFCURVE",
"93 58 CURVE",
"108 17 LINE",
"103 159 LINE",
"100 161 OFFCURVE",
"94 162 OFFCURVE",
"90 162 CURVE SMOOTH",
"83 162 OFFCURVE",
"80 158 OFFCURVE",
"77 147 CURVE",
"67 35 LINE",
"130 7 OFFCURVE",
"210 -12 OFFCURVE",
"261 -12 CURVE SMOOTH"
);
}
);
width = 523;
},
{
anchors = (
{
name = bottom;
position = "{293, 0}";
},
{
name = top;
position = "{293, 641}";
}
);
background = {
paths = (
{
closed = 1;
nodes = (
"438 -12 OFFCURVE",
"536 75 OFFCURVE",
"536 208 CURVE SMOOTH",
"536 309 OFFCURVE",
"482 354 OFFCURVE",
"318 424 CURVE SMOOTH",
"237 458 OFFCURVE",
"214 474 OFFCURVE",
"214 506 CURVE SMOOTH",
"214 539 OFFCURVE",
"244 558 OFFCURVE",
"295 558 CURVE SMOOTH",
"353 558 OFFCURVE",
"401 538 OFFCURVE",
"423 503 CURVE",
"401 540 LINE",
"415 455 LINE SMOOTH",
"417 442 OFFCURVE",
"443 434 OFFCURVE",
"488 434 CURVE",
"508 604 LINE",
"461 632 OFFCURVE",
"370 655 OFFCURVE",
"304 655 CURVE SMOOTH",
"166 655 OFFCURVE",
"75 575 OFFCURVE",
"75 454 CURVE SMOOTH",
"75 362 OFFCURVE",
"123 312 OFFCURVE",
"274 248 CURVE SMOOTH",
"359 211 OFFCURVE",
"384 189 OFFCURVE",
"384 150 CURVE SMOOTH",
"384 109 OFFCURVE",
"350 85 OFFCURVE",
"293 85 CURVE SMOOTH",
"243 85 OFFCURVE",
"198 104 OFFCURVE",
"161 140 CURVE",
"176 106 LINE",
"163 246 LINE",
"154 249 OFFCURVE",
"144 251 OFFCURVE",
"134 251 CURVE SMOOTH",
"117 251 OFFCURVE",
"96 245 OFFCURVE",
"81 235 CURVE",
"47 45 LINE",
"109 13 OFFCURVE",
"216 -12 OFFCURVE",
"289 -12 CURVE SMOOTH"
);
}
);
};
guideLines = (
{
angle = 154.9037;
position = "{342, 407}";
}
);
layerId = "7B53E429-1BF0-49C5-9F57-63EEBF39C6CC";
paths = (
{
closed = 1;
nodes = (
"446 -12 OFFCURVE",
"536 61 OFFCURVE",
"536 184 CURVE SMOOTH",
"536 284 OFFCURVE",
"489 339 OFFCURVE",
"342 407 CURVE SMOOTH",
"245 453 OFFCURVE",
"224 469 OFFCURVE",
"224 501 CURVE SMOOTH",
"224 537 OFFCURVE",
"255 558 OFFCURVE",
"307 558 CURVE SMOOTH",
"363 558 OFFCURVE",
"411 537 OFFCURVE",
"433 503 CURVE",
"396 570 LINE",
"415 455 LINE SMOOTH",
"417 442 OFFCURVE",
"445 434 OFFCURVE",
"488 434 CURVE",
"508 604 LINE",
"457 634 OFFCURVE",
"370 655 OFFCURVE",
"298 655 CURVE SMOOTH",
"161 655 OFFCURVE",
"75 583 OFFCURVE",
"75 470 CURVE SMOOTH",
"75 367 OFFCURVE",
"120 309 OFFCURVE",
"249 248 CURVE SMOOTH",
"356 199 OFFCURVE",
"374 183 OFFCURVE",
"374 145 CURVE SMOOTH",
"374 110 OFFCURVE",
"338 85 OFFCURVE",
"288 85 CURVE SMOOTH",
"237 85 OFFCURVE",
"189 104 OFFCURVE",
"151 140 CURVE",
"176 106 LINE",
"163 237 LINE",
"156 240 OFFCURVE",
"146 241 OFFCURVE",
"134 241 CURVE SMOOTH",
"115 241 OFFCURVE",
"94 236 OFFCURVE",
"82 229 CURVE",
"47 45 LINE",
"108 12 OFFCURVE",
"213 -12 OFFCURVE",
"295 -12 CURVE SMOOTH"
);
}
);
width = 586;
}
);
leftKerningGroup = S;
rightKerningGroup = S;
unicode = 0053;
},
{
color = 1;
glyphname = Scaron;
layers = (
{
background = {
paths = (
{
closed = 1;
nodes = (
"90 858 LINE",
"81 853 OFFCURVE",
"76 845 OFFCURVE",
"76 836 CURVE SMOOTH",
"76 833 OFFCURVE",
"77 830 OFFCURVE",
"77 830 CURVE",
"214 734 LINE SMOOTH",
"232 721 OFFCURVE",
"247 715 OFFCURVE",
"256 715 CURVE SMOOTH",
"266 715 OFFCURVE",
"279 718 OFFCURVE",
"302 734 CURVE SMOOTH",
"439 830 LINE",
"439 830 OFFCURVE",
"440 833 OFFCURVE",
"440 836 CURVE SMOOTH",
"440 845 OFFCURVE",
"435 853 OFFCURVE",
"426 858 CURVE",
"258 786 LINE"
);
},
{
closed = 1;
nodes = (
"113 199 OFFCURVE",
"110 199 OFFCURVE",
"107 199 CURVE SMOOTH",
"83 199 OFFCURVE",
"70 196 OFFCURVE",
"59 185 CURVE",
"43 50 LINE",
"83 28 OFFCURVE",
"165 -12 OFFCURVE",
"266 -12 CURVE SMOOTH",
"400 -12 OFFCURVE",
"477 78 OFFCURVE",
"477 178 CURVE SMOOTH",
"477 405 OFFCURVE",
"150 346 OFFCURVE",
"150 500 CURVE SMOOTH",
"150 568 OFFCURVE",
"191 608 OFFCURVE",
"258 608 CURVE SMOOTH",
"322 608 OFFCURVE",
"353 581 OFFCURVE",
"368 570 CURVE",
"382 484 LINE SMOOTH",
"384 471 OFFCURVE",
"414 464 OFFCURVE",
"429 463 CURVE",
"448 599 LINE",
"413 617 OFFCURVE",
"346 655 OFFCURVE",
"258 655 CURVE SMOOTH",
"137 655 OFFCURVE",
"71 575 OFFCURVE",
"71 476 CURVE SMOOTH",
"71 257 OFFCURVE",
"385 322 OFFCURVE",
"385 157 CURVE SMOOTH",
"385 81 OFFCURVE",
"333 35 OFFCURVE",
"252 35 CURVE SMOOTH",
"190 35 OFFCURVE",
"142 63 OFFCURVE",
"127 76 CURVE",
"116 198 LINE"
);
}
);
};
components = (
{
name = S;
},
{
name = caroncomb.case;
transform = "{1, 0, 0, 1, 114, 198}";
}
);
layerId = "A9E90CC4-8E6C-407E-8E88-16513AA8D05B";
width = 523;
},
{
components = (
{
name = S;
},
{
name = caroncomb.case;
transform = "{1, 0, 0, 1, 134, 198}";
}
);
layerId = "E1BF09ED-4302-4AD3-9939-8FDA35DE0FE8";
width = 523;
},
{
components = (
{
name = S;
},
{
name = caroncomb.case;
transform = "{1, 0, 0, 1, 109, 198}";
}
);
layerId = "7B53E429-1BF0-49C5-9F57-63EEBF39C6CC";
width = 586;
}
);
leftKerningGroup = S;
rightKerningGroup = S;
unicode = 0160;
},
{
color = 4;
glyphname = Germandbls;
layers = (
{
layerId = "E1BF09ED-4302-4AD3-9939-8FDA35DE0FE8";
paths = (
{
closed = 1;
nodes = (
"544 -12 OFFCURVE",
"610 44 OFFCURVE",
"610 121 CURVE SMOOTH",
"610 182 OFFCURVE",
"573 219 OFFCURVE",
"469 260 CURVE SMOOTH",
"389 292 OFFCURVE",
"363 318 OFFCURVE",
"363 364 CURVE",
"543 501 LINE",
"543 589 OFFCURVE",
"472 655 OFFCURVE",
"377 655 CURVE SMOOTH",
"244 655 OFFCURVE",
"163 573 OFFCURVE",
"163 437 CURVE",
"172 445 LINE",
"90 443 LINE",
"83 437 OFFCURVE",
"81 432 OFFCURVE",
"81 421 CURVE",
"171 420 LINE",
"163 427 LINE",
"163 22 LINE",
"174 34 LINE",
"117 20 LINE SMOOTH",
"105 17 OFFCURVE",
"101 11 OFFCURVE",
"101 0 CURVE",
"196 0 LINE",
"195 389 LINE SMOOTH",
"195 559 OFFCURVE",
"248 632 OFFCURVE",
"369 632 CURVE SMOOTH",
"452 632 OFFCURVE",
"506 581 OFFCURVE",
"506 501 CURVE",
"329 351 LINE",
"329 300 OFFCURVE",
"367 262 OFFCURVE",
"450 230 CURVE SMOOTH",
"545 194 OFFCURVE",
"575 164 OFFCURVE",
"575 106 CURVE SMOOTH",
"575 42 OFFCURVE",
"533 4 OFFCURVE",
"462 4 CURVE SMOOTH",
"391 4 OFFCURVE",
"353 43 OFFCURVE",
"353 116 CURVE",
"348 124 OFFCURVE",
"341 128 OFFCURVE",
"332 128 CURVE SMOOTH",
"318 128 OFFCURVE",
"309 115 OFFCURVE",
"309 94 CURVE SMOOTH",
"309 34 OFFCURVE",
"373 -12 OFFCURVE",
"454 -12 CURVE SMOOTH"
);
}
);
width = 645;
},
{
background = {
paths = (
{
closed = 1;
nodes = (
"535 -12 OFFCURVE",
"600 50 OFFCURVE",
"600 128 CURVE SMOOTH",
"600 217 OFFCURVE",
"516 247 OFFCURVE",
"453 271 CURVE SMOOTH",
"401 291 OFFCURVE",
"357 308 OFFCURVE",
"357 354 CURVE SMOOTH",
"357 453 OFFCURVE",
"536 431 OFFCURVE",
"536 585 CURVE SMOOTH",
"536 656 OFFCURVE",
"486 734 OFFCURVE",
"379 734 CURVE SMOOTH",
"220 734 OFFCURVE",
"117 576 OFFCURVE",
"117 447 CURVE",
"130 449 LINE",
"73 445 LINE",
"56 437 OFFCURVE",
"54 412 OFFCURVE",
"54 401 CURVE",
"128 397 LINE",
"117 412 LINE",
"117 51 LINE",
"126 66 LINE",
"61 39 LINE SMOOTH",
"46 33 OFFCURVE",
"45 15 OFFCURVE",
"45 0 CURVE",
"199 0 LINE",
"199 488 LINE SMOOTH",
"199 622 OFFCURVE",
"235 671 OFFCURVE",
"334 671 CURVE SMOOTH",
"414 671 OFFCURVE",
"449 624 OFFCURVE",
"449 580 CURVE SMOOTH",
"449 431 OFFCURVE",
"279 464 OFFCURVE",
"279 337 CURVE SMOOTH",
"279 253 OFFCURVE",
"351 224 OFFCURVE",
"415 199 CURVE SMOOTH",
"467 179 OFFCURVE",
"513 166 OFFCURVE",
"513 105 CURVE SMOOTH",
"513 59 OFFCURVE",
"489 29 OFFCURVE",
"433 29 CURVE SMOOTH",
"376 29 OFFCURVE",
"347 60 OFFCURVE",
"347 124 CURVE",
"336 135 OFFCURVE",
"322 144 OFFCURVE",
"302 144 CURVE SMOOTH",
"278 144 OFFCURVE",
"259 130 OFFCURVE",
"259 98 CURVE SMOOTH",
"259 32 OFFCURVE",
"341 -12 OFFCURVE",
"430 -12 CURVE SMOOTH"
);
}
);
};
guideLines = (
{
angle = 76.6755;
position = "{334, 592}";
}
);
layerId = "A9E90CC4-8E6C-407E-8E88-16513AA8D05B";
paths = (
{
closed = 1;
nodes = (
"530 -12 OFFCURVE",
"600 46 OFFCURVE",
"600 128 CURVE SMOOTH",
"600 191 OFFCURVE",
"560 230 OFFCURVE",
"453 271 CURVE SMOOTH",
"379 299 OFFCURVE",
"357 319 OFFCURVE",
"357 354 CURVE",
"536 506 LINE",
"536 592 OFFCURVE",
"457 655 OFFCURVE",
"349 655 CURVE SMOOTH",
"211 655 OFFCURVE",
"117 564 OFFCURVE",
"117 430 CURVE",
"130 449 LINE",
"73 445 LINE",
"62 440 OFFCURVE",
"54 422 OFFCURVE",
"54 401 CURVE",
"128 397 LINE",
"117 412 LINE",
"117 51 LINE",
"126 66 LINE",
"61 39 LINE SMOOTH",
"50 35 OFFCURVE",
"45 23 OFFCURVE",
"45 0 CURVE",
"199 0 LINE",
"199 409 LINE SMOOTH",
"199 553 OFFCURVE",
"235 606 OFFCURVE",
"334 606 CURVE SMOOTH",
"402 606 OFFCURVE",
"449 563 OFFCURVE",
"449 501 CURVE",
"279 337 LINE",
"279 275 OFFCURVE",
"316 238 OFFCURVE",
"415 199 CURVE SMOOTH",
"494 169 OFFCURVE",
"513 150 OFFCURVE",
"513 105 CURVE SMOOTH",
"513 55 OFFCURVE",
"485 29 OFFCURVE",
"433 29 CURVE SMOOTH",
"376 29 OFFCURVE",
"347 61 OFFCURVE",
"347 124 CURVE",
"334 137 OFFCURVE",
"319 144 OFFCURVE",
"302 144 CURVE SMOOTH",
"275 144 OFFCURVE",
"259 127 OFFCURVE",
"259 98 CURVE SMOOTH",
"259 36 OFFCURVE",
"334 -12 OFFCURVE",
"430 -12 CURVE SMOOTH"
);
}
);
width = 638;
},
{
background = {
paths = (
{
closed = 0;
nodes = (
"406 723 LINE SMOOTH"
);
}
);
};
guideLines = (
{
angle = 76.6755;
position = "{397, 617}";
}
);
layerId = "7B53E429-1BF0-49C5-9F57-63EEBF39C6CC";
paths = (
{
closed = 1;
nodes = (
"651 -12 OFFCURVE",
"738 46 OFFCURVE",
"738 144 CURVE SMOOTH",
"738 218 OFFCURVE",
"691 261 OFFCURVE",
"570 301 CURVE SMOOTH",
"482 330 OFFCURVE",
"463 342 OFFCURVE",
"463 367 CURVE",
"640 496 LINE",
"640 592 OFFCURVE",
"548 655 OFFCURVE",
"406 655 CURVE SMOOTH",
"230 655 OFFCURVE",
"100 554 OFFCURVE",
"100 418 CURVE",
"134 446 LINE",
"60 442 LINE",
"48 434 OFFCURVE",
"39 399 OFFCURVE",
"39 362 CURVE",
"127 359 LINE",
"100 385 LINE",
"100 80 LINE",
"111 97 LINE",
"54 69 LINE SMOOTH",
"43 64 OFFCURVE",
"38 42 OFFCURVE",
"38 0 CURVE",
"282 0 LINE",
"282 363 LINE SMOOTH",
"282 524 OFFCURVE",
"309 579 OFFCURVE",
"388 579 CURVE SMOOTH",
"442 579 OFFCURVE",
"473 542 OFFCURVE",
"473 478 CURVE",
"317 313 LINE",
"317 240 OFFCURVE",
"361 197 OFFCURVE",
"478 157 CURVE SMOOTH",
"563 128 OFFCURVE",
"581 116 OFFCURVE",
"581 91 CURVE SMOOTH",
"581 67 OFFCURVE",
"557 49 OFFCURVE",
"525 49 CURVE SMOOTH",
"476 49 OFFCURVE",
"455 77 OFFCURVE",
"455 144 CURVE",
"438 156 OFFCURVE",
"411 164 OFFCURVE",
"386 164 CURVE SMOOTH",
"339 164 OFFCURVE",
"307 137 OFFCURVE",
"307 97 CURVE SMOOTH",
"307 33 OFFCURVE",
"389 -12 OFFCURVE",
"505 -12 CURVE SMOOTH"
);
}
);
width = 773;
}
);
leftMetricsKey = H;
rightMetricsKey = s;
unicode = 1E9E;
},
{
color = 4;
glyphname = Schwa;
layers = (
{
guideLines = (
{
angle = 45;
position = "{569, 358}";
}
);
layerId = "E1BF09ED-4302-4AD3-9939-8FDA35DE0FE8";
paths = (
{
closed = 1;
nodes = (
"239 655 OFFCURVE",
"149 604 OFFCURVE",
"79 509 CURVE",
"93 494 LINE",
"156 578 OFFCURVE",
"231 623 OFFCURVE",
"309 623 CURVE SMOOTH",
"452 623 OFFCURVE",
"529 515 OFFCURVE",
"529 318 CURVE SMOOTH",
"529 110 OFFCURVE",
"458 12 OFFCURVE",
"303 12 CURVE SMOOTH",
"184 12 OFFCURVE",
"101 112 OFFCURVE",
"107 247 CURVE",
"93 239 LINE",
"543 248 LINE",
"543 265 LINE",
"92 265 LINE SMOOTH",
"79 265 OFFCURVE",
"71 246 OFFCURVE",
"71 217 CURVE SMOOTH",
"71 93 OFFCURVE",
"172 -12 OFFCURVE",
"291 -12 CURVE SMOOTH",
"471 -12 OFFCURVE",
"569 117 OFFCURVE",
"569 358 CURVE SMOOTH",
"569 536 OFFCURVE",
"477 655 OFFCURVE",
"338 655 CURVE SMOOTH"
);
}
);
width = 640;
},
{
layerId = "A9E90CC4-8E6C-407E-8E88-16513AA8D05B";
paths = (
{
closed = 1;
nodes = (
"215 655 OFFCURVE",
"125 605 OFFCURVE",
"53 513 CURVE",
"72 487 LINE",
"134 551 OFFCURVE",
"210 587 OFFCURVE",
"283 587 CURVE SMOOTH",
"413 587 OFFCURVE",
"496 476 OFFCURVE",
"496 300 CURVE SMOOTH",
"496 135 OFFCURVE",
"424 33 OFFCURVE",
"305 33 CURVE SMOOTH",
"195 33 OFFCURVE",
"133 120 OFFCURVE",
"141 267 CURVE",
"110 234 LINE",
"512 241 LINE",
"513 282 LINE",
"69 282 LINE SMOOTH",
"56 282 OFFCURVE",
"48 274 OFFCURVE",
"48 242 CURVE SMOOTH",
"48 103 OFFCURVE",
"155 -12 OFFCURVE",
"284 -12 CURVE SMOOTH",
"456 -12 OFFCURVE",
"592 143 OFFCURVE",
"592 341 CURVE SMOOTH",
"592 528 OFFCURVE",
"480 655 OFFCURVE",
"316 655 CURVE SMOOTH"
);
}
);
width = 640;
},
{
layerId = "7B53E429-1BF0-49C5-9F57-63EEBF39C6CC";
paths = (
{
closed = 1;
nodes = (
"207 656 OFFCURVE",
"105 609 OFFCURVE",
"25 522 CURVE",
"49 475 LINE",
"112 520 OFFCURVE",
"174 542 OFFCURVE",
"235 542 CURVE SMOOTH",
"365 542 OFFCURVE",
"438 447 OFFCURVE",
"438 275 CURVE SMOOTH",
"438 139 OFFCURVE",
"394 62 OFFCURVE",
"315 62 CURVE SMOOTH",
"238 62 OFFCURVE",
"202 135 OFFCURVE",
"207 279 CURVE",
"174 238 LINE",
"487 244 LINE",
"488 319 LINE",
"62 319 LINE SMOOTH",
"33 319 OFFCURVE",
"27 310 OFFCURVE",
"27 266 CURVE SMOOTH",
"27 101 OFFCURVE",
"140 -12 OFFCURVE",
"306 -12 CURVE SMOOTH",
"492 -12 OFFCURVE",
"634 136 OFFCURVE",
"634 332 CURVE SMOOTH",
"634 523 OFFCURVE",
"505 656 OFFCURVE",
"320 656 CURVE SMOOTH"
);
}
);
width = 659;
}
);
leftKerningGroup = O;
leftMetricsKey = O;
rightKerningGroup = O;
rightMetricsKey = O;
unicode = 018F;
},
{
color = 4;
glyphname = T;
layers = (
{
anchors = (
{
name = bottom;
position = "{301, 0}";
},
{
name = center;
position = "{301, 321}";
},
{
name = top;
position = "{301, 641}";
}
);
background = {
paths = (
{
closed = 1;
nodes = (
"506 595 LINE",
"539 494 LINE",
"542 482 OFFCURVE",
"562 478 OFFCURVE",
"578 478 CURVE",
"578 641 LINE",
"24 641 LINE",
"24 478 LINE",
"40 478 OFFCURVE",
"60 482 OFFCURVE",
"63 494 CURVE",
"96 595 LINE",
"258 579 LINE",
"258 62 LINE",
"195 39 LINE SMOOTH",
"183 35 OFFCURVE",
"179 16 OFFCURVE",
"179 0 CURVE",
"415 0 LINE",
"430 11 OFFCURVE",
"434 19 OFFCURVE",
"434 46 CURVE",
"344 67 LINE",
"344 579 LINE"
);
}
);
};
layerId = "A9E90CC4-8E6C-407E-8E88-16513AA8D05B";
paths = (
{
closed = 1;
nodes = (
"425 0 LINE",
"440 11 OFFCURVE",
"444 19 OFFCURVE",
"444 46 CURVE",
"334 69 LINE",
"344 57 LINE",
"344 589 LINE",
"334 578 LINE",
"516 596 LINE",
"503 605 LINE",
"539 494 LINE SMOOTH",
"543 482 OFFCURVE",
"562 478 OFFCURVE",
"578 478 CURVE",
"578 641 LINE",
"24 641 LINE",
"24 478 LINE",
"40 478 OFFCURVE",
"59 482 OFFCURVE",
"63 494 CURVE SMOOTH",
"99 605 LINE",
"86 596 LINE",
"268 578 LINE",
"258 589 LINE",
"258 52 LINE",
"268 66 LINE",
"185 39 LINE SMOOTH",
"173 35 OFFCURVE",
"169 16 OFFCURVE",
"169 0 CURVE"
);
}
);
width = 602;
},
{
anchors = (
{
name = bottom;
position = "{301, 0}";
},
{
name = center;
position = "{301, 321}";
},
{
name = top;
position = "{301, 641}";
}
);
layerId = "E1BF09ED-4302-4AD3-9939-8FDA35DE0FE8";
paths = (
{
closed = 1;
nodes = (
"390 0 LINE SMOOTH",
"404 0 OFFCURVE",
"407 4 OFFCURVE",
"407 18 CURVE",
"306 34 LINE",
"317 22 LINE",
"317 625 LINE",
"306 612 LINE",
"534 625 LINE",
"520 634 LINE",
"542 543 LINE SMOOTH",
"545 531 OFFCURVE",
"553 527 OFFCURVE",
"562 527 CURVE",
"562 641 LINE",
"39 641 LINE",
"39 527 LINE",
"48 527 OFFCURVE",
"56 531 OFFCURVE",
"59 543 CURVE SMOOTH",
"81 634 LINE",
"67 625 LINE",
"295 612 LINE",
"284 625 LINE",
"284 23 LINE",
"297 34 LINE",
"223 20 LINE SMOOTH",
"212 18 OFFCURVE",
"207 12 OFFCURVE",
"207 0 CURVE"
);
}
);
width = 601;
},
{
anchors = (
{
name = bottom;
position = "{335, 0}";
},
{
name = center;
position = "{335, 321}";
},
{
name = top;
position = "{335, 641}";
}
);
layerId = "7B53E429-1BF0-49C5-9F57-63EEBF39C6CC";
paths = (
{
closed = 1;
nodes = (
"521 0 LINE",
"537 29 OFFCURVE",
"541 50 OFFCURVE",
"541 76 CURVE",
"399 106 LINE",
"428 75 LINE",
"428 544 LINE",
"417 531 LINE",
"544 549 LINE",
"530 558 LINE",
"559 478 LINE SMOOTH",
"563 466 OFFCURVE",
"579 458 OFFCURVE",
"629 458 CURVE",
"629 641 LINE",
"41 641 LINE",
"41 458 LINE",
"91 458 OFFCURVE",
"107 466 OFFCURVE",
"111 478 CURVE SMOOTH",
"140 558 LINE",
"126 549 LINE",
"253 531 LINE",
"242 544 LINE",
"242 70 LINE",
"263 107 LINE",
"159 69 LINE SMOOTH",
"149 65 OFFCURVE",
"143 39 OFFCURVE",
"143 0 CURVE"
);
}
);
width = 670;
}
);
leftKerningGroup = T;
rightKerningGroup = T;
unicode = 0054;
},
{
color = 4;
glyphname = U;
layers = (
{
anchors = (
{
name = bottom;
position = "{369, 0}";
},
{
name = ogonek;
position = "{458, 0}";
},
{
name = top;
position = "{369, 641}";
},
{
name = topright;
position = "{544, 641}";
}
);
background = {
paths = (
{
closed = 1;
nodes = (
"270 602 LINE SMOOTH",
"282 606 OFFCURVE",
"286 625 OFFCURVE",
"286 641 CURVE",
"46 641 LINE",
"31 630 OFFCURVE",
"27 622 OFFCURVE",
"27 595 CURVE",
"106 574 LINE",
"106 211 LINE SMOOTH",
"106 77 OFFCURVE",
"184 -12 OFFCURVE",
"365 -12 CURVE SMOOTH",
"533 -12 OFFCURVE",
"610 85 OFFCURVE",
"610 214 CURVE SMOOTH",
"610 579 LINE",
"679 602 LINE SMOOTH",
"691 606 OFFCURVE",
"695 625 OFFCURVE",
"695 641 CURVE",
"484 641 LINE",
"469 630 OFFCURVE",
"465 622 OFFCURVE",
"465 595 CURVE",
"544 574 LINE",
"544 206 LINE SMOOTH",
"544 80 OFFCURVE",
"477 41 OFFCURVE",
"365 41 CURVE SMOOTH",
"257 41 OFFCURVE",
"196 91 OFFCURVE",
"196 204 CURVE SMOOTH",
"196 579 LINE"
);
}
);
};
layerId = "A9E90CC4-8E6C-407E-8E88-16513AA8D05B";
paths = (
{
closed = 1;
nodes = (
"512 -12 OFFCURVE",
"600 69 OFFCURVE",
"600 214 CURVE SMOOTH",
"600 589 LINE",
"580 575 LINE",
"659 602 LINE SMOOTH",
"669 605 OFFCURVE",
"675 621 OFFCURVE",
"675 641 CURVE",
"484 641 LINE",
"469 630 OFFCURVE",
"465 621 OFFCURVE",
"465 595 CURVE",
"554 571 LINE",
"544 584 LINE",
"544 206 LINE SMOOTH",
"544 98 OFFCURVE",
"481 38 OFFCURVE",
"368 38 CURVE SMOOTH",
"250 38 OFFCURVE",
"192 92 OFFCURVE",
"192 204 CURVE SMOOTH",
"192 589 LINE",
"176 573 LINE",
"270 602 LINE SMOOTH",
"280 605 OFFCURVE",
"286 620 OFFCURVE",
"286 641 CURVE",
"46 641 LINE",
"31 630 OFFCURVE",
"27 621 OFFCURVE",
"27 595 CURVE",
"116 571 LINE",
"106 584 LINE",
"106 211 LINE SMOOTH",
"106 69 OFFCURVE",
"197 -12 OFFCURVE",
"355 -12 CURVE SMOOTH"
);
}
);
width = 696;
},
{
anchors = (
{
name = bottom;
position = "{356, 0}";
},
{
name = ogonek;
position = "{444, 0}";
},
{
name = top;
position = "{356, 641}";
},
{
name = topright;
position = "{561, 641}";
}
);
layerId = "E1BF09ED-4302-4AD3-9939-8FDA35DE0FE8";
paths = (
{
closed = 1;
nodes = (
"510 -12 OFFCURVE",
"581 75 OFFCURVE",
"581 214 CURVE SMOOTH",
"581 624 LINE",
"577 611 LINE",
"623 621 LINE SMOOTH",
"634 623 OFFCURVE",
"639 629 OFFCURVE",
"639 641 CURVE",
"516 641 LINE",
"502 641 OFFCURVE",
"499 637 OFFCURVE",
"499 623 CURVE",
"566 610 LINE",
"561 619 LINE",
"561 206 LINE SMOOTH",
"561 56 OFFCURVE",
"467 7 OFFCURVE",
"355 7 CURVE SMOOTH",
"257 7 OFFCURVE",
"149 67 OFFCURVE",
"149 204 CURVE SMOOTH",
"149 619 LINE",
"139 607 LINE",
"203 621 LINE SMOOTH",
"214 623 OFFCURVE",
"219 629 OFFCURVE",
"219 641 CURVE",
"66 641 LINE SMOOTH",
"52 641 OFFCURVE",
"49 637 OFFCURVE",
"49 623 CURVE",
"130 607 LINE",
"116 618 LINE",
"116 211 LINE SMOOTH",
"116 77 OFFCURVE",
"188 -12 OFFCURVE",
"355 -12 CURVE SMOOTH"
);
}
);
width = 685;
},
{
anchors = (
{
name = bottom;
position = "{402, 0}";
},
{
name = ogonek;
position = "{482, 0}";
},
{
name = top;
position = "{402, 641}";
},
{
name = topright;
position = "{538, 641}";
}
);
layerId = "7B53E429-1BF0-49C5-9F57-63EEBF39C6CC";
paths = (
{
closed = 1;
nodes = (
"566 -12 OFFCURVE",
"644 105 OFFCURVE",
"644 214 CURVE SMOOTH",
"644 589 LINE",
"625 545 LINE",
"712 572 LINE SMOOTH",
"722 575 OFFCURVE",
"728 603 OFFCURVE",
"728 641 CURVE",
"470 641 LINE",
"454 614 OFFCURVE",
"450 591 OFFCURVE",
"450 565 CURVE",
"556 538 LINE",
"544 584 LINE",
"544 256 LINE SMOOTH",
"544 147 OFFCURVE",
"516 87 OFFCURVE",
"395 87 CURVE SMOOTH",
"294 87 OFFCURVE",
"277 138 OFFCURVE",
"277 254 CURVE SMOOTH",
"277 571 LINE",
"247 545 LINE",
"332 572 LINE SMOOTH",
"342 575 OFFCURVE",
"348 602 OFFCURVE",
"348 641 CURVE",
"45 641 LINE",
"28 614 OFFCURVE",
"23 591 OFFCURVE",
"23 565 CURVE",
"114 541 LINE",
"91 566 LINE",
"91 211 LINE SMOOTH",
"91 77 OFFCURVE",
"169 -12 OFFCURVE",
"394 -12 CURVE SMOOTH"
);
}
);
width = 750;
}
);
leftKerningGroup = U;
leftMetricsKey = "=H*.6";
rightKerningGroup = U;
rightMetricsKey = "=H*.6";
unicode = 0055;
},
{
color = 1;
glyphname = Uacute;
layers = (
{
background = {
paths = (
{
closed = 1;
nodes = (
"271 602 LINE SMOOTH",
"283 606 OFFCURVE",
"287 625 OFFCURVE",
"287 641 CURVE",
"47 641 LINE",
"32 630 OFFCURVE",
"28 622 OFFCURVE",
"28 595 CURVE",
"107 574 LINE",
"107 211 LINE SMOOTH",
"107 77 OFFCURVE",
"185 -12 OFFCURVE",
"366 -12 CURVE SMOOTH",
"534 -12 OFFCURVE",
"611 85 OFFCURVE",
"611 214 CURVE SMOOTH",
"611 579 LINE",
"680 602 LINE SMOOTH",
"692 606 OFFCURVE",
"696 625 OFFCURVE",
"696 641 CURVE",
"485 641 LINE",
"470 630 OFFCURVE",
"466 622 OFFCURVE",
"466 595 CURVE",
"545 574 LINE",
"545 206 LINE SMOOTH",
"545 80 OFFCURVE",
"478 41 OFFCURVE",
"366 41 CURVE SMOOTH",
"258 41 OFFCURVE",
"197 91 OFFCURVE",
"197 204 CURVE SMOOTH",
"197 579 LINE"
);
},
{
closed = 1;
nodes = (
"545 833 OFFCURVE",
"534 858 OFFCURVE",
"511 858 CURVE SMOOTH",
"480 858 OFFCURVE",
"427 825 OFFCURVE",
"291 743 CURVE",
"290 741 OFFCURVE",
"290 738 OFFCURVE",
"290 736 CURVE SMOOTH",
"290 728 OFFCURVE",
"294 721 OFFCURVE",
"304 715 CURVE",
"455 760 OFFCURVE",
"545 781 OFFCURVE",
"545 816 CURVE SMOOTH"
);
}
);
};
components = (
{
name = U;
},
{
name = acutecomb.case;
transform = "{1, 0, 0, 1, 255, 198}";
}
);
layerId = "A9E90CC4-8E6C-407E-8E88-16513AA8D05B";
width = 696;
},
{
components = (
{
name = U;
},
{
name = acutecomb.case;
transform = "{1, 0, 0, 1, 258, 198}";
}
);
layerId = "E1BF09ED-4302-4AD3-9939-8FDA35DE0FE8";
width = 685;
},
{
components = (
{
name = U;
},
{
name = acutecomb.case;
transform = "{1, 0, 0, 1, 255, 198}";
}
);
layerId = "7B53E429-1BF0-49C5-9F57-63EEBF39C6CC";
width = 750;
}
);
leftKerningGroup = U;
rightKerningGroup = U;
unicode = 00DA;
},
{
color = 1;
glyphname = Ucircumflex;
layers = (
{
background = {
paths = (
{
closed = 1;
nodes = (
"271 602 LINE SMOOTH",
"283 606 OFFCURVE",
"287 625 OFFCURVE",
"287 641 CURVE",
"47 641 LINE",
"32 630 OFFCURVE",
"28 622 OFFCURVE",
"28 595 CURVE",
"107 574 LINE",
"107 211 LINE SMOOTH",
"107 77 OFFCURVE",
"185 -12 OFFCURVE",
"366 -12 CURVE SMOOTH",
"534 -12 OFFCURVE",
"611 85 OFFCURVE",
"611 214 CURVE SMOOTH",
"611 579 LINE",
"680 602 LINE SMOOTH",
"692 606 OFFCURVE",
"696 625 OFFCURVE",
"696 641 CURVE",
"485 641 LINE",
"470 630 OFFCURVE",
"466 622 OFFCURVE",
"466 595 CURVE",
"545 574 LINE",
"545 206 LINE SMOOTH",
"545 80 OFFCURVE",
"478 41 OFFCURVE",
"366 41 CURVE SMOOTH",
"258 41 OFFCURVE",
"197 91 OFFCURVE",
"197 204 CURVE SMOOTH",
"197 579 LINE"
);
},
{
closed = 1;
nodes = (
"397 854 OFFCURVE",
"382 858 OFFCURVE",
"373 858 CURVE SMOOTH",
"364 858 OFFCURVE",
"349 853 OFFCURVE",
"329 839 CURVE SMOOTH",
"192 743 LINE",
"192 743 OFFCURVE",
"191 740 OFFCURVE",
"191 737 CURVE SMOOTH",
"191 728 OFFCURVE",
"196 720 OFFCURVE",
"205 715 CURVE",
"373 787 LINE",
"541 715 LINE",
"550 720 OFFCURVE",
"555 728 OFFCURVE",
"555 737 CURVE SMOOTH",
"555 740 OFFCURVE",
"554 743 OFFCURVE",
"554 743 CURVE",
"417 839 LINE SMOOTH"
);
}
);
};
components = (
{
name = U;
},
{
name = circumflexcomb.case;
transform = "{1, 0, 0, 1, 221, 198}";
}
);
layerId = "A9E90CC4-8E6C-407E-8E88-16513AA8D05B";
width = 696;
},
{
components = (
{
name = U;
},
{
name = circumflexcomb.case;
transform = "{1, 0, 0, 1, 228, 198}";
}
);
layerId = "E1BF09ED-4302-4AD3-9939-8FDA35DE0FE8";
width = 685;
},
{
components = (
{
name = U;
},
{
name = circumflexcomb.case;
transform = "{1, 0, 0, 1, 218, 198}";
}
);
layerId = "7B53E429-1BF0-49C5-9F57-63EEBF39C6CC";
width = 750;
}
);
leftKerningGroup = U;
rightKerningGroup = U;
unicode = 00DB;
},
{
color = 1;
glyphname = Udieresis;
layers = (
{
background = {
paths = (
{
closed = 1;
nodes = (
"223 775 OFFCURVE",
"238 756 OFFCURVE",
"269 756 CURVE SMOOTH",
"293 756 OFFCURVE",
"316 777 OFFCURVE",
"316 802 CURVE SMOOTH",
"316 829 OFFCURVE",
"300 848 OFFCURVE",
"269 848 CURVE SMOOTH",
"246 848 OFFCURVE",
"223 827 OFFCURVE",
"223 802 CURVE SMOOTH"
);
},
{
closed = 1;
nodes = (
"430 775 OFFCURVE",
"445 756 OFFCURVE",
"476 756 CURVE SMOOTH",
"500 756 OFFCURVE",
"523 777 OFFCURVE",
"523 802 CURVE SMOOTH",
"523 829 OFFCURVE",
"507 848 OFFCURVE",
"476 848 CURVE SMOOTH",
"453 848 OFFCURVE",
"430 827 OFFCURVE",
"430 802 CURVE SMOOTH"
);
},
{
closed = 1;
nodes = (
"271 602 LINE SMOOTH",
"283 606 OFFCURVE",
"287 625 OFFCURVE",
"287 641 CURVE",
"47 641 LINE",
"32 630 OFFCURVE",
"28 622 OFFCURVE",
"28 595 CURVE",
"107 574 LINE",
"107 211 LINE SMOOTH",
"107 77 OFFCURVE",
"185 -12 OFFCURVE",
"366 -12 CURVE SMOOTH",
"534 -12 OFFCURVE",
"611 85 OFFCURVE",
"611 214 CURVE SMOOTH",
"611 579 LINE",
"680 602 LINE SMOOTH",
"692 606 OFFCURVE",
"696 625 OFFCURVE",
"696 641 CURVE",
"485 641 LINE",
"470 630 OFFCURVE",
"466 622 OFFCURVE",
"466 595 CURVE",
"545 574 LINE",
"545 206 LINE SMOOTH",
"545 80 OFFCURVE",
"478 41 OFFCURVE",
"366 41 CURVE SMOOTH",
"258 41 OFFCURVE",
"197 91 OFFCURVE",
"197 204 CURVE SMOOTH",
"197 579 LINE"
);
}
);
};
components = (
{
name = U;
},
{
name = dieresiscomb.case;
transform = "{1, 0, 0, 1, 220, 198}";
}
);
layerId = "A9E90CC4-8E6C-407E-8E88-16513AA8D05B";
width = 696;
},
{
components = (
{
name = U;
},
{
name = dieresiscomb.case;
transform = "{1, 0, 0, 1, 255, 198}";
}
);
layerId = "E1BF09ED-4302-4AD3-9939-8FDA35DE0FE8";
width = 685;
},
{
components = (
{
name = U;
},
{
name = dieresiscomb.case;
transform = "{1, 0, 0, 1, 188, 198}";
}
);
layerId = "7B53E429-1BF0-49C5-9F57-63EEBF39C6CC";
width = 750;
}
);
leftKerningGroup = U;
rightKerningGroup = U;
unicode = 00DC;
},
{
color = 1;
glyphname = Ugrave;
layers = (
{
background = {
paths = (
{
closed = 1;
nodes = (
"271 602 LINE SMOOTH",
"283 606 OFFCURVE",
"287 625 OFFCURVE",
"287 641 CURVE",
"47 641 LINE",
"32 630 OFFCURVE",
"28 622 OFFCURVE",
"28 595 CURVE",
"107 574 LINE",
"107 211 LINE SMOOTH",
"107 77 OFFCURVE",
"185 -12 OFFCURVE",
"366 -12 CURVE SMOOTH",
"534 -12 OFFCURVE",
"611 85 OFFCURVE",
"611 214 CURVE SMOOTH",
"611 579 LINE",
"680 602 LINE SMOOTH",
"692 606 OFFCURVE",
"696 625 OFFCURVE",
"696 641 CURVE",
"485 641 LINE",
"470 630 OFFCURVE",
"466 622 OFFCURVE",
"466 595 CURVE",
"545 574 LINE",
"545 206 LINE SMOOTH",
"545 80 OFFCURVE",
"478 41 OFFCURVE",
"366 41 CURVE SMOOTH",
"258 41 OFFCURVE",
"197 91 OFFCURVE",
"197 204 CURVE SMOOTH",
"197 579 LINE"
);
},
{
closed = 1;
nodes = (
"196 781 OFFCURVE",
"286 760 OFFCURVE",
"437 715 CURVE",
"447 721 OFFCURVE",
"451 728 OFFCURVE",
"451 736 CURVE SMOOTH",
"451 738 OFFCURVE",
"451 741 OFFCURVE",
"450 743 CURVE",
"314 825 OFFCURVE",
"261 858 OFFCURVE",
"230 858 CURVE SMOOTH",
"207 858 OFFCURVE",
"196 833 OFFCURVE",
"196 816 CURVE SMOOTH"
);
}
);
};
components = (
{
name = U;
},
{
name = gravecomb.case;
transform = "{1, 0, 0, 1, 255, 198}";
}
);
layerId = "A9E90CC4-8E6C-407E-8E88-16513AA8D05B";
width = 696;
},
{
components = (
{
name = U;
},
{
name = gravecomb.case;
transform = "{1, 0, 0, 1, 258, 198}";
}
);
layerId = "E1BF09ED-4302-4AD3-9939-8FDA35DE0FE8";
width = 685;
},
{
components = (
{
name = U;
},
{
name = gravecomb.case;
transform = "{1, 0, 0, 1, 255, 198}";
}
);
layerId = "7B53E429-1BF0-49C5-9F57-63EEBF39C6CC";
width = 750;
}
);
leftKerningGroup = U;
rightKerningGroup = U;
unicode = 00D9;
},
{
color = 4;
glyphname = V;
layers = (
{
background = {
paths = (
{
closed = 1;
nodes = (
"241 602 LINE SMOOTH",
"253 606 OFFCURVE",
"257 625 OFFCURVE",
"257 641 CURVE",
"21 641 LINE",
"6 630 OFFCURVE",
"2 622 OFFCURVE",
"2 595 CURVE",
"88 574 LINE",
"312 -5 LINE",
"319 -8 OFFCURVE",
"332 -12 OFFCURVE",
"344 -12 CURVE SMOOTH",
"363 -12 OFFCURVE",
"376 4 OFFCURVE",
"384 25 CURVE SMOOTH",
"589 579 LINE",
"651 602 LINE SMOOTH",
"663 606 OFFCURVE",
"667 625 OFFCURVE",
"667 641 CURVE",
"457 641 LINE",
"442 630 OFFCURVE",
"438 622 OFFCURVE",
"438 595 CURVE",
"527 574 LINE",
"357 112 LINE",
"178 579 LINE"
);
}
);
};
layerId = "A9E90CC4-8E6C-407E-8E88-16513AA8D05B";
paths = (
{
closed = 1;
nodes = (
"363 -12 OFFCURVE",
"376 4 OFFCURVE",
"384 25 CURVE SMOOTH",
"593 589 LINE",
"579 575 LINE",
"651 602 LINE SMOOTH",
"663 606 OFFCURVE",
"667 625 OFFCURVE",
"667 641 CURVE",
"457 641 LINE",
"442 630 OFFCURVE",
"438 622 OFFCURVE",
"438 595 CURVE",
"537 571 LINE",
"531 584 LINE",
"349 92 LINE",
"362 92 LINE",
"170 589 LINE",
"167 575 LINE",
"241 602 LINE SMOOTH",
"253 606 OFFCURVE",
"257 625 OFFCURVE",
"257 641 CURVE",
"21 641 LINE",
"6 630 OFFCURVE",
"2 622 OFFCURVE",
"2 595 CURVE",
"98 571 LINE",
"84 584 LINE",
"312 -5 LINE",
"319 -8 OFFCURVE",
"332 -12 OFFCURVE",
"344 -12 CURVE SMOOTH"
);
}
);
width = 669;
},
{
layerId = "E1BF09ED-4302-4AD3-9939-8FDA35DE0FE8";
paths = (
{
closed = 1;
nodes = (
"320 -12 OFFCURVE",
"326 -6 OFFCURVE",
"332 11 CURVE SMOOTH",
"534 625 LINE",
"526 611 LINE",
"572 621 LINE SMOOTH",
"583 623 OFFCURVE",
"588 629 OFFCURVE",
"588 641 CURVE",
"465 641 LINE SMOOTH",
"451 641 OFFCURVE",
"448 637 OFFCURVE",
"448 623 CURVE",
"515 610 LINE",
"512 621 LINE",
"306 -5 LINE",
"318 -5 LINE",
"103 618 LINE",
"94 607 LINE",
"158 621 LINE SMOOTH",
"169 623 OFFCURVE",
"174 629 OFFCURVE",
"174 641 CURVE",
"21 641 LINE SMOOTH",
"7 641 OFFCURVE",
"4 637 OFFCURVE",
"4 623 CURVE",
"85 607 LINE",
"68 618 LINE",
"283 -6 LINE",
"288 -9 OFFCURVE",
"300 -12 OFFCURVE",
"307 -12 CURVE SMOOTH"
);
}
);
width = 592;
},
{
guideLines = (
{
angle = 111.1613;
position = "{245, 589}";
},
{
angle = 249.9547;
position = "{461, 362}";
}
);
layerId = "7B53E429-1BF0-49C5-9F57-63EEBF39C6CC";
paths = (
{
closed = 1;
nodes = (
"373 -12 OFFCURVE",
"434 -4 OFFCURVE",
"445 25 CURVE SMOOTH",
"654 589 LINE",
"616 545 LINE",
"706 572 LINE SMOOTH",
"716 575 OFFCURVE",
"722 602 OFFCURVE",
"722 641 CURVE",
"459 641 LINE",
"443 614 OFFCURVE",
"439 591 OFFCURVE",
"439 565 CURVE",
"550 541 LINE",
"545 584 LINE",
"381 140 LINE",
"413 140 LINE",
"239 589 LINE",
"220 545 LINE",
"305 572 LINE SMOOTH",
"315 575 OFFCURVE",
"321 602 OFFCURVE",
"321 641 CURVE",
"24 641 LINE",
"7 614 OFFCURVE",
"2 591 OFFCURVE",
"2 565 CURVE",
"93 541 LINE",
"48 584 LINE",
"276 -5 LINE",
"295 -9 OFFCURVE",
"332 -12 OFFCURVE",
"349 -12 CURVE SMOOTH"
);
}
);
width = 724;
}
);
leftKerningGroup = V;
leftMetricsKey = "=H*.05";
rightKerningGroup = V;
rightMetricsKey = "=H*.05";
unicode = 0056;
},
{
color = 4;
glyphname = W;
layers = (
{
anchors = (
{
name = bottom;
position = "{496, 0}";
},
{
name = top;
position = "{496, 641}";
}
);
background = {
paths = (
{
closed = 1;
nodes = (
"463 579 LINE",
"322 120 LINE",
"167 579 LINE",
"240 602 LINE SMOOTH",
"252 606 OFFCURVE",
"256 625 OFFCURVE",
"256 641 CURVE",
"21 641 LINE",
"6 630 OFFCURVE",
"2 622 OFFCURVE",
"2 595 CURVE",
"80 574 LINE",
"273 -5 LINE",
"280 -8 OFFCURVE",
"292 -12 OFFCURVE",
"305 -12 CURVE SMOOTH",
"324 -12 OFFCURVE",
"344 4 OFFCURVE",
"351 25 CURVE SMOOTH",
"482 449 LINE",
"630 -5 LINE",
"637 -8 OFFCURVE",
"649 -12 OFFCURVE",
"662 -12 CURVE SMOOTH",
"678 -12 OFFCURVE",
"702 4 OFFCURVE",
"708 25 CURVE SMOOTH",
"872 579 LINE",
"945 602 LINE SMOOTH",
"957 606 OFFCURVE",
"961 625 OFFCURVE",
"961 641 CURVE",
"751 641 LINE",
"736 630 OFFCURVE",
"732 622 OFFCURVE",
"732 595 CURVE",
"811 574 LINE",
"679 120 LINE",
"528 579 LINE"
);
}
);
};
layerId = "A9E90CC4-8E6C-407E-8E88-16513AA8D05B";
paths = (
{
closed = 1;
nodes = (
"328 -12 OFFCURVE",
"343 -1 OFFCURVE",
"351 25 CURVE SMOOTH",
"488 468 LINE",
"475 469 LINE",
"630 -5 LINE",
"640 -9 OFFCURVE",
"652 -12 OFFCURVE",
"660 -12 CURVE SMOOTH",
"685 -12 OFFCURVE",
"700 -1 OFFCURVE",
"708 25 CURVE SMOOTH",
"874 589 LINE",
"861 576 LINE",
"944 602 LINE SMOOTH",
"954 605 OFFCURVE",
"960 620 OFFCURVE",
"960 641 CURVE",
"751 641 LINE",
"736 630 OFFCURVE",
"732 621 OFFCURVE",
"732 595 CURVE",
"821 571 LINE",
"814 584 LINE",
"672 100 LINE",
"682 100 LINE",
"525 579 LINE",
"463 579 LINE",
"316 100 LINE",
"325 100 LINE",
"161 589 LINE",
"154 576 LINE",
"237 602 LINE SMOOTH",
"247 605 OFFCURVE",
"253 620 OFFCURVE",
"253 641 CURVE",
"21 641 LINE",
"6 630 OFFCURVE",
"2 621 OFFCURVE",
"2 595 CURVE",
"90 571 LINE",
"77 584 LINE",
"273 -5 LINE",
"283 -9 OFFCURVE",
"295 -12 OFFCURVE",
"303 -12 CURVE SMOOTH"
);
}
);
width = 962;
},
{
anchors = (
{
name = bottom;
position = "{467, 0}";
},
{
name = top;
position = "{467, 641}";
}
);
layerId = "E1BF09ED-4302-4AD3-9939-8FDA35DE0FE8";
paths = (
{
closed = 1;
nodes = (
"316 -12 OFFCURVE",
"322 -6 OFFCURVE",
"328 11 CURVE",
"469 490 LINE",
"457 490 LINE",
"611 -6 LINE",
"616 -9 OFFCURVE",
"628 -12 OFFCURVE",
"635 -12 CURVE SMOOTH",
"648 -12 OFFCURVE",
"654 -6 OFFCURVE",
"660 11 CURVE SMOOTH",
"847 625 LINE",
"839 611 LINE",
"885 621 LINE SMOOTH",
"896 623 OFFCURVE",
"901 629 OFFCURVE",
"901 641 CURVE",
"778 641 LINE SMOOTH",
"764 641 OFFCURVE",
"761 637 OFFCURVE",
"761 623 CURVE",
"828 610 LINE",
"825 621 LINE",
"636 1 LINE",
"643 1 LINE",
"472 552 LINE",
"467 552 LINE",
"304 1 LINE",
"312 1 LINE",
"101 626 LINE",
"94 608 LINE",
"158 622 LINE SMOOTH",
"169 624 OFFCURVE",
"174 630 OFFCURVE",
"174 642 CURVE",
"21 642 LINE SMOOTH",
"7 642 OFFCURVE",
"4 638 OFFCURVE",
"4 624 CURVE",
"85 608 LINE",
"68 621 LINE",
"279 -6 LINE",
"284 -9 OFFCURVE",
"296 -12 OFFCURVE",
"303 -12 CURVE SMOOTH"
);
}
);
width = 905;
},
{
anchors = (
{
name = bottom;
position = "{537, 0}";
},
{
name = top;
position = "{537, 641}";
}
);
guideLines = (
{
angle = 111.4424;
position = "{744, 170}";
}
);
layerId = "7B53E429-1BF0-49C5-9F57-63EEBF39C6CC";
paths = (
{
closed = 1;
nodes = (
"334 -12 OFFCURVE",
"397 -4 OFFCURVE",
"406 25 CURVE SMOOTH",
"521 386 LINE",
"466 386 LINE",
"610 -5 LINE",
"629 -9 OFFCURVE",
"666 -12 OFFCURVE",
"683 -12 CURVE SMOOTH",
"707 -12 OFFCURVE",
"770 -4 OFFCURVE",
"779 25 CURVE SMOOTH",
"949 589 LINE",
"911 545 LINE",
"1001 572 LINE SMOOTH",
"1011 575 OFFCURVE",
"1017 602 OFFCURVE",
"1017 641 CURVE",
"751 641 LINE",
"735 614 OFFCURVE",
"731 591 OFFCURVE",
"731 565 CURVE",
"842 541 LINE",
"843 584 LINE",
"718 170 LINE",
"737 170 LINE",
"586 579 LINE",
"477 579 LINE",
"347 170 LINE",
"370 170 LINE",
"236 589 LINE",
"221 545 LINE",
"306 572 LINE SMOOTH",
"316 575 OFFCURVE",
"322 602 OFFCURVE",
"322 641 CURVE",
"24 641 LINE",
"7 614 OFFCURVE",
"2 591 OFFCURVE",
"2 565 CURVE",
"93 541 LINE",
"48 584 LINE",
"237 -5 LINE",
"256 -9 OFFCURVE",
"293 -12 OFFCURVE",
"310 -12 CURVE SMOOTH"
);
}
);
width = 1019;
}
);
leftKerningGroup = V;
leftMetricsKey = V;
rightKerningGroup = V;
rightMetricsKey = V;
unicode = 0057;
},
{
color = 4;
glyphname = X;
layers = (
{
anchors = (
{
name = bottom;
position = "{317, 0}";
},
{
name = top;
position = "{317, 641}";
}
);
background = {
paths = (
{
closed = 1;
nodes = (
"527 579 LINE",
"601 602 LINE SMOOTH",
"613 606 OFFCURVE",
"617 625 OFFCURVE",
"617 641 CURVE",
"397 641 LINE",
"382 630 OFFCURVE",
"378 622 OFFCURVE",
"378 595 CURVE",
"457 574 LINE",
"329 379 LINE",
"195 579 LINE",
"269 602 LINE SMOOTH",
"281 606 OFFCURVE",
"285 625 OFFCURVE",
"285 641 CURVE",
"36 641 LINE",
"21 630 OFFCURVE",
"17 622 OFFCURVE",
"17 595 CURVE",
"95 574 LINE",
"261 326 LINE",
"85 62 LINE",
"23 39 LINE SMOOTH",
"11 34 OFFCURVE",
"7 14 OFFCURVE",
"7 0 CURVE",
"227 0 LINE",
"242 11 OFFCURVE",
"246 19 OFFCURVE",
"246 46 CURVE",
"156 67 LINE",
"295 275 LINE",
"438 62 LINE",
"376 39 LINE SMOOTH",
"364 34 OFFCURVE",
"360 14 OFFCURVE",
"360 0 CURVE",
"609 0 LINE",
"624 11 OFFCURVE",
"628 19 OFFCURVE",
"628 46 CURVE",
"538 67 LINE",
"363 329 LINE"
);
}
);
};
layerId = "A9E90CC4-8E6C-407E-8E88-16513AA8D05B";
paths = (
{
closed = 1;
nodes = (
"609 0 LINE",
"624 11 OFFCURVE",
"628 19 OFFCURVE",
"628 46 CURVE",
"529 70 LINE",
"546 57 LINE",
"184 589 LINE",
"181 576 LINE",
"265 602 LINE SMOOTH",
"277 606 OFFCURVE",
"281 625 OFFCURVE",
"281 641 CURVE",
"36 641 LINE",
"21 630 OFFCURVE",
"17 622 OFFCURVE",
"17 595 CURVE",
"115 568 LINE",
"88 584 LINE",
"450 52 LINE",
"454 66 LINE",
"376 39 LINE SMOOTH",
"364 35 OFFCURVE",
"360 14 OFFCURVE",
"360 0 CURVE"
);
},
{
closed = 1;
nodes = (
"227 0 LINE",
"242 11 OFFCURVE",
"246 19 OFFCURVE",
"246 46 CURVE",
"146 69 LINE",
"149 57 LINE",
"303 288 LINE",
"269 338 LINE",
"78 52 LINE",
"96 67 LINE",
"23 39 LINE SMOOTH",
"10 34 OFFCURVE",
"7 14 OFFCURVE",
"7 0 CURVE"
);
},
{
closed = 1;
nodes = (
"534 589 LINE",
"517 576 LINE",
"601 602 LINE SMOOTH",
"613 606 OFFCURVE",
"617 625 OFFCURVE",
"617 641 CURVE",
"398 641 LINE",
"383 630 OFFCURVE",
"379 622 OFFCURVE",
"379 595 CURVE",
"468 571 LINE",
"464 584 LINE",
"321 366 LINE",
"355 316 LINE"
);
}
);
width = 634;
},
{
anchors = (
{
name = bottom;
position = "{317, 0}";
},
{
name = top;
position = "{317, 641}";
}
);
layerId = "E1BF09ED-4302-4AD3-9939-8FDA35DE0FE8";
paths = (
{
closed = 1;
nodes = (
"576 0 LINE SMOOTH",
"590 0 OFFCURVE",
"593 4 OFFCURVE",
"593 18 CURVE",
"507 34 LINE",
"526 22 LINE",
"158 621 LINE",
"147 607 LINE",
"216 621 LINE SMOOTH",
"227 623 OFFCURVE",
"232 629 OFFCURVE",
"232 641 CURVE",
"69 641 LINE SMOOTH",
"55 641 OFFCURVE",
"52 637 OFFCURVE",
"52 623 CURVE",
"138 607 LINE",
"122 616 LINE",
"490 17 LINE",
"498 34 LINE",
"429 20 LINE SMOOTH",
"418 18 OFFCURVE",
"413 12 OFFCURVE",
"413 0 CURVE"
);
},
{
closed = 1;
nodes = (
"175 0 LINE SMOOTH",
"189 0 OFFCURVE",
"192 4 OFFCURVE",
"192 18 CURVE",
"123 31 LINE",
"125 23 LINE",
"326 331 LINE",
"310 343 LINE",
"98 18 LINE",
"114 30 LINE",
"58 20 LINE SMOOTH",
"47 18 OFFCURVE",
"42 12 OFFCURVE",
"42 0 CURVE"
);
},
{
closed = 1;
nodes = (
"526 627 LINE",
"509 611 LINE",
"565 621 LINE SMOOTH",
"576 623 OFFCURVE",
"581 629 OFFCURVE",
"581 641 CURVE",
"448 641 LINE SMOOTH",
"434 641 OFFCURVE",
"431 637 OFFCURVE",
"431 623 CURVE",
"500 610 LINE",
"499 622 LINE",
"313 332 LINE",
"330 321 LINE"
);
}
);
width = 634;
},
{
anchors = (
{
name = bottom;
position = "{343, 0}";
},
{
name = top;
position = "{343, 641}";
}
);
guideLines = (
{
angle = 232.2998;
position = "{324, 366}";
}
);
layerId = "7B53E429-1BF0-49C5-9F57-63EEBF39C6CC";
paths = (
{
closed = 1;
nodes = (
"662 1 LINE",
"679 28 OFFCURVE",
"684 51 OFFCURVE",
"684 77 CURVE",
"593 101 LINE",
"642 57 LINE",
"263 589 LINE",
"237 545 LINE",
"322 572 LINE SMOOTH",
"332 575 OFFCURVE",
"338 602 OFFCURVE",
"338 641 CURVE",
"35 641 LINE",
"18 614 OFFCURVE",
"13 591 OFFCURVE",
"13 565 CURVE",
"104 541 LINE",
"45 584 LINE",
"425 52 LINE",
"460 97 LINE",
"375 70 LINE SMOOTH",
"365 67 OFFCURVE",
"359 40 OFFCURVE",
"359 1 CURVE"
);
},
{
closed = 1;
nodes = (
"269 1 LINE",
"285 28 OFFCURVE",
"289 51 OFFCURVE",
"289 77 CURVE",
"173 101 LINE",
"183 58 LINE",
"352 276 LINE",
"264 326 LINE",
"53 53 LINE",
"113 99 LINE",
"19 70 LINE SMOOTH",
"9 67 OFFCURVE",
"3 40 OFFCURVE",
"3 1 CURVE"
);
},
{
closed = 1;
nodes = (
"625 589 LINE",
"565 543 LINE",
"659 572 LINE SMOOTH",
"669 575 OFFCURVE",
"675 602 OFFCURVE",
"675 641 CURVE",
"409 641 LINE",
"393 614 OFFCURVE",
"389 591 OFFCURVE",
"389 565 CURVE",
"505 541 LINE",
"495 584 LINE",
"326 366 LINE",
"414 316 LINE"
);
}
);
width = 686;
}
);
leftKerningGroup = X;
rightKerningGroup = X;
unicode = 0058;
},
{
color = 4;
glyphname = Y;
layers = (
{
anchors = (
{
name = bottom;
position = "{328, 0}";
},
{
name = top;
position = "{328, 641}";
},
{
name = topleft;
position = "{21, 641}";
}
);
background = {
paths = (
{
closed = 1;
nodes = (
"401 630 OFFCURVE",
"397 622 OFFCURVE",
"397 595 CURVE",
"476 574 LINE",
"341 322 LINE",
"179 579 LINE",
"253 602 LINE SMOOTH",
"265 606 OFFCURVE",
"269 625 OFFCURVE",
"269 641 CURVE",
"21 641 LINE",
"6 630 OFFCURVE",
"2 622 OFFCURVE",
"2 595 CURVE",
"81 574 LINE",
"282 260 LINE",
"282 62 LINE",
"219 39 LINE SMOOTH",
"207 35 OFFCURVE",
"203 16 OFFCURVE",
"203 0 CURVE",
"439 0 LINE",
"454 11 OFFCURVE",
"458 19 OFFCURVE",
"458 46 CURVE",
"368 67 LINE",
"368 260 LINE",
"543 579 LINE",
"617 602 LINE SMOOTH",
"629 606 OFFCURVE",
"633 625 OFFCURVE",
"633 641 CURVE",
"416 641 LINE"
);
}
);
};
layerId = "A9E90CC4-8E6C-407E-8E88-16513AA8D05B";
paths = (
{
closed = 1;
nodes = (
"548 589 LINE",
"530 575 LINE",
"617 602 LINE SMOOTH",
"629 606 OFFCURVE",
"633 625 OFFCURVE",
"633 641 CURVE",
"416 641 LINE",
"401 630 OFFCURVE",
"397 622 OFFCURVE",
"397 595 CURVE",
"486 572 LINE",
"481 584 LINE",
"330 309 LINE",
"349 308 LINE",
"169 589 LINE",
"162 575 LINE",
"249 602 LINE SMOOTH",
"261 606 OFFCURVE",
"265 625 OFFCURVE",
"265 641 CURVE",
"21 641 LINE",
"6 630 OFFCURVE",
"2 622 OFFCURVE",
"2 595 CURVE",
"94 570 LINE",
"75 584 LINE",
"328 188 LINE"
);
},
{
closed = 1;
nodes = (
"449 0 LINE",
"464 11 OFFCURVE",
"468 19 OFFCURVE",
"468 46 CURVE",
"358 69 LINE",
"368 57 LINE",
"368 275 LINE",
"282 275 LINE",
"282 52 LINE",
"292 66 LINE",
"209 39 LINE SMOOTH",
"197 35 OFFCURVE",
"193 16 OFFCURVE",
"193 0 CURVE"
);
}
);
width = 635;
},
{
anchors = (
{
name = bottom;
position = "{297, 0}";
},
{
name = top;
position = "{297, 641}";
},
{
name = topleft;
position = "{21, 641}";
}
);
layerId = "E1BF09ED-4302-4AD3-9939-8FDA35DE0FE8";
paths = (
{
closed = 1;
nodes = (
"500 622 LINE",
"490 611 LINE",
"545 621 LINE SMOOTH",
"556 623 OFFCURVE",
"561 629 OFFCURVE",
"561 641 CURVE",
"428 641 LINE",
"414 641 OFFCURVE",
"411 637 OFFCURVE",
"411 623 CURVE",
"480 610 LINE",
"475 617 LINE",
"293 268 LINE",
"313 272 LINE",
"101 621 LINE",
"92 607 LINE",
"164 621 LINE SMOOTH",
"175 623 OFFCURVE",
"180 629 OFFCURVE",
"180 641 CURVE",
"21 641 LINE",
"7 641 OFFCURVE",
"4 637 OFFCURVE",
"4 623 CURVE",
"83 607 LINE",
"65 616 LINE",
"298 234 LINE"
);
},
{
closed = 1;
nodes = (
"376 0 LINE SMOOTH",
"390 0 OFFCURVE",
"393 4 OFFCURVE",
"393 18 CURVE",
"302 34 LINE",
"313 17 LINE",
"313 275 LINE",
"280 275 LINE",
"280 12 LINE",
"293 34 LINE",
"219 20 LINE SMOOTH",
"208 18 OFFCURVE",
"203 12 OFFCURVE",
"203 0 CURVE"
);
}
);
width = 565;
},
{
anchors = (
{
name = bottom;
position = "{346, 0}";
},
{
name = top;
position = "{374, 641}";
},
{
name = topleft;
position = "{24, 641}";
}
);
guideLines = (
{
angle = 63.392;
position = "{359, 304}";
},
{
position = "{170, 366}";
}
);
layerId = "7B53E429-1BF0-49C5-9F57-63EEBF39C6CC";
paths = (
{
closed = 1;
nodes = (
"621 589 LINE",
"583 545 LINE",
"673 572 LINE SMOOTH",
"683 575 OFFCURVE",
"689 602 OFFCURVE",
"689 641 CURVE",
"430 641 LINE",
"414 614 OFFCURVE",
"410 591 OFFCURVE",
"410 565 CURVE",
"521 541 LINE",
"506 584 LINE",
"366 304 LINE",
"416 304 LINE",
"249 589 LINE",
"226 545 LINE",
"311 572 LINE SMOOTH",
"321 575 OFFCURVE",
"327 602 OFFCURVE",
"327 641 CURVE",
"24 641 LINE",
"7 614 OFFCURVE",
"2 591 OFFCURVE",
"2 565 CURVE",
"93 541 LINE",
"43 584 LINE",
"354 56 LINE"
);
},
{
closed = 1;
nodes = (
"489 0 LINE",
"505 29 OFFCURVE",
"509 50 OFFCURVE",
"509 76 CURVE",
"407 100 LINE",
"439 75 LINE",
"439 275 LINE",
"253 275 LINE",
"253 70 LINE",
"274 96 LINE",
"200 69 LINE SMOOTH",
"190 65 OFFCURVE",
"184 39 OFFCURVE",
"184 0 CURVE"
);
}
);
width = 691;
}
);
leftKerningGroup = Y;
leftMetricsKey = V;
rightKerningGroup = Y;
rightMetricsKey = V;
unicode = 0059;
},
{
color = 1;
glyphname = Yacute;
layers = (
{
background = {
paths = (
{
closed = 1;
nodes = (
"467 833 OFFCURVE",
"456 858 OFFCURVE",
"433 858 CURVE SMOOTH",
"402 858 OFFCURVE",
"349 825 OFFCURVE",
"213 743 CURVE",
"212 741 OFFCURVE",
"212 738 OFFCURVE",
"212 736 CURVE SMOOTH",
"212 728 OFFCURVE",
"216 721 OFFCURVE",
"226 715 CURVE",
"377 760 OFFCURVE",
"467 781 OFFCURVE",
"467 816 CURVE SMOOTH"
);
},
{
closed = 1;
nodes = (
"385 630 OFFCURVE",
"381 622 OFFCURVE",
"381 595 CURVE",
"460 574 LINE",
"325 322 LINE",
"163 579 LINE",
"237 602 LINE SMOOTH",
"249 606 OFFCURVE",
"253 625 OFFCURVE",
"253 641 CURVE",
"5 641 LINE",
"-10 630 OFFCURVE",
"-14 622 OFFCURVE",
"-14 595 CURVE",
"65 574 LINE",
"266 260 LINE",
"266 62 LINE",
"203 39 LINE SMOOTH",
"191 35 OFFCURVE",
"187 16 OFFCURVE",
"187 0 CURVE",
"423 0 LINE",
"438 11 OFFCURVE",
"442 19 OFFCURVE",
"442 46 CURVE",
"352 67 LINE",
"352 260 LINE",
"527 579 LINE",
"601 602 LINE SMOOTH",
"613 606 OFFCURVE",
"617 625 OFFCURVE",
"617 641 CURVE",
"400 641 LINE"
);
}
);
};
components = (
{
name = Y;
},
{
name = acutecomb.case;
transform = "{1, 0, 0, 1, 214, 198}";
}
);
layerId = "A9E90CC4-8E6C-407E-8E88-16513AA8D05B";
width = 635;
},
{
components = (
{
name = Y;
},
{
name = acutecomb.case;
transform = "{1, 0, 0, 1, 199, 198}";
}
);
layerId = "E1BF09ED-4302-4AD3-9939-8FDA35DE0FE8";
width = 565;
},
{
components = (
{
name = Y;
},
{
name = acutecomb.case;
transform = "{1, 0, 0, 1, 227, 198}";
}
);
layerId = "7B53E429-1BF0-49C5-9F57-63EEBF39C6CC";
width = 691;
}
);
leftKerningGroup = Y;
rightKerningGroup = Y;
unicode = 00DD;
},
{
color = 1;
glyphname = Ydieresis;
layers = (
{
background = {
paths = (
{
closed = 1;
nodes = (
"160 775 OFFCURVE",
"175 756 OFFCURVE",
"206 756 CURVE SMOOTH",
"230 756 OFFCURVE",
"253 777 OFFCURVE",
"253 802 CURVE SMOOTH",
"253 829 OFFCURVE",
"237 848 OFFCURVE",
"206 848 CURVE SMOOTH",
"183 848 OFFCURVE",
"160 827 OFFCURVE",
"160 802 CURVE SMOOTH"
);
},
{
closed = 1;
nodes = (
"367 775 OFFCURVE",
"382 756 OFFCURVE",
"413 756 CURVE SMOOTH",
"437 756 OFFCURVE",
"460 777 OFFCURVE",
"460 802 CURVE SMOOTH",
"460 829 OFFCURVE",
"444 848 OFFCURVE",
"413 848 CURVE SMOOTH",
"390 848 OFFCURVE",
"367 827 OFFCURVE",
"367 802 CURVE SMOOTH"
);
},
{
closed = 1;
nodes = (
"385 630 OFFCURVE",
"381 622 OFFCURVE",
"381 595 CURVE",
"460 574 LINE",
"325 322 LINE",
"163 579 LINE",
"237 602 LINE SMOOTH",
"249 606 OFFCURVE",
"253 625 OFFCURVE",
"253 641 CURVE",
"5 641 LINE",
"-10 630 OFFCURVE",
"-14 622 OFFCURVE",
"-14 595 CURVE",
"65 574 LINE",
"266 260 LINE",
"266 62 LINE",
"203 39 LINE SMOOTH",
"191 35 OFFCURVE",
"187 16 OFFCURVE",
"187 0 CURVE",
"423 0 LINE",
"438 11 OFFCURVE",
"442 19 OFFCURVE",
"442 46 CURVE",
"352 67 LINE",
"352 260 LINE",
"527 579 LINE",
"601 602 LINE SMOOTH",
"613 606 OFFCURVE",
"617 625 OFFCURVE",
"617 641 CURVE",
"400 641 LINE"
);
}
);
};
components = (
{
name = Y;
},
{
name = dieresiscomb.case;
transform = "{1, 0, 0, 1, 179, 198}";
}
);
layerId = "A9E90CC4-8E6C-407E-8E88-16513AA8D05B";
width = 635;
},
{
components = (
{
name = Y;
},
{
name = dieresiscomb.case;
transform = "{1, 0, 0, 1, 196, 198}";
}
);
layerId = "E1BF09ED-4302-4AD3-9939-8FDA35DE0FE8";
width = 565;
},
{
components = (
{
name = Y;
},
{
name = dieresiscomb.case;
transform = "{1, 0, 0, 1, 160, 198}";
}
);
layerId = "7B53E429-1BF0-49C5-9F57-63EEBF39C6CC";
width = 691;
}
);
leftKerningGroup = Y;
rightKerningGroup = Y;
unicode = 0178;
},
{
color = 4;
glyphname = Z;
layers = (
{
anchors = (
{
name = bottom;
position = "{288, 0}";
},
{
name = center;
position = "{288, 321}";
},
{
name = top;
position = "{288, 641}";
}
);
background = {
paths = (
{
closed = 1;
nodes = (
"57 478 LINE",
"73 478 OFFCURVE",
"92 482 OFFCURVE",
"96 494 CURVE SMOOTH",
"129 595 LINE",
"395 579 LINE",
"45 46 LINE SMOOTH",
"40 39 OFFCURVE",
"38 32 OFFCURVE",
"38 25 CURVE SMOOTH",
"38 10 OFFCURVE",
"47 0 OFFCURVE",
"64 0 CURVE SMOOTH",
"533 0 LINE",
"533 159 LINE",
"522 174 OFFCURVE",
"514 178 OFFCURVE",
"487 178 CURVE",
"456 46 LINE",
"161 67 LINE",
"508 595 LINE SMOOTH",
"513 602 OFFCURVE",
"515 610 OFFCURVE",
"515 617 CURVE SMOOTH",
"515 632 OFFCURVE",
"506 641 OFFCURVE",
"490 641 CURVE SMOOTH",
"57 641 LINE"
);
}
);
};
layerId = "A9E90CC4-8E6C-407E-8E88-16513AA8D05B";
paths = (
{
closed = 1;
nodes = (
"533 0 LINE",
"533 159 LINE",
"522 174 OFFCURVE",
"514 178 OFFCURVE",
"487 178 CURVE",
"454 36 LINE",
"466 45 LINE",
"147 68 LINE",
"150 57 LINE",
"508 595 LINE SMOOTH",
"513 602 OFFCURVE",
"515 610 OFFCURVE",
"515 617 CURVE SMOOTH",
"515 632 OFFCURVE",
"506 641 OFFCURVE",
"490 641 CURVE",
"57 641 LINE",
"57 478 LINE",
"73 478 OFFCURVE",
"92 482 OFFCURVE",
"96 494 CURVE SMOOTH",
"132 605 LINE",
"119 596 LINE",
"408 578 LINE",
"405 589 LINE",
"45 46 LINE SMOOTH",
"40 39 OFFCURVE",
"38 32 OFFCURVE",
"38 25 CURVE SMOOTH",
"38 10 OFFCURVE",
"47 0 OFFCURVE",
"64 0 CURVE SMOOTH"
);
}
);
width = 576;
},
{
anchors = (
{
name = bottom;
position = "{300, 0}";
},
{
name = center;
position = "{300, 321}";
},
{
name = top;
position = "{300, 641}";
}
);
layerId = "E1BF09ED-4302-4AD3-9939-8FDA35DE0FE8";
paths = (
{
closed = 1;
nodes = (
"510 0 LINE",
"510 118 LINE SMOOTH",
"510 125 OFFCURVE",
"507 131 OFFCURVE",
"492 131 CURVE",
"467 7 LINE",
"480 16 LINE",
"80 34 LINE",
"90 23 LINE",
"486 595 LINE SMOOTH",
"491 602 OFFCURVE",
"493 608 OFFCURVE",
"493 615 CURVE SMOOTH",
"493 630 OFFCURVE",
"484 641 OFFCURVE",
"468 641 CURVE SMOOTH",
"77 641 LINE",
"77 517 LINE",
"86 517 OFFCURVE",
"93 521 OFFCURVE",
"97 533 CURVE SMOOTH",
"121 634 LINE",
"107 625 LINE",
"477 612 LINE",
"467 625 LINE",
"66 46 LINE SMOOTH",
"61 39 OFFCURVE",
"59 32 OFFCURVE",
"59 25 CURVE SMOOTH",
"59 10 OFFCURVE",
"68 0 OFFCURVE",
"85 0 CURVE SMOOTH"
);
}
);
width = 600;
},
{
anchors = (
{
name = bottom;
position = "{322, 0}";
},
{
name = center;
position = "{322, 321}";
},
{
name = top;
position = "{322, 641}";
}
);
layerId = "7B53E429-1BF0-49C5-9F57-63EEBF39C6CC";
paths = (
{
closed = 1;
nodes = (
"601 0 LINE",
"601 188 LINE",
"574 205 OFFCURVE",
"551 210 OFFCURVE",
"525 210 CURVE",
"491 72 LINE",
"534 93 LINE",
"267 112 LINE",
"266 57 LINE",
"576 595 LINE SMOOTH",
"580 602 OFFCURVE",
"583 610 OFFCURVE",
"583 617 CURVE SMOOTH",
"583 632 OFFCURVE",
"574 641 OFFCURVE",
"558 641 CURVE SMOOTH",
"63 641 LINE",
"63 453 LINE",
"113 453 OFFCURVE",
"129 461 OFFCURVE",
"133 473 CURVE SMOOTH",
"162 558 LINE",
"125 548 LINE",
"363 530 LINE",
"365 589 LINE",
"51 46 LINE SMOOTH",
"47 39 OFFCURVE",
"44 32 OFFCURVE",
"44 25 CURVE SMOOTH",
"44 10 OFFCURVE",
"53 0 OFFCURVE",
"70 0 CURVE SMOOTH"
);
}
);
width = 648;
}
);
leftKerningGroup = Z;
rightKerningGroup = Z;
unicode = 005A;
},
{
color = 1;
glyphname = Zcaron;
layers = (
{
background = {
paths = (
{
closed = 1;
nodes = (
"135 858 LINE",
"126 853 OFFCURVE",
"121 845 OFFCURVE",
"121 836 CURVE SMOOTH",
"121 833 OFFCURVE",
"121 831 OFFCURVE",
"122 830 CURVE",
"259 734 LINE SMOOTH",
"277 721 OFFCURVE",
"292 715 OFFCURVE",
"301 715 CURVE SMOOTH",
"311 715 OFFCURVE",
"324 718 OFFCURVE",
"347 734 CURVE SMOOTH",
"484 830 LINE",
"485 831 OFFCURVE",
"485 833 OFFCURVE",
"485 836 CURVE SMOOTH",
"485 845 OFFCURVE",
"480 853 OFFCURVE",
"471 858 CURVE",
"303 786 LINE"
);
},
{
closed = 1;
nodes = (
"57 478 LINE",
"73 478 OFFCURVE",
"92 482 OFFCURVE",
"96 494 CURVE SMOOTH",
"129 595 LINE",
"395 579 LINE",
"45 46 LINE SMOOTH",
"40 39 OFFCURVE",
"38 32 OFFCURVE",
"38 25 CURVE SMOOTH",
"38 10 OFFCURVE",
"47 0 OFFCURVE",
"64 0 CURVE SMOOTH",
"533 0 LINE",
"533 159 LINE",
"522 174 OFFCURVE",
"514 178 OFFCURVE",
"487 178 CURVE",
"456 46 LINE",
"161 67 LINE",
"508 595 LINE SMOOTH",
"513 602 OFFCURVE",
"515 610 OFFCURVE",
"515 617 CURVE SMOOTH",
"515 632 OFFCURVE",
"506 641 OFFCURVE",
"490 641 CURVE SMOOTH",
"57 641 LINE"
);
}
);
};
components = (
{
name = Z;
},
{
name = caroncomb.case;
transform = "{1, 0, 0, 1, 140, 198}";
}
);
layerId = "A9E90CC4-8E6C-407E-8E88-16513AA8D05B";
width = 576;
},
{
components = (
{
name = Z;
},
{
name = caroncomb.case;
transform = "{1, 0, 0, 1, 172, 198}";
}
);
layerId = "E1BF09ED-4302-4AD3-9939-8FDA35DE0FE8";
width = 600;
},
{
components = (
{
name = Z;
},
{
name = caroncomb.case;
transform = "{1, 0, 0, 1, 138, 198}";
}
);
layerId = "7B53E429-1BF0-49C5-9F57-63EEBF39C6CC";
width = 648;
}
);
leftKerningGroup = Z;
rightKerningGroup = Z;
unicode = 017D;
},
{
color = 4;
glyphname = O.OE;
layers = (
{
anchors = (
{
name = "#exit";
position = "{373, 0}";
}
);
background = {
paths = (
{
closed = 1;
nodes = (
"571 -12 OFFCURVE",
"691 171 OFFCURVE",
"691 347 CURVE SMOOTH",
"691 506 OFFCURVE",
"593 655 OFFCURVE",
"378 655 CURVE SMOOTH",
"168 655 OFFCURVE",
"48 472 OFFCURVE",
"48 296 CURVE SMOOTH",
"48 139 OFFCURVE",
"145 -12 OFFCURVE",
"361 -12 CURVE SMOOTH"
);
},
{
closed = 1;
nodes = (
"226 37 OFFCURVE",
"149 172 OFFCURVE",
"149 326 CURVE SMOOTH",
"149 478 OFFCURVE",
"210 606 OFFCURVE",
"370 606 CURVE SMOOTH",
"512 606 OFFCURVE",
"589 472 OFFCURVE",
"589 317 CURVE SMOOTH",
"589 161 OFFCURVE",
"524 37 OFFCURVE",
"368 37 CURVE SMOOTH"
);
}
);
};
layerId = "A9E90CC4-8E6C-407E-8E88-16513AA8D05B";
paths = (
{
closed = 1;
nodes = (
"389 39 LINE",
"241 39 OFFCURVE",
"144 155 OFFCURVE",
"144 334 CURVE SMOOTH",
"144 495 OFFCURVE",
"231 595 OFFCURVE",
"373 595 CURVE",
"392 641 LINE",
"193 641 OFFCURVE",
"48 490 OFFCURVE",
"48 297 CURVE SMOOTH",
"48 120 OFFCURVE",
"180 0 OFFCURVE",
"373 0 CURVE"
);
}
);
width = 392;
},
{
anchors = (
{
name = "#exit";
position = "{371, 0}";
}
);
layerId = "E1BF09ED-4302-4AD3-9939-8FDA35DE0FE8";
paths = (
{
closed = 1;
nodes = (
"387 20 LINE",
"213 20 OFFCURVE",
"110 138 OFFCURVE",
"110 335 CURVE SMOOTH",
"110 508 OFFCURVE",
"234 623 OFFCURVE",
"371 623 CURVE",
"389 641 LINE",
"217 641 OFFCURVE",
"71 493 OFFCURVE",
"71 297 CURVE SMOOTH",
"71 130 OFFCURVE",
"193 0 OFFCURVE",
"371 0 CURVE"
);
}
);
width = 389;
},
{
anchors = (
{
name = "#exit";
position = "{358, 0}";
}
);
layerId = "7B53E429-1BF0-49C5-9F57-63EEBF39C6CC";
paths = (
{
closed = 1;
nodes = (
"374 69 LINE",
"282 69 OFFCURVE",
"221 174 OFFCURVE",
"221 333 CURVE SMOOTH",
"221 477 OFFCURVE",
"272 565 OFFCURVE",
"358 565 CURVE",
"380 641 LINE",
"177 641 OFFCURVE",
"25 493 OFFCURVE",
"25 298 CURVE SMOOTH",
"25 121 OFFCURVE",
"159 0 OFFCURVE",
"358 0 CURVE"
);
}
);
width = 380;
}
);
leftKerningGroup = O;
leftMetricsKey = O;
rightKerningGroup = O;
},
{
color = 4;
glyphname = U.horn;
layers = (
{
anchors = (
{
name = bottom;
position = "{369, 0}";
},
{
name = ogonek;
position = "{458, 0}";
},
{
name = top;
position = "{369, 641}";
},
{
name = topright;
position = "{532, 641}";
}
);
background = {
paths = (
{
closed = 1;
nodes = (
"270 602 LINE SMOOTH",
"282 606 OFFCURVE",
"286 625 OFFCURVE",
"286 641 CURVE",
"46 641 LINE",
"31 630 OFFCURVE",
"27 622 OFFCURVE",
"27 595 CURVE",
"106 574 LINE",
"106 211 LINE SMOOTH",
"106 77 OFFCURVE",
"184 -12 OFFCURVE",
"365 -12 CURVE SMOOTH",
"533 -12 OFFCURVE",
"610 85 OFFCURVE",
"610 214 CURVE SMOOTH",
"610 579 LINE",
"679 602 LINE SMOOTH",
"691 606 OFFCURVE",
"695 625 OFFCURVE",
"695 641 CURVE",
"484 641 LINE",
"469 630 OFFCURVE",
"465 622 OFFCURVE",
"465 595 CURVE",
"544 574 LINE",
"544 206 LINE SMOOTH",
"544 80 OFFCURVE",
"477 41 OFFCURVE",
"365 41 CURVE SMOOTH",
"257 41 OFFCURVE",
"196 91 OFFCURVE",
"196 204 CURVE SMOOTH",
"196 579 LINE"
);
}
);
};
layerId = "A9E90CC4-8E6C-407E-8E88-16513AA8D05B";
paths = (
{
closed = 1;
nodes = (
"512 -12 OFFCURVE",
"600 69 OFFCURVE",
"600 214 CURVE SMOOTH",
"600 641 LINE",
"484 641 LINE",
"469 630 OFFCURVE",
"465 621 OFFCURVE",
"465 595 CURVE",
"554 571 LINE",
"544 584 LINE",
"544 206 LINE SMOOTH",
"544 98 OFFCURVE",
"481 38 OFFCURVE",
"368 38 CURVE SMOOTH",
"250 38 OFFCURVE",
"192 92 OFFCURVE",
"192 204 CURVE SMOOTH",
"192 589 LINE",
"176 573 LINE",
"270 602 LINE SMOOTH",
"280 605 OFFCURVE",
"286 620 OFFCURVE",
"286 641 CURVE",
"46 641 LINE",
"31 630 OFFCURVE",
"27 621 OFFCURVE",
"27 595 CURVE",
"116 571 LINE",
"106 584 LINE",
"106 211 LINE SMOOTH",
"106 69 OFFCURVE",
"197 -12 OFFCURVE",
"355 -12 CURVE SMOOTH"
);
}
);
width = 696;
},
{
anchors = (
{
name = bottom;
position = "{356, 0}";
},
{
name = ogonek;
position = "{444, 0}";
},
{
name = top;
position = "{356, 641}";
},
{
name = topright;
position = "{521, 641}";
}
);
layerId = "E1BF09ED-4302-4AD3-9939-8FDA35DE0FE8";
paths = (
{
closed = 1;
nodes = (
"510 -12 OFFCURVE",
"581 75 OFFCURVE",
"581 214 CURVE SMOOTH",
"581 641 LINE",
"516 641 LINE",
"502 641 OFFCURVE",
"499 637 OFFCURVE",
"499 623 CURVE",
"566 610 LINE",
"561 619 LINE",
"561 206 LINE SMOOTH",
"561 56 OFFCURVE",
"467 7 OFFCURVE",
"355 7 CURVE SMOOTH",
"257 7 OFFCURVE",
"149 67 OFFCURVE",
"149 204 CURVE SMOOTH",
"149 619 LINE",
"139 607 LINE",
"203 621 LINE SMOOTH",
"214 623 OFFCURVE",
"219 629 OFFCURVE",
"219 641 CURVE",
"66 641 LINE SMOOTH",
"52 641 OFFCURVE",
"49 637 OFFCURVE",
"49 623 CURVE",
"130 607 LINE",
"116 618 LINE",
"116 211 LINE SMOOTH",
"116 77 OFFCURVE",
"188 -12 OFFCURVE",
"355 -12 CURVE SMOOTH"
);
}
);
width = 685;
},
{
anchors = (
{
name = bottom;
position = "{402, 0}";
},
{
name = ogonek;
position = "{482, 0}";
},
{
name = top;
position = "{402, 641}";
},
{
name = topright;
position = "{564, 641}";
}
);
layerId = "7B53E429-1BF0-49C5-9F57-63EEBF39C6CC";
paths = (
{
closed = 1;
nodes = (
"566 -12 OFFCURVE",
"644 105 OFFCURVE",
"644 214 CURVE SMOOTH",
"644 641 LINE",
"470 641 LINE",
"454 614 OFFCURVE",
"450 591 OFFCURVE",
"450 565 CURVE",
"556 538 LINE",
"544 584 LINE",
"544 256 LINE SMOOTH",
"544 147 OFFCURVE",
"516 87 OFFCURVE",
"395 87 CURVE SMOOTH",
"294 87 OFFCURVE",
"277 138 OFFCURVE",
"277 254 CURVE SMOOTH",
"277 571 LINE",
"247 545 LINE",
"332 572 LINE SMOOTH",
"342 575 OFFCURVE",
"348 602 OFFCURVE",
"348 641 CURVE",
"45 641 LINE",
"28 614 OFFCURVE",
"23 591 OFFCURVE",
"23 565 CURVE",
"114 541 LINE",
"91 566 LINE",
"91 211 LINE SMOOTH",
"91 77 OFFCURVE",
"169 -12 OFFCURVE",
"394 -12 CURVE SMOOTH"
);
}
);
width = 750;
}
);
leftKerningGroup = U;
leftMetricsKey = "=H*.6";
rightKerningGroup = U;
},
{
color = 4;
glyphname = Q.ss01;
layers = (
{
anchors = (
{
name = bottom;
position = "{370, 0}";
},
{
name = top;
position = "{370, 641}";
}
);
background = {
paths = (
{
closed = 1;
nodes = (
"374 -12 OFFCURVE",
"387 -11 OFFCURVE",
"400 -9 CURVE",
"556 -82 OFFCURVE",
"808 -183 OFFCURVE",
"932 -183 CURVE SMOOTH",
"991 -183 OFFCURVE",
"1015 -154 OFFCURVE",
"1015 -129 CURVE SMOOTH",
"1015 -120 OFFCURVE",
"1012 -112 OFFCURVE",
"1005 -105 CURVE",
"819 -105 OFFCURVE",
"575 -17 OFFCURVE",
"494 16 CURVE",
"620 74 OFFCURVE",
"691 213 OFFCURVE",
"691 347 CURVE SMOOTH",
"691 506 OFFCURVE",
"593 655 OFFCURVE",
"378 655 CURVE SMOOTH",
"168 655 OFFCURVE",
"48 472 OFFCURVE",
"48 296 CURVE SMOOTH",
"48 139 OFFCURVE",
"145 -12 OFFCURVE",
"361 -12 CURVE SMOOTH"
);
},
{
closed = 1;
nodes = (
"226 37 OFFCURVE",
"149 172 OFFCURVE",
"149 326 CURVE SMOOTH",
"149 478 OFFCURVE",
"210 606 OFFCURVE",
"370 606 CURVE SMOOTH",
"512 606 OFFCURVE",
"589 472 OFFCURVE",
"589 317 CURVE SMOOTH",
"589 161 OFFCURVE",
"524 37 OFFCURVE",
"368 37 CURVE SMOOTH"
);
}
);
};
layerId = "A9E90CC4-8E6C-407E-8E88-16513AA8D05B";
paths = (
{
closed = 1;
nodes = (
"991 -183 OFFCURVE",
"1015 -154 OFFCURVE",
"1015 -129 CURVE SMOOTH",
"1015 -120 OFFCURVE",
"1012 -112 OFFCURVE",
"1005 -105 CURVE",
"819 -105 OFFCURVE",
"562 -13 OFFCURVE",
"482 21 CURVE",
"484 11 LINE",
"618 68 OFFCURVE",
"691 213 OFFCURVE",
"691 347 CURVE SMOOTH",
"691 506 OFFCURVE",
"593 655 OFFCURVE",
"378 655 CURVE SMOOTH",
"168 655 OFFCURVE",
"48 472 OFFCURVE",
"48 296 CURVE SMOOTH",
"48 139 OFFCURVE",
"145 -12 OFFCURVE",
"361 -12 CURVE SMOOTH",
"374 -12 OFFCURVE",
"397 -10 OFFCURVE",
"410 -8 CURVE",
"378 1 LINE",
"534 -74 OFFCURVE",
"808 -183 OFFCURVE",
"932 -183 CURVE SMOOTH"
);
},
{
closed = 1;
nodes = (
"226 37 OFFCURVE",
"149 172 OFFCURVE",
"149 326 CURVE SMOOTH",
"149 478 OFFCURVE",
"210 606 OFFCURVE",
"370 606 CURVE SMOOTH",
"512 606 OFFCURVE",
"589 472 OFFCURVE",
"589 317 CURVE SMOOTH",
"589 161 OFFCURVE",
"524 37 OFFCURVE",
"368 37 CURVE SMOOTH"
);
}
);
width = 739;
},
{
anchors = (
{
name = bottom;
position = "{370, 0}";
},
{
name = top;
position = "{370, 641}";
}
);
layerId = "E1BF09ED-4302-4AD3-9939-8FDA35DE0FE8";
paths = (
{
closed = 1;
nodes = (
"968 -163 OFFCURVE",
"988 -155 OFFCURVE",
"988 -143 CURVE SMOOTH",
"988 -140 OFFCURVE",
"988 -137 OFFCURVE",
"986 -134 CURVE",
"798 -129 OFFCURVE",
"535 -28 OFFCURVE",
"451 15 CURVE",
"455 7 LINE",
"583 56 OFFCURVE",
"668 192 OFFCURVE",
"668 348 CURVE SMOOTH",
"668 520 OFFCURVE",
"555 655 OFFCURVE",
"389 655 CURVE SMOOTH",
"217 655 OFFCURVE",
"71 501 OFFCURVE",
"71 297 CURVE SMOOTH",
"71 123 OFFCURVE",
"184 -12 OFFCURVE",
"350 -12 CURVE SMOOTH",
"384 -12 OFFCURVE",
"417 -6 OFFCURVE",
"448 4 CURVE",
"429 7 LINE",
"578 -70 OFFCURVE",
"815 -163 OFFCURVE",
"942 -163 CURVE SMOOTH"
);
},
{
closed = 1;
nodes = (
"210 16 OFFCURVE",
"110 135 OFFCURVE",
"110 335 CURVE SMOOTH",
"110 510 OFFCURVE",
"227 626 OFFCURVE",
"357 626 CURVE SMOOTH",
"527 626 OFFCURVE",
"628 507 OFFCURVE",
"628 308 CURVE SMOOTH",
"628 142 OFFCURVE",
"523 16 OFFCURVE",
"380 16 CURVE SMOOTH"
);
}
);
width = 739;
},
{
anchors = (
{
name = bottom;
position = "{358, 0}";
},
{
name = top;
position = "{358, 641}";
}
);
layerId = "7B53E429-1BF0-49C5-9F57-63EEBF39C6CC";
paths = (
{
closed = 1;
nodes = (
"970 -191 OFFCURVE",
"994 -142 OFFCURVE",
"994 -99 CURVE SMOOTH",
"994 -84 OFFCURVE",
"991 -71 OFFCURVE",
"984 -63 CURVE",
"830 -63 OFFCURVE",
"613 15 OFFCURVE",
"506 58 CURVE",
"525 40 LINE",
"627 101 OFFCURVE",
"690 217 OFFCURVE",
"690 345 CURVE SMOOTH",
"690 529 OFFCURVE",
"565 655 OFFCURVE",
"380 655 CURVE SMOOTH",
"177 655 OFFCURVE",
"25 501 OFFCURVE",
"25 298 CURVE SMOOTH",
"25 114 OFFCURVE",
"150 -12 OFFCURVE",
"336 -12 CURVE SMOOTH",
"355 -12 OFFCURVE",
"386 -9 OFFCURVE",
"404 -6 CURVE",
"377 -1 LINE",
"537 -76 OFFCURVE",
"796 -191 OFFCURVE",
"911 -191 CURVE SMOOTH"
);
},
{
closed = 1;
nodes = (
"277 87 OFFCURVE",
"221 184 OFFCURVE",
"221 333 CURVE SMOOTH",
"221 472 OFFCURVE",
"270 556 OFFCURVE",
"353 556 CURVE SMOOTH",
"438 556 OFFCURVE",
"494 459 OFFCURVE",
"494 310 CURVE SMOOTH",
"494 171 OFFCURVE",
"445 87 OFFCURVE",
"362 87 CURVE SMOOTH"
);
}
);
width = 715;
}
);
leftKerningGroup = O;
leftMetricsKey = O;
rightKerningGroup = Q;
},
{
export = 0;
glyphname = C.sup;
layers = (
{
layerId = "E1BF09ED-4302-4AD3-9939-8FDA35DE0FE8";
paths = (
{
closed = 1;
nodes = (
"229 324 OFFCURVE",
"269 337 OFFCURVE",
"302 365 CURVE",
"297 424 LINE",
"294 429 OFFCURVE",
"286 431 OFFCURVE",
"274 431 CURVE",
"267 366 LINE",
"274 381 LINE",
"254 355 OFFCURVE",
"222 344 OFFCURVE",
"191 344 CURVE SMOOTH",
"113 344 OFFCURVE",
"58 402 OFFCURVE",
"58 485 CURVE SMOOTH",
"58 577 OFFCURVE",
"111 637 OFFCURVE",
"193 637 CURVE SMOOTH",
"224 637 OFFCURVE",
"253 628 OFFCURVE",
"273 611 CURVE",
"267 622 LINE",
"273 572 LINE SMOOTH",
"274 567 OFFCURVE",
"284 563 OFFCURVE",
"292 563 CURVE",
"302 633 LINE",
"275 649 OFFCURVE",
"241 658 OFFCURVE",
"207 658 CURVE SMOOTH",
"107 658 OFFCURVE",
"30 579 OFFCURVE",
"30 476 CURVE SMOOTH",
"30 386 OFFCURVE",
"93 324 OFFCURVE",
"187 324 CURVE SMOOTH"
);
}
);
userData = {
RMXScaler = {
height = 50;
verticalShift = 330;
width = 52;
};
};
width = 331;
},
{
layerId = "A9E90CC4-8E6C-407E-8E88-16513AA8D05B";
paths = (
{
closed = 1;
nodes = (
"238 324 OFFCURVE",
"289 342 OFFCURVE",
"312 365 CURVE",
"308 443 LINE",
"304 450 OFFCURVE",
"296 451 OFFCURVE",
"275 451 CURVE",
"267 373 LINE",
"281 402 LINE",
"265 379 OFFCURVE",
"232 365 OFFCURVE",
"198 365 CURVE SMOOTH",
"139 365 OFFCURVE",
"100 413 OFFCURVE",
"100 489 CURVE SMOOTH",
"100 569 OFFCURVE",
"137 616 OFFCURVE",
"199 616 CURVE SMOOTH",
"232 616 OFFCURVE",
"263 606 OFFCURVE",
"281 591 CURVE",
"267 610 LINE",
"273 560 LINE SMOOTH",
"274 554 OFFCURVE",
"285 551 OFFCURVE",
"302 551 CURVE",
"312 633 LINE",
"286 649 OFFCURVE",
"249 658 OFFCURVE",
"211 658 CURVE SMOOTH",
"102 658 OFFCURVE",
"20 581 OFFCURVE",
"20 478 CURVE SMOOTH",
"20 386 OFFCURVE",
"87 324 OFFCURVE",
"185 324 CURVE SMOOTH"
);
}
);
userData = {
RMXScaler = {
height = 50;
verticalShift = 330;
weight = -10;
width = 52;
};
};
width = 347;
},
{
layerId = "7B53E429-1BF0-49C5-9F57-63EEBF39C6CC";
paths = (
{
closed = 1;
nodes = (
"252 324 OFFCURVE",
"293 339 OFFCURVE",
"324 370 CURVE",
"316 447 LINE",
"309 451 OFFCURVE",
"298 453 OFFCURVE",
"274 453 CURVE",
"264 375 LINE",
"276 400 LINE",
"254 378 OFFCURVE",
"233 368 OFFCURVE",
"204 368 CURVE SMOOTH",
"152 368 OFFCURVE",
"118 416 OFFCURVE",
"118 488 CURVE SMOOTH",
"118 568 OFFCURVE",
"149 615 OFFCURVE",
"203 615 CURVE SMOOTH",
"231 615 OFFCURVE",
"254 605 OFFCURVE",
"279 583 CURVE",
"266 603 LINE",
"276 551 LINE SMOOTH",
"277 546 OFFCURVE",
"291 542 OFFCURVE",
"313 540 CURVE",
"323 632 LINE",
"294 648 OFFCURVE",
"250 658 OFFCURVE",
"203 658 CURVE SMOOTH",
"98 658 OFFCURVE",
"18 583 OFFCURVE",
"18 483 CURVE SMOOTH",
"18 385 OFFCURVE",
"87 324 OFFCURVE",
"198 324 CURVE SMOOTH"
);
}
);
userData = {
RMXScaler = {
adjustSpace = 5;
height = 50;
verticalShift = 330;
weight = -100;
width = 52;
};
};
width = 351;
}
);
leftKerningGroup = O.sup;
rightKerningGroup = C.sup;
userData = {
RMXScaler = {
source = C;
};
};
},
{
export = 0;
glyphname = M.sup;
layers = (
{
anchors = (
{
name = bottom;
position = "{231, 330}";
},
{
name = top;
position = "{231, 651}";
}
);
layerId = "E1BF09ED-4302-4AD3-9939-8FDA35DE0FE8";
paths = (
{
closed = 1;
nodes = (
"230 329 OFFCURVE",
"234 332 OFFCURVE",
"237 340 CURVE SMOOTH",
"350 631 LINE",
"343 631 LINE",
"367 349 LINE",
"371 358 LINE",
"333 346 LINE SMOOTH",
"327 344 OFFCURVE",
"325 337 OFFCURVE",
"325 332 CURVE",
"433 332 LINE SMOOTH",
"440 332 OFFCURVE",
"443 336 OFFCURVE",
"443 348 CURVE",
"395 358 LINE",
"400 351 LINE",
"376 633 LINE",
"370 624 LINE",
"411 634 LINE SMOOTH",
"416 635 OFFCURVE",
"419 642 OFFCURVE",
"419 651 CURVE",
"334 651 LINE",
"228 376 LINE",
"237 376 LINE",
"127 649 LINE",
"57 649 LINE SMOOTH",
"50 649 OFFCURVE",
"47 645 OFFCURVE",
"47 633 CURVE",
"90 622 LINE",
"87 631 LINE",
"59 349 LINE",
"64 357 LINE",
"29 346 LINE SMOOTH",
"23 344 OFFCURVE",
"21 338 OFFCURVE",
"21 332 CURVE",
"115 332 LINE SMOOTH",
"122 332 OFFCURVE",
"125 336 OFFCURVE",
"125 348 CURVE",
"78 358 LINE",
"81 351 LINE",
"108 628 LINE",
"101 628 LINE",
"220 331 LINE",
"222 329 OFFCURVE",
"224 329 OFFCURVE",
"227 329 CURVE SMOOTH"
);
}
);
userData = {
RMXScaler = {
height = 50;
verticalShift = 330;
width = 52;
};
};
width = 461;
},
{
anchors = (
{
name = bottom;
position = "{240, 330}";
},
{
name = top;
position = "{240, 651}";
}
);
layerId = "A9E90CC4-8E6C-407E-8E88-16513AA8D05B";
paths = (
{
closed = 1;
nodes = (
"238 329 OFFCURVE",
"249 332 OFFCURVE",
"252 340 CURVE SMOOTH",
"351 624 LINE",
"332 624 LINE",
"356 348 LINE",
"368 369 LINE",
"327 359 LINE SMOOTH",
"322 358 OFFCURVE",
"319 349 OFFCURVE",
"319 330 CURVE",
"452 330 LINE",
"460 340 OFFCURVE",
"462 351 OFFCURVE",
"462 360 CURVE",
"419 370 LINE",
"428 350 LINE",
"404 634 LINE",
"388 611 LINE",
"431 622 LINE SMOOTH",
"436 623 OFFCURVE",
"439 636 OFFCURVE",
"439 651 CURVE",
"318 651 LINE",
"232 409 LINE",
"263 409 LINE",
"174 651 LINE",
"59 651 LINE",
"50 640 OFFCURVE",
"48 630 OFFCURVE",
"48 621 CURVE",
"92 611 LINE",
"89 632 LINE",
"61 349 LINE",
"70 369 LINE",
"30 359 LINE SMOOTH",
"25 358 OFFCURVE",
"22 347 OFFCURVE",
"22 330 CURVE",
"136 330 LINE",
"144 340 OFFCURVE",
"146 349 OFFCURVE",
"146 360 CURVE",
"97 370 LINE",
"101 351 LINE",
"127 621 LINE",
"107 621 LINE",
"215 331 LINE",
"217 329 OFFCURVE",
"226 329 OFFCURVE",
"230 329 CURVE SMOOTH"
);
}
);
userData = {
RMXScaler = {
height = 50;
verticalShift = 330;
weight = -10;
width = 52;
};
};
width = 484;
},
{
anchors = (
{
name = bottom;
position = "{242, 330}";
},
{
name = top;
position = "{242, 651}";
}
);
layerId = "7B53E429-1BF0-49C5-9F57-63EEBF39C6CC";
paths = (
{
closed = 1;
nodes = (
"238 329 OFFCURVE",
"251 333 OFFCURVE",
"255 344 CURVE SMOOTH",
"343 603 LINE",
"329 603 LINE",
"349 368 LINE",
"359 380 LINE",
"319 363 LINE SMOOTH",
"313 360 OFFCURVE",
"310 345 OFFCURVE",
"310 330 CURVE",
"463 330 LINE",
"472 343 OFFCURVE",
"475 353 OFFCURVE",
"475 369 CURVE",
"422 383 LINE",
"430 370 LINE",
"409 613 LINE",
"398 601 LINE",
"448 618 LINE SMOOTH",
"454 620 OFFCURVE",
"456 637 OFFCURVE",
"456 651 CURVE",
"307 651 LINE",
"233 433 LINE",
"260 433 LINE",
"175 651 LINE",
"43 651 LINE",
"35 638 OFFCURVE",
"32 629 OFFCURVE",
"32 612 CURVE",
"83 598 LINE",
"77 609 LINE",
"54 367 LINE",
"63 381 LINE",
"19 363 LINE SMOOTH",
"12 360 OFFCURVE",
"11 343 OFFCURVE",
"11 330 CURVE",
"147 330 LINE",
"156 343 OFFCURVE",
"159 352 OFFCURVE",
"159 369 CURVE",
"99 383 LINE",
"103 369 LINE",
"125 596 LINE",
"110 596 LINE",
"212 333 LINE",
"215 331 OFFCURVE",
"223 329 OFFCURVE",
"231 329 CURVE SMOOTH"
);
}
);
userData = {
RMXScaler = {
adjustSpace = 5;
height = 50;
verticalShift = 330;
weight = -100;
width = 52;
};
};
width = 485;
}
);
leftKerningGroup = M.sup;
rightKerningGroup = M.sup;
userData = {
RMXScaler = {
source = M;
};
};
},
{
export = 0;
glyphname = R.sup;
layers = (
{
layerId = "E1BF09ED-4302-4AD3-9939-8FDA35DE0FE8";
paths = (
{
closed = 1;
nodes = (
"138 332 LINE SMOOTH",
"145 332 OFFCURVE",
"148 336 OFFCURVE",
"148 348 CURVE",
"95 358 LINE",
"100 352 LINE",
"100 482 LINE",
"95 480 LINE",
"106 476 OFFCURVE",
"128 474 OFFCURVE",
"147 474 CURVE SMOOTH",
"222 474 OFFCURVE",
"270 517 OFFCURVE",
"270 571 CURVE SMOOTH",
"270 616 OFFCURVE",
"231 651 OFFCURVE",
"163 649 CURVE SMOOTH",
"41 649 LINE SMOOTH",
"34 649 OFFCURVE",
"31 644 OFFCURVE",
"31 633 CURVE",
"75 622 LINE",
"70 628 LINE",
"70 351 LINE",
"76 357 LINE",
"39 346 LINE SMOOTH",
"35 345 OFFCURVE",
"31 339 OFFCURVE",
"31 332 CURVE"
);
},
{
closed = 1;
nodes = (
"100 630 LINE",
"95 624 LINE",
"110 628 OFFCURVE",
"135 631 OFFCURVE",
"154 631 CURVE SMOOTH",
"200 631 OFFCURVE",
"232 606 OFFCURVE",
"232 565 CURVE SMOOTH",
"232 521 OFFCURVE",
"202 492 OFFCURVE",
"148 492 CURVE SMOOTH",
"130 492 OFFCURVE",
"104 494 OFFCURVE",
"95 498 CURVE",
"100 491 LINE"
);
},
{
closed = 1;
nodes = (
"307 324 OFFCURVE",
"316 331 OFFCURVE",
"320 336 CURVE",
"282 358 OFFCURVE",
"231 418 OFFCURVE",
"188 491 CURVE",
"163 482 LINE",
"217 375 OFFCURVE",
"263 324 OFFCURVE",
"297 324 CURVE SMOOTH"
);
}
);
userData = {
RMXScaler = {
height = 50;
verticalShift = 330;
width = 52;
};
};
width = 328;
},
{
layerId = "A9E90CC4-8E6C-407E-8E88-16513AA8D05B";
paths = (
{
closed = 1;
nodes = (
"159 330 LINE",
"167 340 OFFCURVE",
"169 348 OFFCURVE",
"169 360 CURVE",
"120 370 LINE",
"138 352 LINE",
"138 465 LINE",
"126 466 LINE",
"144 460 OFFCURVE",
"166 457 OFFCURVE",
"182 457 CURVE SMOOTH",
"255 457 OFFCURVE",
"304 506 OFFCURVE",
"304 562 CURVE SMOOTH",
"304 613 OFFCURVE",
"265 651 OFFCURVE",
"199 651 CURVE SMOOTH",
"38 651 LINE",
"31 642 OFFCURVE",
"28 632 OFFCURVE",
"28 621 CURVE",
"73 610 LINE",
"63 621 LINE",
"63 358 LINE",
"73 369 LINE",
"36 358 LINE SMOOTH",
"30 356 OFFCURVE",
"28 344 OFFCURVE",
"28 330 CURVE"
);
},
{
closed = 1;
nodes = (
"138 614 LINE",
"128 606 LINE",
"143 609 OFFCURVE",
"156 611 OFFCURVE",
"169 611 CURVE SMOOTH",
"206 611 OFFCURVE",
"226 593 OFFCURVE",
"226 557 CURVE SMOOTH",
"226 525 OFFCURVE",
"207 499 OFFCURVE",
"170 499 CURVE SMOOTH",
"155 499 OFFCURVE",
"138 502 OFFCURVE",
"127 506 CURVE",
"138 495 LINE"
);
},
{
closed = 1;
nodes = (
"314 324 OFFCURVE",
"334 333 OFFCURVE",
"350 345 CURVE",
"315 367 OFFCURVE",
"270 427 OFFCURVE",
"234 495 CURVE",
"172 477 LINE",
"210 364 OFFCURVE",
"255 324 OFFCURVE",
"297 324 CURVE SMOOTH"
);
}
);
userData = {
RMXScaler = {
height = 50;
verticalShift = 330;
weight = -10;
width = 52;
};
};
width = 358;
},
{
layerId = "7B53E429-1BF0-49C5-9F57-63EEBF39C6CC";
paths = (
{
closed = 1;
nodes = (
"166 330 LINE",
"174 342 OFFCURVE",
"177 350 OFFCURVE",
"177 368 CURVE",
"134 382 LINE",
"147 368 LINE",
"147 469 LINE",
"137 466 LINE",
"150 461 OFFCURVE",
"167 458 OFFCURVE",
"186 458 CURVE SMOOTH",
"255 458 OFFCURVE",
"310 498 OFFCURVE",
"310 564 CURVE SMOOTH",
"310 620 OFFCURVE",
"259 651 OFFCURVE",
"193 651 CURVE SMOOTH",
"21 651 LINE",
"13 639 OFFCURVE",
"10 629 OFFCURVE",
"10 612 CURVE",
"60 598 LINE",
"52 608 LINE",
"52 368 LINE",
"59 379 LINE",
"19 362 LINE SMOOTH",
"14 360 OFFCURVE",
"11 344 OFFCURVE",
"11 330 CURVE"
);
},
{
closed = 1;
nodes = (
"147 606 LINE",
"138 598 LINE",
"160 603 OFFCURVE",
"167 604 OFFCURVE",
"171 604 CURVE SMOOTH",
"196 604 OFFCURVE",
"212 587 OFFCURVE",
"212 556 CURVE SMOOTH",
"212 516 OFFCURVE",
"194 502 OFFCURVE",
"164 502 CURVE SMOOTH",
"158 502 OFFCURVE",
"144 505 OFFCURVE",
"138 508 CURVE",
"147 498 LINE"
);
},
{
closed = 1;
nodes = (
"306 323 OFFCURVE",
"335 329 OFFCURVE",
"358 341 CURVE",
"311 379 OFFCURVE",
"273 435 OFFCURVE",
"248 500 CURVE",
"162 479 LINE",
"217 331 OFFCURVE",
"229 323 OFFCURVE",
"290 323 CURVE SMOOTH"
);
}
);
userData = {
RMXScaler = {
adjustSpace = 5;
height = 50;
verticalShift = 330;
weight = -100;
width = 52;
};
};
width = 366;
}
);
leftKerningGroup = H.sup;
rightKerningGroup = R.sup;
userData = {
RMXScaler = {
source = R;
};
};
},
